<svg width="1512" height="982" viewBox="0 0 1512 982" fill="none" xmlns="http://www.w3.org/2000/svg">
<rect width="1512" height="982" fill="white"/>
<g clip-path="url(#clip0_3_681)">
<path opacity="0.5" d="M381.072 931.707C587.255 931.707 754.399 925.631 754.399 918.136C754.399 910.641 587.255 904.565 381.072 904.565C174.89 904.565 7.74561 910.641 7.74561 918.136C7.74561 925.631 174.89 931.707 381.072 931.707Z" fill="#D5ECFF"/>
<path fill-rule="evenodd" clip-rule="evenodd" d="M626.119 446.034V483.294C626.119 502.031 610.99 517.221 592.329 517.221H365.661C346.999 517.221 331.871 502.031 331.871 483.294V446.034C331.871 427.297 346.999 412.107 365.661 412.107L592.329 412.107C610.99 412.107 626.119 427.297 626.119 446.034Z" fill="#EECCDC"/>
<path fill-rule="evenodd" clip-rule="evenodd" d="M620.435 441.865V479.124C620.435 497.862 605.307 513.051 586.645 513.051H359.975C341.313 513.051 326.185 497.862 326.185 479.124V441.865C326.185 423.128 341.313 407.938 359.975 407.938L586.645 407.938C605.307 407.938 620.435 423.128 620.435 441.865Z" fill="#FCEBEC"/>
<path fill-rule="evenodd" clip-rule="evenodd" d="M352.965 423.848H592.519C595.839 423.848 598.53 426.55 598.53 429.883C598.53 433.216 595.839 435.918 592.519 435.918H352.965V423.848Z" fill="#EECCDC"/>
<path fill-rule="evenodd" clip-rule="evenodd" d="M352.965 454.461H462.189C465.509 454.461 468.2 457.163 468.2 460.496C468.2 463.83 465.509 466.532 462.189 466.532H352.965V454.461Z" fill="#EECCDC"/>
<path fill-rule="evenodd" clip-rule="evenodd" d="M352.965 484.9H521.463C524.783 484.9 527.474 487.602 527.474 490.935C527.474 494.268 524.783 496.97 521.463 496.97H352.965V484.9Z" fill="#EECCDC"/>
<path fill-rule="evenodd" clip-rule="evenodd" d="M625.995 323.724V361.075C625.995 379.813 610.867 395.002 592.205 395.002H531.755C513.093 395.002 497.964 379.813 497.964 361.075V323.724C497.964 304.986 513.093 289.797 531.755 289.797H592.205C610.867 289.797 625.995 304.986 625.995 323.724Z" fill="#EECCDC"/>
<path fill-rule="evenodd" clip-rule="evenodd" d="M620.962 319.551V356.902C620.962 375.64 605.833 390.829 587.171 390.829H526.721C508.059 390.829 492.931 375.64 492.931 356.902V319.551C492.931 300.813 508.059 285.624 526.721 285.624H587.171C605.833 285.624 620.962 300.813 620.962 319.551Z" fill="#FCEBEC"/>
<path fill-rule="evenodd" clip-rule="evenodd" d="M514.718 352.93C506.661 329.437 519.048 303.851 542.386 295.782C565.724 287.714 591.174 300.219 599.231 323.713C607.288 347.206 594.901 372.793 571.563 380.861C548.225 388.929 522.775 376.424 514.718 352.93ZM534.082 346.236C538.454 358.984 552.248 365.776 564.891 361.405C577.534 357.034 584.239 343.156 579.867 330.407C575.495 317.659 561.702 310.867 549.058 315.238C536.415 319.609 529.71 333.487 534.082 346.236Z" fill="#56ACF6"/>
<path fill-rule="evenodd" clip-rule="evenodd" d="M530.486 302.13L542.594 318.75C536.724 323.074 533.109 329.85 532.712 337.093L512.197 335.971C512.938 322.607 519.629 310.104 530.486 302.13Z" fill="#E93737"/>
<path fill-rule="evenodd" clip-rule="evenodd" d="M578.436 349.771L596.569 359.419C593.217 365.756 588.359 371.305 582.284 375.472L570.648 358.523C573.964 356.257 576.613 353.231 578.436 349.771Z" fill="#1BC0D7"/>
<path fill-rule="evenodd" clip-rule="evenodd" d="M459.299 319.222V356.444C459.299 375.181 444.17 390.371 425.508 390.371H365.039C346.377 390.371 331.248 375.181 331.248 356.444V319.222C331.248 300.485 346.377 285.295 365.039 285.295H425.508C444.17 285.295 459.299 300.485 459.299 319.222Z" fill="#EECCDC"/>
<path fill-rule="evenodd" clip-rule="evenodd" d="M454.24 315.026V352.248C454.24 370.985 439.111 386.175 420.449 386.175H359.979C341.317 386.175 326.189 370.985 326.189 352.248V315.026C326.189 296.289 341.317 281.099 359.979 281.099H420.449C439.111 281.099 454.24 296.289 454.24 315.026Z" fill="#FCEBEC"/>
<path fill-rule="evenodd" clip-rule="evenodd" d="M390.302 288.879C415.063 288.879 435.137 308.957 435.137 333.724C435.137 358.492 415.063 378.569 390.302 378.569C365.54 378.569 345.466 358.492 345.466 333.724C345.466 308.957 365.54 288.879 390.302 288.879ZM390.302 309.43C376.865 309.43 365.972 320.307 365.972 333.724C365.972 347.142 376.865 358.019 390.302 358.019C403.738 358.019 414.631 347.142 414.631 333.724C414.631 320.307 403.738 309.43 390.302 309.43Z" fill="#56ACF6"/>
<path fill-rule="evenodd" clip-rule="evenodd" d="M433.043 320.39L413.439 326.469C411.276 319.492 406.069 313.858 399.373 311.125L407.114 292.026C419.464 297.078 429.066 307.494 433.043 320.39Z" fill="#E93737"/>
<path fill-rule="evenodd" clip-rule="evenodd" d="M372.507 350.343L357.509 364.408C352.63 359.166 348.984 352.751 347.036 345.631L366.797 340.106C367.852 343.99 369.841 347.488 372.507 350.343Z" fill="#1BC0D7"/>
<path fill-rule="evenodd" clip-rule="evenodd" d="M292.601 319.139L292.601 475.134C292.601 493.871 277.472 509.061 258.81 509.061H174.76C156.098 509.061 140.969 493.871 140.969 475.134L140.969 319.139C140.969 300.401 156.098 285.212 174.76 285.212H258.81C277.472 285.212 292.601 300.401 292.601 319.139Z" fill="#EECCDC"/>
<path fill-rule="evenodd" clip-rule="evenodd" d="M287.546 314.939L287.546 470.937C287.546 489.674 272.418 504.864 253.756 504.864H169.707C151.045 504.864 135.916 489.674 135.916 470.937L135.916 314.939C135.916 296.201 151.045 281.012 169.707 281.012H253.756C272.418 281.012 287.546 296.201 287.546 314.939Z" fill="#FCEBEC"/>
<path d="M262.269 328.658H162.899C158.265 328.658 154.509 332.429 154.509 337.081V417.941C154.509 422.593 158.265 426.364 162.899 426.364H262.269C266.903 426.364 270.659 422.593 270.659 417.941V337.081C270.659 332.429 266.903 328.658 262.269 328.658Z" fill="white"/>
<path d="M200.872 389.953L201.076 390.408C202.254 393.019 203.072 394.487 204.122 395.723C205.424 397.257 206.922 398.121 208.929 398.373C210.822 398.61 213.429 396.864 216.591 393.029L216.85 392.711C219.332 389.647 221.874 385.726 225.418 379.712L226.155 378.455C227.163 376.729 229.148 373.319 229.763 372.276L230.229 371.488C231.522 369.311 232.581 367.595 233.575 366.086L233.663 365.953C236.706 361.352 239.044 358.807 241.524 358.082C244.447 357.227 246.832 357.941 248.242 360.101C249.123 361.45 249.487 362.998 249.729 365.444L249.83 366.566L249.893 367.312C249.933 367.765 249.971 368.135 250.008 368.445L250.024 368.571L250.103 368.462L250.162 368.38L250.279 368.213C251.165 366.929 252.234 364.98 253.465 362.388L253.704 361.881C256.302 356.328 259.549 348.106 263.434 337.233C263.869 336.017 265.203 335.385 266.415 335.821C267.626 336.258 268.256 337.597 267.821 338.814L267.338 340.161C263.539 350.723 260.347 358.74 257.754 364.229L257.672 364.402C256.311 367.269 255.104 369.459 254.03 370.994L253.958 371.096C252.544 373.087 251.242 374.192 249.566 374.192C247.62 374.192 246.384 372.94 245.803 371.105L245.764 370.978C245.489 370.066 245.373 369.186 245.218 367.352L245.117 366.175L245.094 365.935C244.922 364.207 244.689 363.194 244.344 362.666C244.245 362.513 244.183 362.465 244.094 362.438C243.871 362.371 243.462 362.389 242.827 362.575C241.817 362.871 239.959 364.892 237.545 368.542L237.3 368.916C236.338 370.387 235.291 372.094 233.997 374.281L232.798 376.326C231.686 378.23 230.113 380.932 229.681 381.667L229.046 382.745C225.46 388.801 222.851 392.774 220.181 396.013C216.092 400.973 212.302 403.511 208.351 403.016C205.142 402.614 202.605 401.151 200.575 398.759C199.145 397.074 198.152 395.281 196.769 392.203L196.072 390.633C194.792 387.755 194.051 386.378 193.079 385.25C191.974 383.967 190.76 383.368 189.043 383.368C186.425 383.368 182.769 386.237 178.399 392.242C173.736 398.647 168.438 408.353 162.535 421.333C162 422.508 160.618 423.026 159.447 422.489C158.276 421.952 157.761 420.564 158.295 419.389C170.665 392.192 180.494 378.688 189.043 378.688C192.164 378.688 194.642 379.911 196.604 382.188L196.737 382.344C198.008 383.858 198.878 385.475 200.25 388.55L200.872 389.953Z" fill="#56ACF6"/>
<path d="M263.653 367.044C264.336 365.949 265.774 365.617 266.864 366.303C267.955 366.989 268.286 368.432 267.603 369.528C257.059 386.434 248.953 393.934 242.245 391.32C240.962 390.82 239.624 390.019 238 388.844L237.686 388.615C237.227 388.277 236.74 387.907 236.168 387.464L233.774 385.588L233.34 385.253C229.637 382.397 227.269 380.979 224.979 380.456C221.755 379.72 219.073 381.137 216.346 385.94L216.264 386.087C212.144 393.443 206.946 397.391 200.789 398.428C196.184 399.204 191.866 398.435 185.835 396.378L182.715 395.287C178.372 393.781 171.392 397.908 162.151 408.271C161.293 409.233 159.819 409.315 158.861 408.453C157.902 407.591 157.82 406.112 158.679 405.149C169.083 393.483 177.476 388.52 184.236 390.863L187.132 391.877C192.596 393.756 196.321 394.436 200.018 393.813C204.673 393.029 208.665 390.025 212.097 383.977L212.201 383.793C215.907 377.176 220.594 374.656 226.013 375.893C229.156 376.611 231.945 378.276 236.157 381.524L237.096 382.255C237.672 382.707 238.516 383.37 238.757 383.558L239.258 383.946C239.775 384.345 240.214 384.676 240.629 384.978L240.724 385.047C242.055 386.009 243.09 386.629 243.932 386.957C245.464 387.555 247.806 386.635 250.979 383.699C254.555 380.391 258.797 374.83 263.653 367.044Z" fill="#E93737"/>
<path d="M258.628 295.283H166.54V316.142H258.628V295.283Z" fill="#EECCDC"/>
<path d="M270.659 446.784H154.509V451.615H270.659V446.784Z" fill="#EECCDC"/>
<path d="M270.659 474.23H154.509V479.06H270.659V474.23Z" fill="#EECCDC"/>
<path fill-rule="evenodd" clip-rule="evenodd" d="M345.54 728.083C342.804 743.877 316.471 914.188 316.471 914.188C316.471 914.188 317.065 918.489 321.349 919.121C325.633 919.754 327.901 915.832 327.901 915.832L365.039 732.221L345.54 728.083Z" fill="#DDB0C8"/>
<path fill-rule="evenodd" clip-rule="evenodd" d="M431.959 732.116C434.85 747.883 468.985 916.791 468.985 916.791C468.985 916.791 471.028 920.619 475.265 919.72C479.501 918.821 480.273 914.353 480.273 914.353L451.678 729.207L431.959 732.116Z" fill="#DDB0C8"/>
<path fill-rule="evenodd" clip-rule="evenodd" d="M475.244 731.602C478.135 747.369 512.27 916.277 512.27 916.277C512.27 916.277 514.313 920.104 518.55 919.206C522.786 918.307 523.558 913.839 523.558 913.839L494.963 728.693L475.244 731.602Z" fill="#DDB0C8"/>
<path fill-rule="evenodd" clip-rule="evenodd" d="M498.254 735.293H340.275C334.292 735.293 329.441 730.423 329.441 724.415C329.441 718.407 334.292 713.536 340.275 713.536H498.254C504.238 713.536 509.089 718.407 509.089 724.415C509.089 730.423 504.238 735.293 498.254 735.293Z" fill="#EECCDC"/>
<path fill-rule="evenodd" clip-rule="evenodd" d="M315.783 893.803L299.332 909.473L274.246 907.423L276.257 900.777L306.982 890.638L315.783 893.803Z" fill="#56ACF6"/>
<path fill-rule="evenodd" clip-rule="evenodd" d="M325.763 800.483C325.924 802.734 319.672 847.892 319.672 847.892C319.672 847.892 311.745 848.624 295.891 850.089L290.049 797.967L325.763 800.483Z" fill="#ECAFA3"/>
<path fill-rule="evenodd" clip-rule="evenodd" d="M323.031 872.689C322.976 871.922 320.397 846.649 320.397 846.649C320.397 846.649 321.085 845.52 320.876 842.604C320.667 839.688 318.787 837.045 306.475 839.006C294.163 840.968 293.509 842.557 293.596 843.785C293.684 845.013 295.27 847.831 295.413 849.827C295.556 851.822 295.87 871.239 295.87 871.239L323.031 872.689Z" fill="#E4F9FF"/>
<path fill-rule="evenodd" clip-rule="evenodd" d="M323.315 871.705L325.569 891.91L309.29 888.81L293.92 895.123L270.565 903.667L251.055 901.627L251.875 896.592C251.875 896.592 269.399 887.399 273.585 884.848C277.771 882.297 279.447 877.854 279.447 877.854L286.027 868.309C286.027 868.309 293.053 858.125 298.665 857.249C304.277 856.372 309.076 857.358 308.009 859.617C306.941 861.877 304.295 865.863 304.295 865.863L314.55 863.8L320.361 870.977L321.901 872.67L321.282 873.862" fill="#F4F0F1"/>
<path fill-rule="evenodd" clip-rule="evenodd" d="M321.74 874.646C321.74 874.646 321.952 876.454 316.219 878.274C310.486 880.093 304.331 882.937 303.45 879.851C302.568 876.765 303.998 873.679 303.998 873.679L298.742 877.535C298.742 877.535 296.32 881.77 299.092 885.881C301.863 889.992 308.812 890.157 308.812 890.157L311.757 887.46C311.757 887.46 320.963 882.244 322.933 878.622C324.903 875 321.74 874.646 321.74 874.646Z" fill="#F9C818"/>
<mask id="mask0_3_681" style="mask-type:alpha" maskUnits="userSpaceOnUse" x="246" y="860" width="93" height="63">
<path fill-rule="evenodd" clip-rule="evenodd" d="M338.916 866.9L249.979 860.617L246.114 916.463L335.051 922.747L338.916 866.9Z" fill="white"/>
</mask>
<g mask="url(#mask0_3_681)">
<path fill-rule="evenodd" clip-rule="evenodd" d="M323.722 867.281C323.722 867.281 330.458 883.281 329.867 883.052C329.276 882.823 325.489 874.997 325.331 877.991C325.175 880.986 327.137 884.819 326.732 888.148C326.732 888.148 323.662 896.187 321.813 896.319C319.964 896.452 311.149 894.142 311.149 894.142C311.149 894.142 307.128 888.905 298.799 894.38C290.47 899.854 279.718 905.43 279.718 905.43C279.718 905.43 281.027 906.532 281.078 907.557C281.129 908.582 280.476 909.978 280.476 909.978L313.064 905.271L330.605 893.357L332.776 893.588C332.776 893.588 334.79 894.834 334.972 898.451C335.154 902.068 334.99 903.006 335.532 904.126C336.074 905.246 337.464 907.464 333.231 908.539C328.999 909.614 297.219 917.218 283.217 918.375C269.216 919.531 254.846 915.539 250.955 911.725C247.065 907.909 246.462 904.863 247.33 901.943C248.198 899.023 249.917 895.504 253.934 896.173C257.951 896.843 260.245 897.512 266.831 895.404C273.419 893.296 276.021 893.543 275.789 895.041C275.559 896.54 270.707 897.968 270.707 897.968C270.707 897.968 264.196 899.422 264.243 900.067C264.289 900.712 264.514 901.282 270.42 900.829C276.325 900.375 283.401 899.082 292.682 893.416C301.965 887.75 304.717 885.53 310.815 886.217C316.912 886.905 322.377 889.718 323.915 885.392C325.453 881.067 321.246 875.332 321.278 873.866C321.31 872.4 323.311 871.708 323.311 871.708L323.707 865.81" fill="#15023F"/>
<path fill-rule="evenodd" clip-rule="evenodd" d="M322.887 863.596C322.887 863.596 323.109 863.889 323.71 865.795C324.311 867.7 324.52 873.573 322.48 873.38C320.44 873.187 318.843 869.151 317.033 866.866C315.223 864.581 312.94 863.94 310.991 865.011C309.041 866.083 301.51 865.613 301.51 865.613C301.51 865.613 303.527 862.174 310.217 862.111C310.217 862.111 314.945 860.541 317.708 864.853C320.471 869.166 322.154 873.451 322.356 869.824C322.53 866.701 321.55 864.789 321.757 863.686C321.965 862.584 322.887 863.596 322.887 863.596Z" fill="#451989"/>
<path fill-rule="evenodd" clip-rule="evenodd" d="M271.614 885.694C271.614 885.694 275.18 886.224 285.541 885.248C295.901 884.27 293.603 879.555 297.827 878.307C302.051 877.063 302.507 876.871 304.814 872.928C307.118 868.985 312.944 872.583 315.719 871.913C318.495 871.241 310.182 863.572 310.182 863.572C310.182 863.572 305.686 862.358 301.51 865.621C300.335 866.54 297.963 869.831 297.245 870.602C296.529 871.373 292.173 872.958 288.299 877.831C284.426 882.706 278.974 881.324 277.89 881.622C276.809 881.922 286.141 868.904 286.141 868.904L286.123 867.609C286.123 867.609 280.295 876.214 277.443 880.048C274.589 883.882 272.239 884.836 271.814 885.061C271.391 885.288 271.614 885.694 271.614 885.694Z" fill="#E263AB"/>
<path fill-rule="evenodd" clip-rule="evenodd" d="M327.137 875.201C327.137 875.201 333.814 890.456 333.441 893.955C333.068 897.453 325.59 895.2 322.442 901.913C319.293 908.627 314.586 911.568 294.65 915.05C274.714 918.531 257.892 911.026 257.808 909.858C257.725 908.689 257.855 906.429 257.855 906.429C257.855 906.429 286.568 911.126 298.47 903.033C310.372 894.94 310.78 892.464 315.25 893.612C319.721 894.76 322.346 893.3 325.754 889.141C325.754 889.141 326.093 887.062 324.829 881.672C323.565 876.283 324.67 868.592 327.137 875.201Z" fill="white"/>
<path fill-rule="evenodd" clip-rule="evenodd" d="M309.941 862.774C309.941 862.774 312.376 860.116 308.344 857.243C304.313 854.371 297.115 856.504 294.955 858.804C294.955 858.804 299.085 856.777 304.224 857.313C309.363 857.848 308.156 859.327 305.794 862.996L310.439 862.4" fill="#451989"/>
<path fill-rule="evenodd" clip-rule="evenodd" d="M303.068 865.751C302.517 866.633 302.988 867.926 304.12 868.64C305.253 869.354 306.618 869.218 307.17 868.336C307.721 867.455 307.25 866.161 306.118 865.447C304.985 864.733 303.62 864.869 303.068 865.751Z" fill="#1F003C"/>
<path fill-rule="evenodd" clip-rule="evenodd" d="M306.493 867.386C306.493 867.386 306.224 865.5 302.602 864.255C298.981 863.009 292.138 860.991 288.508 863.825C284.879 866.66 285.204 867.94 285.204 867.94C285.204 867.94 287.856 866.346 289.906 865.664C291.957 864.983 294.738 864.717 297.509 865.254C300.28 865.792 303.044 866.697 303.937 867.068C304.83 867.439 305.66 869.251 306.493 867.386Z" fill="#E8D9F3"/>
<path fill-rule="evenodd" clip-rule="evenodd" d="M298.212 869.814C297.66 870.696 298.131 871.989 299.264 872.703C300.396 873.417 301.761 873.281 302.313 872.399C302.864 871.518 302.394 870.224 301.261 869.51C300.128 868.797 298.763 868.933 298.212 869.814Z" fill="#1F003C"/>
<path fill-rule="evenodd" clip-rule="evenodd" d="M301.636 871.45C301.636 871.45 301.373 869.563 297.888 868.308C294.403 867.052 287.82 865.016 284.34 867.839C280.859 870.663 281.175 871.944 281.175 871.944C281.175 871.944 283.719 870.358 285.689 869.682C287.658 869.006 290.329 868.748 292.994 869.293C295.66 869.838 298.319 870.751 299.179 871.124C300.038 871.497 300.84 873.312 301.636 871.45Z" fill="#E8D9F3"/>
<path fill-rule="evenodd" clip-rule="evenodd" d="M292.846 873.511C292.294 874.392 292.766 875.686 293.898 876.4C295.031 877.113 296.396 876.977 296.947 876.096C297.499 875.214 297.028 873.92 295.895 873.207C294.763 872.493 293.398 872.629 292.846 873.511Z" fill="#1F003C"/>
<path fill-rule="evenodd" clip-rule="evenodd" d="M296.276 875.224C296.276 875.224 296.053 873.528 293.276 872.375C290.499 871.222 283.482 869.696 280.738 872.205C277.995 874.714 279.689 876.443 279.689 876.443C279.689 876.443 282.039 874.11 283.598 873.518C285.157 872.926 287.277 872.714 289.397 873.223C291.518 873.732 293.637 874.572 294.322 874.913C295.007 875.255 295.658 876.89 296.276 875.224Z" fill="#E8D9F3"/>
</g>
<path fill-rule="evenodd" clip-rule="evenodd" d="M502.676 662.632C502.676 662.632 504.116 706.516 496.328 703.915C496.328 703.915 453.915 708.141 443.555 709.766C438.342 710.584 428.373 716.848 397.176 722.073C365.978 727.299 336.232 732.686 336.232 734.786C336.232 739.012 329.436 769.84 327.818 807.548C327.818 807.548 318.105 819.25 288.966 808.848C288.966 808.848 286.854 735.122 301.424 706.516C329.243 669.458 417.425 662.632 417.425 662.632H502.676Z" fill="#E93737"/>
<path fill-rule="evenodd" clip-rule="evenodd" d="M418.746 795.883C418.746 798.14 415.962 855.874 415.962 855.874L393.257 857.969L380.705 792.723L418.746 795.883Z" fill="#ECAFA3"/>
<path fill-rule="evenodd" clip-rule="evenodd" d="M411.437 868.542L396.113 885.339L370.949 885.057L372.495 878.281L402.439 866.002L411.437 868.542Z" fill="#56ACF6"/>
<path fill-rule="evenodd" clip-rule="evenodd" d="M411.375 895.046L396.051 911.843L370.887 911.561L372.433 904.786L402.377 892.506L411.375 895.046Z" fill="#56ACF6"/>
<path fill-rule="evenodd" clip-rule="evenodd" d="M418.092 877.024C418.092 876.254 417.326 850.858 417.326 850.858C417.326 850.858 418.092 849.78 418.092 846.856C418.092 843.931 416.406 841.16 403.989 842.238C391.571 843.315 390.805 844.855 390.805 846.086C390.805 847.317 392.184 850.242 392.184 852.243C392.184 854.244 391.111 873.638 391.111 873.638L418.092 877.024Z" fill="#E4F9FF"/>
<path fill-rule="evenodd" clip-rule="evenodd" d="M418.453 876.05L419.257 896.372L403.243 892.115L387.464 897.318L363.561 904.175L344.25 900.746L345.427 895.78C345.427 895.78 363.561 887.86 367.917 885.613C372.274 883.367 374.263 879.053 374.263 879.053L381.508 869.999C381.508 869.999 389.242 860.339 394.901 859.866C400.561 859.392 405.277 860.718 404.051 862.896C402.825 865.075 399.901 868.863 399.901 868.863L410.276 867.537L415.558 875.113L416.973 876.913L416.271 878.058" fill="#F4F0F1"/>
<path fill-rule="evenodd" clip-rule="evenodd" d="M416.675 878.879C416.675 878.879 416.757 880.697 410.91 882.103C405.062 883.509 398.721 885.907 398.062 882.765C397.403 879.623 399.05 876.646 399.05 876.646L393.532 880.119C393.532 880.119 390.814 884.171 393.285 888.47C395.756 892.771 402.674 893.432 402.674 893.432L405.804 890.951C405.804 890.951 415.357 886.403 417.581 882.93C419.804 879.457 416.675 878.879 416.675 878.879Z" fill="#F9C818"/>
<path fill-rule="evenodd" clip-rule="evenodd" d="M419.179 871.662C419.179 871.662 424.753 888.108 424.18 887.837C423.608 887.567 420.389 879.486 420.019 882.464C419.648 885.441 421.332 889.405 420.69 892.698C420.69 892.698 417.054 900.5 415.201 900.5C413.347 900.5 404.72 897.566 404.72 897.566C404.72 897.566 401.085 892.054 392.387 896.921C383.689 901.789 372.567 906.585 372.567 906.585C372.567 906.585 373.794 907.778 373.772 908.804C373.749 909.831 372.998 911.177 372.998 911.177L405.835 908.808L424.18 898.172L426.329 898.558C426.329 898.558 428.248 899.945 428.171 903.567C428.095 907.189 427.865 908.114 428.325 909.27C428.786 910.426 430.014 912.738 425.715 913.509C421.417 914.279 389.179 919.597 375.132 919.751C361.086 919.905 347.04 914.896 343.432 910.811C339.825 906.727 339.441 903.644 340.515 900.793C341.59 897.941 343.555 894.552 347.514 895.507C351.472 896.462 353.712 897.294 360.432 895.661C367.151 894.028 369.729 894.459 369.392 895.938C369.054 897.417 364.114 898.495 364.114 898.495C364.114 898.495 357.516 899.481 357.516 900.128C357.516 900.775 357.701 901.36 363.623 901.33C369.545 901.299 376.693 900.514 386.355 895.523C396.017 890.532 398.921 888.514 404.953 889.635C410.985 890.757 416.234 893.953 418.077 889.748C419.921 885.542 416.135 879.519 416.271 878.058C416.407 876.598 418.453 876.05 418.453 876.05L419.268 870.193" fill="#15023F"/>
<path fill-rule="evenodd" clip-rule="evenodd" d="M418.604 867.939C418.604 867.939 418.805 868.249 419.268 870.193C419.731 872.137 419.521 878.013 417.5 877.674C415.479 877.336 414.174 873.194 412.532 870.785C410.891 868.375 408.659 867.572 406.639 868.502C404.618 869.432 397.14 868.426 397.14 868.426C397.14 868.426 399.397 865.138 406.074 865.553C406.074 865.553 410.901 864.324 413.349 868.824C415.798 873.326 417.17 877.722 417.63 874.117C418.026 871.013 417.185 869.035 417.472 867.949C417.757 866.864 418.604 867.939 418.604 867.939Z" fill="#451989"/>
<path fill-rule="evenodd" clip-rule="evenodd" d="M365.889 886.32C365.889 886.32 369.408 887.104 379.811 886.87C390.214 886.634 388.259 881.765 392.56 880.822C396.862 879.881 397.331 879.722 399.913 875.953C402.493 872.183 408.046 876.189 410.861 875.719C413.678 875.246 405.935 867.001 405.935 867.001C405.935 867.001 401.537 865.468 397.14 868.426C395.902 869.258 393.302 872.373 392.53 873.091C391.761 873.809 387.303 875.08 383.092 879.666C378.881 884.254 373.542 882.485 372.44 882.705C371.34 882.927 381.577 870.604 381.577 870.604L381.652 869.31C381.652 869.31 375.225 877.481 372.107 881.102C368.986 884.725 366.574 885.508 366.134 885.702C365.696 885.899 365.889 886.32 365.889 886.32Z" fill="#E263AB"/>
<path fill-rule="evenodd" clip-rule="evenodd" d="M422.019 879.809C422.019 879.809 427.589 895.507 426.967 898.971C426.345 902.436 419.049 899.653 415.429 906.127C411.809 912.601 406.905 915.199 386.773 917.25C366.642 919.3 350.401 910.61 350.401 909.438C350.401 908.267 350.693 906.021 350.693 906.021C350.693 906.021 378.993 912.758 391.442 905.532C403.89 898.307 404.473 895.866 408.849 897.33C413.226 898.795 415.949 897.526 419.645 893.62C419.645 893.62 420.131 891.569 419.256 886.101C418.38 880.633 420.031 873.038 422.019 879.809Z" fill="white"/>
<path fill-rule="evenodd" clip-rule="evenodd" d="M405.748 866.196C405.748 866.196 408.366 863.717 404.551 860.563C400.736 857.408 393.404 859.023 391.085 861.164C391.085 861.164 395.35 859.436 400.436 860.337C405.523 861.239 404.214 862.628 401.596 866.121L406.272 865.858" fill="#451989"/>
<path fill-rule="evenodd" clip-rule="evenodd" d="M398.684 868.673C398.071 869.513 398.448 870.838 399.527 871.631C400.605 872.424 401.976 872.386 402.589 871.545C403.202 870.705 402.825 869.381 401.747 868.588C400.668 867.795 399.297 867.833 398.684 868.673Z" fill="#1F003C"/>
<path fill-rule="evenodd" clip-rule="evenodd" d="M401.981 870.548C401.981 870.548 401.848 868.646 398.325 867.144C394.801 865.642 388.12 863.139 384.298 865.709C380.475 868.279 380.708 869.58 380.708 869.58C380.708 869.58 383.467 868.178 385.561 867.644C387.655 867.11 390.447 867.044 393.173 867.778C395.898 868.512 398.591 869.614 399.455 870.047C400.319 870.481 401.017 872.35 401.981 870.548Z" fill="#E8D9F3"/>
<path fill-rule="evenodd" clip-rule="evenodd" d="M393.55 872.378C392.937 873.218 393.315 874.542 394.393 875.335C395.471 876.128 396.843 876.09 397.456 875.25C398.069 874.41 397.692 873.085 396.613 872.292C395.535 871.499 394.163 871.537 393.55 872.378Z" fill="#1F003C"/>
<path fill-rule="evenodd" clip-rule="evenodd" d="M396.848 874.253C396.848 874.253 396.72 872.35 393.334 870.848C389.948 869.347 383.528 866.843 379.854 869.413C376.181 871.983 376.404 873.285 376.404 873.285C376.404 873.285 379.056 871.883 381.068 871.349C383.08 870.815 385.764 870.748 388.383 871.483C391.002 872.217 393.59 873.318 394.42 873.752C395.251 874.186 395.921 876.055 396.848 874.253Z" fill="#E8D9F3"/>
<path fill-rule="evenodd" clip-rule="evenodd" d="M387.936 875.68C387.323 876.52 387.7 877.844 388.778 878.637C389.857 879.43 391.228 879.392 391.841 878.552C392.454 877.712 392.077 876.387 390.998 875.594C389.92 874.801 388.549 874.839 387.936 875.68Z" fill="#1F003C"/>
<path fill-rule="evenodd" clip-rule="evenodd" d="M391.233 877.633C391.233 877.633 391.131 875.924 388.445 874.575C385.758 873.226 378.867 871.201 375.952 873.51C373.037 875.818 374.602 877.665 374.602 877.665C374.602 877.665 377.113 875.504 378.71 875.025C380.307 874.545 382.437 874.485 384.516 875.145C386.594 875.804 388.647 876.793 389.306 877.183C389.966 877.573 390.498 879.252 391.233 877.633Z" fill="#E8D9F3"/>
<path fill-rule="evenodd" clip-rule="evenodd" d="M480.324 722.073C449.126 727.299 419.38 732.686 419.38 734.785C419.38 739.012 421.906 769.84 420.287 807.548C420.287 807.548 410.574 819.25 381.436 808.848C381.436 808.848 370.002 735.121 384.572 706.515C412.392 669.458 500.573 662.631 500.573 662.631C507.872 698.775 501.122 718.589 480.324 722.073Z" fill="#E93737"/>
<path d="M409.299 684.077C389.473 691.513 379.226 705.247 378.64 725.188L378.626 725.794L379.791 725.817C380.172 706.235 389.922 692.791 409.122 685.395L409.707 685.173L409.299 684.077Z" fill="black"/>
<path fill-rule="evenodd" clip-rule="evenodd" d="M461.015 491.125C461.015 491.125 461.875 510.113 472.907 516.815C482.916 522.897 461.711 558.185 438.899 556.08C426.412 554.928 423.485 520.643 423.485 520.643C423.485 520.643 433.568 518.687 429.843 503.249L461.015 491.125Z" fill="#ECAFA3"/>
<path fill-rule="evenodd" clip-rule="evenodd" d="M442.749 510.432C457.538 508.636 468.21 498.873 469.705 482.678C474.004 483.365 475.018 472.117 473.821 468.504C472.622 464.886 468.71 467.002 468.71 467.002C468.494 466.43 468.31 465.831 468.158 465.206C461.698 438.6 443.604 439.655 443.604 439.655C410.355 441.394 418.145 475.476 420.045 484.518C421.945 493.56 428.453 512.166 442.749 510.432Z" fill="#ECAFA3"/>
<path fill-rule="evenodd" clip-rule="evenodd" d="M325.667 519.163C325.667 519.163 327.521 513.807 314.715 505.826C307.956 501.615 301.079 490.035 298.409 492.843C295.739 495.652 305.316 508.977 305.316 508.977C305.316 508.977 297.208 504.235 291.752 498.275C286.296 492.315 281.391 487.569 281.391 487.569C281.391 487.569 277.766 486.187 278.23 489.475C278.694 492.762 279.814 493.601 279.814 493.601C279.814 493.601 277.24 493.543 277.713 496.035C278.187 498.528 278.747 498.948 278.747 498.948C278.747 498.948 276.861 499.137 277.275 501.318C277.689 503.499 279.183 504.619 279.183 504.619C279.183 504.619 277.857 505.228 279.588 507.594C281.318 509.96 290.845 522.179 296.457 525.584C302.068 528.988 315.88 533.904 315.88 533.904C315.88 533.904 327.532 522.673 325.667 519.163Z" fill="#ECAFA3"/>
<path fill-rule="evenodd" clip-rule="evenodd" d="M295.23 516.208L295.514 515.567C295.473 515.548 291.315 513.652 286.303 508.391C282.834 504.75 281.056 503.974 280.175 503.964C279.757 503.965 279.562 504.124 279.512 504.174L280.006 504.671C279.987 504.69 279.976 504.696 279.976 504.696C279.987 504.69 281.203 504.053 285.798 508.877C290.914 514.246 295.057 516.131 295.23 516.208Z" fill="black"/>
<path fill-rule="evenodd" clip-rule="evenodd" d="M296.474 512.796L296.834 512.194C296.822 512.187 295.628 511.469 292.4 509.616C290.199 508.353 287.058 505.058 284.765 502.652C283.709 501.542 282.796 500.585 282.203 500.064C280.237 498.336 278.717 498.567 278.653 498.578L278.764 499.271C278.777 499.27 280.047 499.102 281.742 500.592C282.312 501.092 283.215 502.04 284.26 503.137C286.583 505.574 289.764 508.912 292.053 510.226C295.273 512.073 296.463 512.789 296.474 512.796Z" fill="black"/>
<path fill-rule="evenodd" clip-rule="evenodd" d="M297.411 509.991L297.761 509.383C297.717 509.358 293.323 506.793 290.124 504.039C287.141 501.473 284.341 497.702 282.837 495.676L282.485 495.204C281.024 493.248 279.989 493.191 279.875 493.191L279.864 493.893C279.872 493.894 280.687 493.966 281.926 495.625L282.276 496.096C283.797 498.143 286.627 501.955 289.668 504.572C292.918 507.368 297.367 509.965 297.411 509.991Z" fill="black"/>
<path fill-rule="evenodd" clip-rule="evenodd" d="M312.779 512.791L313.154 512.199C313.047 512.13 310.503 510.516 308.582 510.275C306.865 510.059 305.536 508.75 305.523 508.737L305.029 509.233C305.09 509.294 306.535 510.725 308.496 510.971C310.259 511.193 312.754 512.775 312.779 512.791Z" fill="black"/>
<path fill-rule="evenodd" clip-rule="evenodd" d="M315.88 533.904C315.88 533.904 318.443 535.776 322.871 544.901C327.299 554.026 343.378 593.1 343.378 593.1L354.842 552.479C354.842 552.479 332.33 521.043 322.474 512.265C312.617 503.487 315.88 533.904 315.88 533.904Z" fill="#ECAFA3"/>
<path fill-rule="evenodd" clip-rule="evenodd" d="M575.321 512.92C575.321 512.92 572.406 508.063 583.297 497.6C589.043 492.079 593.392 479.323 596.582 481.518C599.772 483.713 593.141 498.735 593.141 498.735C593.141 498.735 600.099 492.416 604.212 485.453C608.325 478.491 612.149 472.831 612.149 472.831C612.149 472.831 615.412 470.728 615.634 474.04C615.856 477.352 614.932 478.406 614.932 478.406C614.932 478.406 617.439 477.815 617.488 480.352C617.537 482.889 617.076 483.416 617.076 483.416C617.076 483.416 618.96 483.211 619.003 485.431C619.046 487.65 617.815 489.056 617.815 489.056C617.815 489.056 619.237 489.377 618.03 492.051C616.823 494.725 610.013 508.655 605.223 513.149C600.432 517.643 587.928 525.315 587.928 525.315C587.928 525.315 574.219 516.741 575.321 512.92Z" fill="#ECAFA3"/>
<path fill-rule="evenodd" clip-rule="evenodd" d="M604.495 503.721C604.65 503.609 608.316 500.907 612.217 494.593C615.722 488.921 617.041 489.29 617.055 489.296C617.054 489.296 617.042 489.292 617.02 489.277L617.402 488.689C617.342 488.65 617.116 488.53 616.71 488.621C615.849 488.813 614.269 489.941 611.623 494.223C607.794 500.42 604.122 503.126 604.086 503.152L604.495 503.721Z" fill="black"/>
<path fill-rule="evenodd" clip-rule="evenodd" d="M602.577 500.64C602.587 500.631 603.604 499.684 606.375 497.209C608.344 495.449 610.771 491.524 612.542 488.658C613.339 487.368 614.028 486.254 614.482 485.646C615.833 483.84 617.109 483.737 617.122 483.736L617.092 483.035C617.027 483.038 615.492 483.127 613.923 485.225C613.45 485.857 612.754 486.984 611.948 488.288C610.199 491.117 607.804 494.993 605.91 496.685C603.132 499.166 602.111 500.116 602.101 500.125L602.577 500.64Z" fill="black"/>
<path fill-rule="evenodd" clip-rule="evenodd" d="M601.083 498.089C601.122 498.055 604.941 494.592 607.545 491.183C609.983 487.992 611.969 483.675 613.036 481.357L613.282 480.824C614.153 478.944 614.936 478.704 614.943 478.702L614.788 478.018C614.677 478.041 613.675 478.311 612.648 480.528L612.401 481.062C611.346 483.356 609.381 487.626 606.991 490.755C604.425 494.115 600.654 497.534 600.616 497.568L601.083 498.089Z" fill="black"/>
<path fill-rule="evenodd" clip-rule="evenodd" d="M586.622 504.014C586.643 503.993 588.759 501.928 590.439 501.346C592.307 500.699 593.427 498.999 593.474 498.927L592.888 498.543C592.878 498.559 591.847 500.116 590.211 500.682C588.382 501.316 586.224 503.423 586.133 503.512L586.622 504.014Z" fill="black"/>
<path fill-rule="evenodd" clip-rule="evenodd" d="M587.928 525.315C587.928 525.315 585.805 527.678 583.349 537.524C580.892 547.37 573.191 588.936 573.191 588.936L553.624 551.565C553.624 551.565 569.189 516.14 577.028 505.508C584.868 494.877 587.928 525.315 587.928 525.315Z" fill="#ECAFA3"/>
<mask id="mask1_3_681" style="mask-type:alpha" maskUnits="userSpaceOnUse" x="337" y="515" width="246" height="162">
<path fill-rule="evenodd" clip-rule="evenodd" d="M582.045 515.003H337.552V676.472H582.045V515.003Z" fill="white"/>
</mask>
<g mask="url(#mask1_3_681)">
<path fill-rule="evenodd" clip-rule="evenodd" d="M472.714 516.121C472.714 516.121 502.193 522.968 514.603 544.113C527.012 565.257 536.101 568.299 536.101 568.299C536.101 568.299 545.655 543.731 550.782 544.667C555.909 545.603 583.174 588.421 582.009 592.398C580.844 596.376 558.549 651.716 534.508 641.478C510.466 631.239 504.174 613.457 502.776 617.434C501.378 621.412 508.136 671.483 502.31 672.887C496.484 674.291 463.343 676.954 433.098 676.397C407.697 675.929 392.316 677.099 391.151 666.336C389.986 655.573 393.947 618.136 393.947 618.136C393.947 618.136 381.13 634.047 369.944 628.899C358.759 623.752 337.552 606.671 337.552 606.671L353.865 549.346L369.711 564.555C369.711 564.555 387.422 534.84 397.909 529.224C408.396 523.609 428.789 515.003 428.789 515.003C428.789 515.003 440.555 525.247 445.682 532.5C450.809 539.753 452.207 543.497 452.207 543.497C452.207 543.497 463.626 521.503 472.714 516.121Z" fill="#F9C818"/>
</g>
<path fill-rule="evenodd" clip-rule="evenodd" d="M494.387 583.039L479.705 601.758C479.705 601.758 477.608 593.568 481.803 587.017C485.997 580.466 494.387 583.039 494.387 583.039Z" fill="#FFE89D"/>
<path fill-rule="evenodd" clip-rule="evenodd" d="M422.378 530.394L407.697 549.112C407.697 549.112 405.599 540.923 409.794 534.372C413.989 527.82 422.378 530.394 422.378 530.394Z" fill="#FFE89D"/>
<path fill-rule="evenodd" clip-rule="evenodd" d="M488.794 648.787L474.112 667.506C474.112 667.506 472.015 659.316 476.21 652.765C480.404 646.214 488.794 648.787 488.794 648.787Z" fill="#FFE89D"/>
<path fill-rule="evenodd" clip-rule="evenodd" d="M423.776 612.287L409.095 631.005C409.095 631.005 406.998 622.816 411.192 616.264C415.387 609.713 423.776 612.287 423.776 612.287Z" fill="#FFE89D"/>
<path fill-rule="evenodd" clip-rule="evenodd" d="M450.362 651.548L434.538 633.794C434.538 633.794 442.934 633.135 448.635 638.416C454.337 643.696 450.362 651.548 450.362 651.548Z" fill="#FFE89D"/>
<path fill-rule="evenodd" clip-rule="evenodd" d="M458.985 604.05L443.16 586.296C443.16 586.296 451.556 585.638 457.258 590.918C462.96 596.198 458.985 604.05 458.985 604.05Z" fill="#FFE89D"/>
<path fill-rule="evenodd" clip-rule="evenodd" d="M425.367 571.398L430.997 594.543C430.997 594.543 423.282 591.153 420.73 583.798C418.178 576.444 425.367 571.398 425.367 571.398Z" fill="#FFE89D"/>
<path fill-rule="evenodd" clip-rule="evenodd" d="M392.276 555.019L397.906 578.165C397.906 578.165 390.191 574.775 387.638 567.42C385.086 560.065 392.276 555.019 392.276 555.019Z" fill="#FFE89D"/>
<path fill-rule="evenodd" clip-rule="evenodd" d="M493.175 628.818L469.93 624.028C469.93 624.028 476.282 618.476 483.995 619.305C491.708 620.135 493.175 628.818 493.175 628.818Z" fill="#FFE89D"/>
<path fill-rule="evenodd" clip-rule="evenodd" d="M511.22 598.967L534.517 594.438C534.517 594.438 530.773 602.012 523.333 604.216C515.893 606.421 511.22 598.967 511.22 598.967Z" fill="#FFE89D"/>
<path fill-rule="evenodd" clip-rule="evenodd" d="M561.261 575.642L573.29 596.18C573.29 596.18 564.929 595.164 560.376 588.859C555.823 582.553 561.261 575.642 561.261 575.642Z" fill="#FFE89D"/>
<path fill-rule="evenodd" clip-rule="evenodd" d="M556.34 621.098L536.413 634.036C536.413 634.036 537.069 625.606 543.151 620.771C549.232 615.936 556.34 621.098 556.34 621.098Z" fill="#FFE89D"/>
<path fill-rule="evenodd" clip-rule="evenodd" d="M492.761 552.417L475.602 535.959C475.602 535.959 483.921 534.643 490.017 539.46C496.112 544.277 492.761 552.417 492.761 552.417Z" fill="#FFE89D"/>
<path fill-rule="evenodd" clip-rule="evenodd" d="M525.242 571.84L503.01 563.509C503.01 563.509 510.139 559.006 517.632 561.02C525.125 563.033 525.242 571.84 525.242 571.84Z" fill="#FFE89D"/>
<path fill-rule="evenodd" clip-rule="evenodd" d="M452.534 563.416L430.302 555.085C430.302 555.085 437.431 550.583 444.924 552.596C452.417 554.609 452.534 563.416 452.534 563.416Z" fill="#FFE89D"/>
<path fill-rule="evenodd" clip-rule="evenodd" d="M390.313 605.065L368.081 596.734C368.081 596.734 375.21 592.231 382.703 594.245C390.196 596.258 390.313 605.065 390.313 605.065Z" fill="#FFE89D"/>
<path fill-rule="evenodd" clip-rule="evenodd" d="M427.832 668.239L405.6 659.908C405.6 659.908 412.729 655.405 420.222 657.419C427.715 659.432 427.832 668.239 427.832 668.239Z" fill="#FFE89D"/>
<path fill-rule="evenodd" clip-rule="evenodd" d="M446.528 494.535C446.528 494.535 442.765 500.385 437.651 497.002L446.528 494.535Z" fill="black"/>
<path fill-rule="evenodd" clip-rule="evenodd" d="M426.107 479.5C426.107 480.275 426.733 480.904 427.506 480.904C428.278 480.904 428.904 480.275 428.904 479.5C428.904 478.725 428.278 478.096 427.506 478.096C426.733 478.096 426.107 478.725 426.107 479.5Z" fill="black"/>
<path fill-rule="evenodd" clip-rule="evenodd" d="M455.178 470.181C455.178 470.181 451.622 468.026 448.91 467.536C447.236 467.234 437.99 468.544 438.285 470.437C438.572 472.281 439.484 472.033 443.134 471.403C446.783 470.773 448.45 470.353 450.56 470.582C452.67 470.811 455.121 471.269 455.178 470.181Z" fill="black"/>
<path fill-rule="evenodd" clip-rule="evenodd" d="M417.877 472.988C417.877 472.988 418.486 471.116 419.489 470.216C420.491 469.317 428.038 467.375 429.315 468.576C431.342 470.484 429.885 471.168 425.814 471.592C422.54 471.933 421.247 472.047 419.73 472.708C417.657 473.613 417.922 473.336 417.877 472.988Z" fill="black"/>
<path d="M432.821 471.357L431.933 471.643L432.02 471.922C432.09 472.15 432.168 472.411 432.252 472.699C432.491 473.526 432.731 474.413 432.954 475.326C433.203 476.341 433.416 477.326 433.583 478.255L433.631 478.53C434.036 480.895 434.093 482.7 433.731 483.67L433.71 483.726C431.641 488.864 434.451 491.47 440.347 489.646L440.527 489.589L440.243 488.698C434.931 490.404 432.801 488.481 434.574 484.076C435.062 482.864 434.987 480.806 434.5 478.089C434.33 477.139 434.113 476.136 433.86 475.103C433.658 474.279 433.443 473.476 433.228 472.719L433.147 472.438C433.098 472.27 433.051 472.112 433.007 471.963L432.893 471.588L432.821 471.357Z" fill="black"/>
<path d="M455.834 507.16L455.378 506.344L455.212 506.435L455.059 506.516C454.828 506.639 454.565 506.773 454.273 506.918L454.145 506.98C453.162 507.461 452.074 507.943 450.914 508.392C448.246 509.425 445.61 510.13 443.157 510.358C442.046 510.462 440.993 510.464 440.006 510.358L439.81 510.335L439.696 511.264C440.809 511.402 441.994 511.407 443.244 511.29C445.792 511.052 448.508 510.326 451.249 509.265C452.435 508.806 453.547 508.314 454.554 507.822L454.934 507.633C455.096 507.551 455.248 507.473 455.389 507.399L455.653 507.259L455.834 507.16Z" fill="black"/>
<path fill-rule="evenodd" clip-rule="evenodd" d="M445.455 474.834C445.455 475.61 446.081 476.238 446.854 476.238C447.626 476.238 448.252 475.61 448.252 474.834C448.252 474.059 447.626 473.431 446.854 473.431C446.081 473.431 445.455 474.059 445.455 474.834Z" fill="black"/>
<mask id="mask2_3_681" style="mask-type:alpha" maskUnits="userSpaceOnUse" x="413" y="394" width="51" height="36">
<path fill-rule="evenodd" clip-rule="evenodd" d="M463.491 394.023H413.25V429.725H463.491V394.023Z" fill="white"/>
</mask>
<g mask="url(#mask2_3_681)">
<path fill-rule="evenodd" clip-rule="evenodd" d="M422.095 429.271C422.095 429.271 423.042 427.065 417.881 426.824C412.719 426.583 410.678 415.977 418.121 411.276C425.563 406.576 417.521 401.634 428.925 395.729C440.328 389.823 445.97 401.152 445.97 401.152C445.97 401.152 457.974 396.452 462.175 406.094C466.377 415.735 459.175 419.592 459.175 419.592C459.175 419.592 463.976 422.846 460.135 426.824C456.294 430.801 445.928 426.381 444.208 428.531C442.489 430.681 422.095 429.271 422.095 429.271Z" fill="#0F0F0F"/>
</g>
<path fill-rule="evenodd" clip-rule="evenodd" d="M456.612 431.48C456.612 431.48 452.979 424.76 444.336 424.133C435.693 423.505 431.816 426.587 430.814 431.48C429.812 436.373 456.612 431.48 456.612 431.48Z" fill="white"/>
<mask id="mask3_3_681" style="mask-type:alpha" maskUnits="userSpaceOnUse" x="416" y="428" width="59" height="53">
<path fill-rule="evenodd" clip-rule="evenodd" d="M474.987 428.723H416.607V480.501H474.987V428.723Z" fill="white"/>
</mask>
<g mask="url(#mask3_3_681)">
<path fill-rule="evenodd" clip-rule="evenodd" d="M469.785 475.274C470.025 474.23 469.384 472.985 467.864 471.538C465.583 469.369 466.424 459.365 461.022 457.557C455.62 455.75 446.617 446.469 442.416 446.469C438.214 446.469 431.012 450.326 428.131 450.085C425.25 449.844 421.409 455.629 421.169 458.642C420.929 461.655 416.994 467.046 419.441 480.501C419.441 480.501 416.607 475.998 416.607 470.695C416.607 465.391 417.327 464.186 416.967 456.593C416.607 449 417.447 441.166 422.969 437.551C428.491 433.935 431.972 427.306 440.495 428.993C449.018 430.681 455.62 428.632 460.662 434.055C464.37 438.045 469.905 440.805 471.105 449C472.223 456.636 478.398 460.166 472.411 468.383C472.411 468.383 469.785 472.623 469.785 475.274Z" fill="#0F0F0F"/>
</g>
<path fill-rule="evenodd" clip-rule="evenodd" d="M455.994 430.932C455.994 430.932 454.404 424.32 443.917 423.618C433.431 422.916 431.389 427.452 430.895 431.151C430.895 431.151 435.203 428.257 440.725 429.448C446.248 430.638 452.456 429.823 455.994 430.932Z" fill="#56ACF6"/>
<path fill-rule="evenodd" clip-rule="evenodd" d="M427.264 500.934C427.264 500.934 428.43 497.649 432.238 493.405C434.337 491.066 445.723 485.477 450.335 489.929C454.946 494.382 457.463 495.267 456.669 495.399C448.902 496.685 447.309 493.196 443.714 493.385C439.697 493.596 437.444 493.158 437.444 493.158C436.396 494.842 435.243 496.07 432.657 498.349C431.798 499.107 427.859 502.776 427.264 500.934Z" fill="#0F0F0F"/>
<path fill-rule="evenodd" clip-rule="evenodd" d="M558.071 728.083C555.335 743.877 529.002 914.188 529.002 914.188C529.002 914.188 529.596 918.489 533.88 919.121C538.164 919.754 540.432 915.832 540.432 915.832L577.57 732.221L558.071 728.083Z" fill="#DDB0C8"/>
<path fill-rule="evenodd" clip-rule="evenodd" d="M644.49 732.116C647.38 747.883 681.516 916.791 681.516 916.791C681.516 916.791 683.559 920.619 687.795 919.72C692.032 918.821 692.804 914.353 692.804 914.353L664.208 729.207L644.49 732.116Z" fill="#DDB0C8"/>
<path fill-rule="evenodd" clip-rule="evenodd" d="M687.775 731.602C690.665 747.369 724.801 916.277 724.801 916.277C724.801 916.277 726.844 920.104 731.08 919.206C735.317 918.307 736.089 913.839 736.089 913.839L707.493 728.693L687.775 731.602Z" fill="#DDB0C8"/>
<path fill-rule="evenodd" clip-rule="evenodd" d="M710.785 735.293H552.806C546.822 735.293 541.971 730.423 541.971 724.415C541.971 718.407 546.822 713.536 552.806 713.536H710.785C716.769 713.536 721.619 718.407 721.619 724.415C721.619 730.423 716.769 735.293 710.785 735.293Z" fill="#EECCDC"/>
<path fill-rule="evenodd" clip-rule="evenodd" d="M528.313 893.803L511.863 909.473L486.776 907.423L488.788 900.777L519.513 890.638L528.313 893.803Z" fill="#56ACF6"/>
<path fill-rule="evenodd" clip-rule="evenodd" d="M538.293 800.483C538.454 802.734 532.203 847.892 532.203 847.892C532.203 847.892 524.276 848.624 508.422 850.089L502.579 797.967L538.293 800.483Z" fill="#F6CBC3"/>
<path fill-rule="evenodd" clip-rule="evenodd" d="M535.561 872.689C535.506 871.922 532.928 846.65 532.928 846.65C532.928 846.65 533.616 845.52 533.407 842.604C533.198 839.688 531.317 837.045 519.006 839.006C506.694 840.968 506.039 842.557 506.127 843.785C506.215 845.013 507.8 847.831 507.943 849.827C508.086 851.822 508.401 871.239 508.401 871.239L535.561 872.689Z" fill="#E4F9FF"/>
<path fill-rule="evenodd" clip-rule="evenodd" d="M535.846 871.705L538.099 891.91L521.82 888.81L506.451 895.123L483.095 903.667L463.586 901.627L464.406 896.592C464.406 896.592 481.93 887.399 486.116 884.848C490.302 882.297 491.977 877.854 491.977 877.854L498.558 868.309C498.558 868.309 505.584 858.125 511.196 857.249C516.808 856.372 521.607 857.358 520.539 859.617C519.472 861.877 516.825 865.863 516.825 865.863L527.081 863.8L532.891 870.977L534.431 872.67L533.812 873.862" fill="#F4F0F1"/>
<path fill-rule="evenodd" clip-rule="evenodd" d="M534.271 874.647C534.271 874.647 534.482 876.454 528.75 878.274C523.017 880.093 516.862 882.937 515.98 879.851C515.098 876.765 516.529 873.679 516.529 873.679L511.272 877.535C511.272 877.535 508.85 881.77 511.622 885.881C514.394 889.992 521.343 890.157 521.343 890.157L524.288 887.46C524.288 887.46 533.493 882.244 535.464 878.622C537.434 875 534.271 874.647 534.271 874.647Z" fill="#F9C818"/>
<mask id="mask4_3_681" style="mask-type:alpha" maskUnits="userSpaceOnUse" x="458" y="860" width="94" height="63">
<path fill-rule="evenodd" clip-rule="evenodd" d="M551.446 866.9L462.51 860.617L458.645 916.463L547.582 922.747L551.446 866.9Z" fill="white"/>
</mask>
<g mask="url(#mask4_3_681)">
<path fill-rule="evenodd" clip-rule="evenodd" d="M536.253 867.281C536.253 867.281 542.989 883.281 542.398 883.052C541.807 882.823 538.02 874.997 537.862 877.991C537.705 880.986 539.668 884.819 539.263 888.148C539.263 888.148 536.193 896.187 534.344 896.319C532.495 896.452 523.68 894.142 523.68 894.142C523.68 894.142 519.659 888.905 511.33 894.38C503.001 899.854 492.249 905.43 492.249 905.43C492.249 905.43 493.558 906.532 493.609 907.557C493.659 908.582 493.006 909.978 493.006 909.978L525.595 905.271L543.135 893.357L545.307 893.588C545.307 893.588 547.32 894.834 547.502 898.451C547.685 902.068 547.521 903.006 548.063 904.126C548.605 905.246 549.995 907.464 545.762 908.539C541.529 909.614 509.749 917.218 495.748 918.375C481.746 919.531 467.376 915.539 463.486 911.725C459.595 907.909 458.992 904.863 459.861 901.943C460.729 899.023 462.448 895.504 466.465 896.173C470.481 896.843 472.775 897.512 479.362 895.404C485.949 893.296 488.551 893.543 488.32 895.041C488.089 896.54 483.238 897.968 483.238 897.968C483.238 897.968 476.727 899.422 476.773 900.067C476.82 900.712 477.045 901.282 482.951 900.829C488.856 900.375 495.931 899.082 505.213 893.416C514.495 887.75 517.248 885.53 523.345 886.217C529.442 886.905 534.908 889.718 536.446 885.392C537.984 881.067 533.777 875.332 533.809 873.866C533.841 872.4 535.842 871.708 535.842 871.708L536.237 865.81" fill="#15023F"/>
<path fill-rule="evenodd" clip-rule="evenodd" d="M535.417 863.596C535.417 863.596 535.64 863.889 536.241 865.795C536.841 867.7 537.051 873.573 535.011 873.38C532.971 873.187 531.374 869.151 529.564 866.866C527.754 864.581 525.471 863.94 523.521 865.011C521.572 866.082 514.041 865.613 514.041 865.613C514.041 865.613 516.057 862.174 522.747 862.111C522.747 862.111 527.475 860.541 530.239 864.853C533.002 869.166 534.685 873.451 534.887 869.824C535.061 866.701 534.08 864.789 534.288 863.686C534.496 862.584 535.417 863.596 535.417 863.596Z" fill="#451989"/>
<path fill-rule="evenodd" clip-rule="evenodd" d="M484.144 885.694C484.144 885.694 487.711 886.224 498.072 885.248C508.432 884.27 506.134 879.555 510.358 878.307C514.582 877.063 515.038 876.871 517.345 872.928C519.649 868.985 525.475 872.583 528.249 871.913C531.026 871.241 522.712 863.572 522.712 863.572C522.712 863.572 518.216 862.358 514.041 865.621C512.866 866.54 510.494 869.831 509.776 870.602C509.06 871.373 504.703 872.958 500.83 877.831C496.957 882.706 491.505 881.324 490.421 881.622C489.34 881.922 498.672 868.904 498.672 868.904L498.654 867.609C498.654 867.609 492.826 876.214 489.974 880.048C487.12 883.882 484.77 884.836 484.344 885.061C483.921 885.288 484.144 885.694 484.144 885.694Z" fill="#E263AB"/>
<path fill-rule="evenodd" clip-rule="evenodd" d="M539.667 875.201C539.667 875.201 546.345 890.456 545.972 893.955C545.598 897.453 538.121 895.2 534.972 901.913C531.823 908.627 527.117 911.568 507.181 915.05C487.245 918.531 470.422 911.026 470.339 909.858C470.255 908.689 470.386 906.429 470.386 906.429C470.386 906.429 499.099 911.127 511.001 903.033C522.903 894.94 523.31 892.464 527.781 893.612C532.251 894.76 534.877 893.3 538.285 889.142C538.285 889.142 538.623 887.062 537.36 881.673C536.096 876.283 537.2 868.592 539.667 875.201Z" fill="white"/>
<path fill-rule="evenodd" clip-rule="evenodd" d="M522.471 862.774C522.471 862.774 524.906 860.116 520.875 857.243C516.844 854.371 509.646 856.504 507.486 858.804C507.486 858.804 511.616 856.777 516.755 857.313C521.893 857.848 520.687 859.327 518.324 862.996L522.97 862.4" fill="#451989"/>
<path fill-rule="evenodd" clip-rule="evenodd" d="M515.599 865.751C515.047 866.633 515.519 867.926 516.651 868.64C517.783 869.354 519.149 869.218 519.7 868.336C520.252 867.455 519.781 866.161 518.648 865.447C517.516 864.733 516.151 864.869 515.599 865.751Z" fill="#1F003C"/>
<path fill-rule="evenodd" clip-rule="evenodd" d="M519.023 867.386C519.023 867.386 518.755 865.5 515.133 864.255C511.511 863.009 504.668 860.991 501.039 863.825C497.409 866.66 497.734 867.94 497.734 867.94C497.734 867.94 500.386 866.346 502.437 865.664C504.488 864.983 507.268 864.717 510.039 865.254C512.811 865.792 515.575 866.697 516.468 867.068C517.361 867.439 518.191 869.252 519.023 867.386Z" fill="#E8D9F3"/>
<path fill-rule="evenodd" clip-rule="evenodd" d="M510.742 869.814C510.191 870.696 510.662 871.99 511.794 872.703C512.927 873.417 514.292 873.281 514.843 872.4C515.395 871.518 514.924 870.224 513.792 869.51C512.659 868.797 511.294 868.933 510.742 869.814Z" fill="#1F003C"/>
<path fill-rule="evenodd" clip-rule="evenodd" d="M514.166 871.45C514.166 871.45 513.903 869.563 510.419 868.308C506.934 867.052 500.351 865.016 496.87 867.839C493.389 870.663 493.705 871.944 493.705 871.944C493.705 871.944 496.25 870.358 498.219 869.682C500.188 869.006 502.86 868.748 505.525 869.293C508.19 869.838 510.85 870.751 511.709 871.124C512.569 871.497 513.371 873.312 514.166 871.45Z" fill="#E8D9F3"/>
<path fill-rule="evenodd" clip-rule="evenodd" d="M505.377 873.511C504.825 874.392 505.296 875.686 506.429 876.4C507.561 877.113 508.926 876.977 509.478 876.096C510.029 875.214 509.559 873.92 508.426 873.207C507.293 872.493 505.928 872.629 505.377 873.511Z" fill="#1F003C"/>
<path fill-rule="evenodd" clip-rule="evenodd" d="M508.807 875.224C508.807 875.224 508.583 873.528 505.806 872.375C503.03 871.222 496.012 869.696 493.269 872.205C490.526 874.714 492.219 876.443 492.219 876.443C492.219 876.443 494.57 874.11 496.129 873.518C497.688 872.926 499.807 872.714 501.928 873.223C504.048 873.732 506.167 874.572 506.853 874.913C507.538 875.255 508.189 876.89 508.807 875.224Z" fill="#E8D9F3"/>
</g>
<path fill-rule="evenodd" clip-rule="evenodd" d="M715.207 662.632C715.207 662.632 716.647 706.516 708.858 703.915C708.858 703.915 666.446 708.141 656.085 709.766C650.873 710.584 640.904 716.848 609.706 722.073C578.508 727.299 548.763 732.686 548.763 734.786C548.763 739.012 541.967 769.84 540.348 807.548C540.348 807.548 530.635 819.25 501.497 808.848C501.497 808.848 499.385 735.122 513.954 706.516C541.774 669.458 629.956 662.632 629.956 662.632H715.207Z" fill="#165C5D"/>
<path fill-rule="evenodd" clip-rule="evenodd" d="M631.277 795.883C631.277 798.14 628.492 855.874 628.492 855.874L605.787 857.969L593.236 792.723L631.277 795.883Z" fill="#F6CBC3"/>
<path fill-rule="evenodd" clip-rule="evenodd" d="M623.967 868.542L608.644 885.339L583.48 885.057L585.026 878.281L614.97 866.002L623.967 868.542Z" fill="#56ACF6"/>
<path fill-rule="evenodd" clip-rule="evenodd" d="M623.905 895.046L608.582 911.843L583.418 911.561L584.964 904.786L614.908 892.506L623.905 895.046Z" fill="#56ACF6"/>
<path fill-rule="evenodd" clip-rule="evenodd" d="M630.623 877.024C630.623 876.254 629.857 850.858 629.857 850.858C629.857 850.858 630.623 849.78 630.623 846.856C630.623 843.931 628.937 841.16 616.519 842.238C604.102 843.315 603.335 844.855 603.335 846.086C603.335 847.317 604.715 850.242 604.715 852.243C604.715 854.244 603.642 873.638 603.642 873.638L630.623 877.024Z" fill="#E4F9FF"/>
<path fill-rule="evenodd" clip-rule="evenodd" d="M630.983 876.05L631.787 896.372L615.773 892.115L599.995 897.318L576.091 904.175L556.78 900.746L557.958 895.78C557.958 895.78 576.091 887.86 580.448 885.613C584.805 883.367 586.794 879.053 586.794 879.053L594.038 869.999C594.038 869.999 601.773 860.339 607.432 859.866C613.091 859.392 617.808 860.718 616.581 862.896C615.355 865.075 612.431 868.863 612.431 868.863L622.807 867.537L628.089 875.113L629.504 876.913L628.802 878.058" fill="#F4F0F1"/>
<path fill-rule="evenodd" clip-rule="evenodd" d="M629.205 878.879C629.205 878.879 629.288 880.697 623.44 882.103C617.593 883.509 611.251 885.907 610.592 882.765C609.934 879.623 611.581 876.646 611.581 876.646L606.063 880.119C606.063 880.119 603.345 884.171 605.816 888.47C608.286 892.771 615.204 893.432 615.204 893.432L618.334 890.951C618.334 890.951 627.888 886.403 630.111 882.93C632.335 879.457 629.205 878.879 629.205 878.879Z" fill="#F9C818"/>
<path fill-rule="evenodd" clip-rule="evenodd" d="M631.71 871.662C631.71 871.662 637.284 888.108 636.711 887.837C636.138 887.567 632.92 879.486 632.55 882.464C632.179 885.441 633.862 889.405 633.221 892.698C633.221 892.698 629.585 900.5 627.731 900.5C625.878 900.5 617.251 897.566 617.251 897.566C617.251 897.566 613.615 892.054 604.917 896.921C596.22 901.789 585.098 906.585 585.098 906.585C585.098 906.585 586.325 907.778 586.302 908.804C586.28 909.831 585.529 911.177 585.529 911.177L618.366 908.808L636.711 898.172L638.86 898.558C638.86 898.558 640.779 899.945 640.702 903.567C640.625 907.189 640.395 908.114 640.856 909.27C641.316 910.426 642.544 912.738 638.246 913.509C633.948 914.279 601.71 919.597 587.663 919.751C573.617 919.905 559.57 914.896 555.963 910.811C552.355 906.727 551.971 903.644 553.046 900.793C554.121 897.941 556.086 894.552 560.044 895.507C564.003 896.462 566.242 897.294 572.962 895.661C579.682 894.028 582.26 894.459 581.922 895.938C581.585 897.417 576.644 898.495 576.644 898.495C576.644 898.495 570.047 899.481 570.047 900.128C570.047 900.775 570.231 901.36 576.154 901.33C582.076 901.299 589.224 900.514 598.886 895.523C608.548 890.532 611.452 888.514 617.484 889.635C623.515 890.757 628.765 893.953 630.608 889.748C632.451 885.542 628.665 879.519 628.802 878.058C628.938 876.598 630.983 876.05 630.983 876.05L631.799 870.193" fill="#15023F"/>
<path fill-rule="evenodd" clip-rule="evenodd" d="M631.135 867.939C631.135 867.939 631.336 868.249 631.799 870.193C632.262 872.137 632.052 878.013 630.031 877.674C628.01 877.336 626.705 873.194 625.063 870.785C623.421 868.375 621.19 867.572 619.169 868.502C617.149 869.432 609.67 868.426 609.67 868.426C609.67 868.426 611.928 865.138 618.604 865.553C618.604 865.553 623.432 864.324 625.88 868.824C628.328 873.326 629.7 877.722 630.161 874.117C630.557 871.013 629.716 869.035 630.002 867.949C630.288 866.864 631.135 867.939 631.135 867.939Z" fill="#451989"/>
<path fill-rule="evenodd" clip-rule="evenodd" d="M578.42 886.32C578.42 886.32 581.939 887.104 592.342 886.87C602.744 886.634 600.789 881.765 605.091 880.822C609.393 879.881 609.861 879.722 612.444 875.953C615.023 872.183 620.577 876.189 623.392 875.719C626.209 875.246 618.465 867.001 618.465 867.001C618.465 867.001 614.068 865.468 609.671 868.426C608.433 869.258 605.832 872.373 605.061 873.091C604.292 873.809 599.834 875.08 595.623 879.666C591.412 884.254 586.073 882.485 584.971 882.705C583.871 882.927 594.108 870.604 594.108 870.604L594.183 869.31C594.183 869.31 587.756 877.481 584.637 881.102C581.517 884.725 579.105 885.508 578.665 885.702C578.227 885.899 578.42 886.32 578.42 886.32Z" fill="#E263AB"/>
<path fill-rule="evenodd" clip-rule="evenodd" d="M634.55 879.809C634.55 879.809 640.12 895.507 639.498 898.971C638.876 902.436 631.579 899.653 627.959 906.127C624.339 912.601 619.435 915.199 599.304 917.25C579.173 919.3 562.932 910.61 562.932 909.438C562.932 908.267 563.223 906.021 563.223 906.021C563.223 906.021 591.524 912.758 603.972 905.532C616.42 898.307 617.004 895.866 621.38 897.33C625.757 898.795 628.48 897.526 632.175 893.62C632.175 893.62 632.661 891.569 631.786 886.101C630.911 880.633 632.562 873.038 634.55 879.809Z" fill="white"/>
<path fill-rule="evenodd" clip-rule="evenodd" d="M618.279 866.196C618.279 866.196 620.897 863.717 617.082 860.563C613.266 857.408 605.935 859.023 603.616 861.164C603.616 861.164 607.88 859.436 612.967 860.337C618.054 861.239 616.745 862.628 614.127 866.121L618.802 865.858" fill="#451989"/>
<path fill-rule="evenodd" clip-rule="evenodd" d="M611.215 868.673C610.601 869.513 610.979 870.838 612.057 871.631C613.136 872.424 614.507 872.386 615.12 871.545C615.733 870.705 615.356 869.381 614.277 868.588C613.199 867.795 611.827 867.833 611.215 868.673Z" fill="#1F003C"/>
<path fill-rule="evenodd" clip-rule="evenodd" d="M614.512 870.548C614.512 870.548 614.379 868.646 610.856 867.144C607.332 865.642 600.651 863.139 596.828 865.709C593.006 868.279 593.239 869.58 593.239 869.58C593.239 869.58 595.998 868.178 598.092 867.644C600.185 867.11 602.978 867.044 605.703 867.778C608.429 868.512 611.121 869.614 611.986 870.047C612.85 870.481 613.548 872.35 614.512 870.548Z" fill="#E8D9F3"/>
<path fill-rule="evenodd" clip-rule="evenodd" d="M606.081 872.378C605.468 873.218 605.845 874.542 606.924 875.335C608.002 876.128 609.373 876.09 609.986 875.25C610.599 874.41 610.222 873.085 609.144 872.292C608.065 871.499 606.694 871.537 606.081 872.378Z" fill="#1F003C"/>
<path fill-rule="evenodd" clip-rule="evenodd" d="M609.378 874.253C609.378 874.253 609.251 872.35 605.865 870.848C602.479 869.347 596.058 866.843 592.385 869.413C588.711 871.983 588.935 873.285 588.935 873.285C588.935 873.285 591.586 871.883 593.599 871.349C595.611 870.815 598.294 870.748 600.914 871.483C603.533 872.217 606.12 873.318 606.951 873.752C607.781 874.186 608.452 876.055 609.378 874.253Z" fill="#E8D9F3"/>
<path fill-rule="evenodd" clip-rule="evenodd" d="M600.466 875.68C599.853 876.52 600.231 877.844 601.309 878.637C602.387 879.43 603.759 879.392 604.372 878.552C604.985 877.712 604.607 876.387 603.529 875.594C602.45 874.801 601.079 874.839 600.466 875.68Z" fill="#1F003C"/>
<path fill-rule="evenodd" clip-rule="evenodd" d="M603.764 877.633C603.764 877.633 603.662 875.924 600.975 874.575C598.288 873.226 591.398 871.201 588.483 873.51C585.567 875.818 587.133 877.665 587.133 877.665C587.133 877.665 589.644 875.504 591.241 875.025C592.838 874.545 594.968 874.485 597.046 875.145C599.125 875.804 601.178 876.793 601.837 877.183C602.496 877.573 603.029 879.252 603.764 877.633Z" fill="#E8D9F3"/>
<path fill-rule="evenodd" clip-rule="evenodd" d="M692.854 722.073C661.656 727.299 631.911 732.686 631.911 734.785C631.911 739.012 634.437 769.84 632.818 807.548C632.818 807.548 623.105 819.25 593.967 808.848C593.967 808.848 582.533 735.121 597.102 706.515C624.922 669.458 713.104 662.631 713.104 662.631C720.403 698.775 713.653 718.589 692.854 722.073Z" fill="#165C5D"/>
<path d="M621.911 684.296C602.172 691.7 591.987 705.351 591.404 725.195L591.389 725.798L592.088 725.812C592.472 706.133 602.282 692.606 621.569 685.177L622.156 684.954L621.911 684.296Z" fill="black"/>
<path fill-rule="evenodd" clip-rule="evenodd" d="M673.546 491.125C673.546 491.125 674.406 510.113 685.438 516.815C695.447 522.897 674.241 558.185 651.43 556.08C638.942 554.928 636.016 520.643 636.016 520.643C636.016 520.643 646.099 518.687 642.374 503.249L673.546 491.125Z" fill="#F6CBC3"/>
<path fill-rule="evenodd" clip-rule="evenodd" d="M655.28 510.432C670.068 508.636 680.741 498.873 682.236 482.678C686.535 483.365 687.549 472.117 686.351 468.504C685.153 464.886 681.241 467.002 681.241 467.002C681.024 466.43 680.84 465.831 680.689 465.206C674.228 438.6 656.134 439.655 656.134 439.655C622.886 441.394 630.676 475.476 632.576 484.518C634.475 493.56 640.983 512.166 655.28 510.432Z" fill="#F6CBC3"/>
<path fill-rule="evenodd" clip-rule="evenodd" d="M759.72 585.245C772.625 608.15 775.437 625.273 768.156 636.612C757.236 653.622 741.744 631.145 735.377 606.041C731.132 589.305 724.621 575.94 715.843 565.947L759.72 585.245Z" fill="#F6CBC3"/>
<path fill-rule="evenodd" clip-rule="evenodd" d="M715.05 524.284C695.731 518.285 689.778 517.948 689.778 517.948L669.385 522.36C669.385 522.36 658.208 537.109 657.251 550.254C657.251 550.254 656.931 532.941 649.586 521.078C649.586 521.078 617.261 520.779 605.075 533.555C585.826 553.734 586.189 589.141 586.189 589.141L617.95 592.421L605.075 574.421C605.075 574.421 604.261 647.754 606.177 666.671C630.423 693.524 717.579 672.74 717.579 672.74C717.579 672.74 715.688 612.06 715.369 595.462C715.05 578.864 721.163 581.106 729.592 601.68C736.482 618.501 758.388 583.626 758.388 583.626C758.388 583.626 744.942 533.565 715.05 524.284Z" fill="#1BC0D7"/>
<path fill-rule="evenodd" clip-rule="evenodd" d="M616.431 615.677C616.431 615.677 600.748 610.031 584.801 613.365C584.801 613.365 585.007 608.138 584.844 601.237C584.709 595.569 581.618 586.796 592.774 587.741C605.758 588.841 611.323 588.956 616.969 591.52C616.969 591.52 618.313 610.279 616.431 615.677Z" fill="#FCEBEC"/>
<path fill-rule="evenodd" clip-rule="evenodd" d="M765.599 594.638L758.761 573.031C758.761 573.031 733.448 567.722 723.419 589.689L730.936 609.249C730.936 609.249 744.991 588.439 765.599 594.638Z" fill="#237978"/>
<mask id="mask5_3_681" style="mask-type:alpha" maskUnits="userSpaceOnUse" x="668" y="514" width="34" height="23">
<path fill-rule="evenodd" clip-rule="evenodd" d="M701.604 514.756H668.802V536.213H701.604V514.756Z" fill="white"/>
</mask>
<g mask="url(#mask5_3_681)">
<path fill-rule="evenodd" clip-rule="evenodd" d="M689.452 514.78C689.452 514.78 702.364 519.168 701.569 520.364C700.775 521.561 677.852 536.868 676.133 536.191C674.415 535.513 667.971 523.25 668.891 522.018C669.812 520.786 688.348 514.32 689.452 514.78Z" fill="#237978"/>
</g>
<path fill-rule="evenodd" clip-rule="evenodd" d="M628.883 520.114C628.883 520.114 617.769 528.038 618.873 528.956C619.976 529.873 646.311 537.929 647.763 536.784C649.215 535.639 651.882 522.036 650.648 521.121C649.414 520.206 629.809 519.355 628.883 520.114Z" fill="#237978"/>
<path fill-rule="evenodd" clip-rule="evenodd" d="M750.24 607.766C743.878 617.12 747.652 617.291 744.881 622.436C742.11 627.581 739.503 638.319 736.323 638.05C733.142 637.78 732.976 636.006 734.215 632.687C735.453 629.367 739.084 618.739 737.723 618.234C736.363 617.729 731.97 638.738 726.93 638.4C721.89 638.062 726.119 627.294 728.399 622.477C730.679 617.661 731.454 614.092 730.013 614.403C728.573 614.713 723.021 638.225 718.921 637.517C714.82 636.81 716.904 628.551 719.176 623.673C721.448 618.795 724.84 611.109 724.84 611.109C724.84 611.109 719.08 618.606 716.468 627.554C713.855 636.502 712.248 636.958 710.78 636.095C709.312 635.233 711.259 624.697 711.259 624.697C711.259 624.697 706.343 616.621 712.526 609.424C718.71 602.227 722.166 594.642 730.69 590.571C739.214 586.5 744.509 589.889 744.509 589.889C744.509 589.889 756.603 598.412 750.24 607.766Z" fill="#F6CBC3"/>
<path fill-rule="evenodd" clip-rule="evenodd" d="M625.998 563.773H647.163C648.025 563.773 648.723 563.072 648.723 562.207V560.366C648.723 559.502 648.025 558.8 647.163 558.8H625.998C625.137 558.8 624.439 559.502 624.439 560.366V562.207C624.439 563.072 625.137 563.773 625.998 563.773Z" fill="#237978"/>
<path fill-rule="evenodd" clip-rule="evenodd" d="M644.804 642.609L687.384 630.759C687.384 630.759 690.031 627.953 682.237 627.215C674.443 626.477 593.007 624.292 593.007 624.292L644.804 642.609Z" fill="#204EB2"/>
<path fill-rule="evenodd" clip-rule="evenodd" d="M524.085 642.481H643.513C645.726 642.481 647.519 640.68 647.519 638.459L636.678 559.494C636.678 557.273 634.884 555.472 632.672 555.472H513.243C511.031 555.472 509.238 557.273 509.238 559.494L520.079 638.459C520.079 640.68 521.873 642.481 524.085 642.481Z" fill="#3267C8"/>
<path fill-rule="evenodd" clip-rule="evenodd" d="M552.346 642.459C552.346 642.459 553.021 643.826 553.945 645.267C554.869 646.709 555.394 645.867 557.053 648.942C558.713 652.018 563.437 658.121 575.025 653.929C586.613 649.736 586.59 647.069 585.952 643.568C585.314 640.067 584.283 639.35 585.525 633.551C586.767 627.751 583.021 620.575 581.613 620.241L580.205 619.908C580.205 619.908 579.927 614.118 577.645 613.752C575.363 613.386 575.11 614.95 575.11 614.95C575.11 614.95 574.415 613.583 572.327 613.788C570.24 613.992 569.362 617.884 568.527 622.424C567.692 626.963 566.35 638.936 565.671 639.474C564.992 640.012 564.38 639.559 564.889 636.812C565.397 634.065 568.725 623.375 565.753 622.404C562.782 621.433 561.175 624.454 559.29 630.677C557.406 636.9 556.693 637.934 556.784 639.609L556.214 642.462C553.636 642.46 552.346 642.459 552.346 642.459Z" fill="#F6CBC3"/>
<path fill-rule="evenodd" clip-rule="evenodd" d="M575.132 614.846C575.132 614.846 575.001 614.44 575.143 617.197C575.195 618.201 575.143 619.576 574.905 621.46C574.014 628.518 572.931 639.694 572.351 643.052C571.772 646.41 573.31 643.998 574.194 636.178C575.078 628.358 575.905 618.976 575.901 618.541C575.895 617.801 575.876 615.581 575.132 614.846Z" fill="black"/>
<path fill-rule="evenodd" clip-rule="evenodd" d="M580.059 631.458C579.85 634.523 579.39 639.602 579.348 640.14C579.274 641.101 579.068 642.963 579.068 642.963C579.068 642.963 579.716 643.151 580.331 637.449C580.484 636.035 580.888 633.45 580.947 631.748C581.002 630.182 581.345 624.576 580.995 623.701C580.645 622.827 580.111 622.526 580.111 622.526C580.111 622.526 580.256 628.57 580.059 631.458Z" fill="black"/>
<path fill-rule="evenodd" clip-rule="evenodd" d="M659.059 494.535C659.059 494.535 655.295 500.385 650.182 497.002L659.059 494.535Z" fill="black"/>
<path fill-rule="evenodd" clip-rule="evenodd" d="M638.638 479.5C638.638 480.275 639.264 480.904 640.036 480.904C640.809 480.904 641.435 480.275 641.435 479.5C641.435 478.725 640.809 478.096 640.036 478.096C639.264 478.096 638.638 478.725 638.638 479.5Z" fill="black"/>
<path fill-rule="evenodd" clip-rule="evenodd" d="M668.408 471.351C668.408 471.351 664.852 469.196 662.14 468.706C660.466 468.404 651.22 469.714 651.515 471.607C651.802 473.451 652.714 473.202 656.363 472.573C660.013 471.943 661.68 471.523 663.789 471.752C665.899 471.981 668.351 472.439 668.408 471.351Z" fill="black"/>
<path fill-rule="evenodd" clip-rule="evenodd" d="M630.407 474.921C630.407 474.921 631.017 473.049 632.019 472.149C633.022 471.25 640.569 469.308 641.845 470.509C643.873 472.417 642.416 473.101 638.345 473.525C635.071 473.866 633.778 473.98 632.26 474.642C630.187 475.546 630.453 475.269 630.407 474.921Z" fill="black"/>
<path d="M645.352 471.357L644.464 471.643L644.551 471.922C644.621 472.15 644.698 472.411 644.782 472.699C645.022 473.526 645.262 474.413 645.485 475.326C645.734 476.341 645.947 477.326 646.113 478.255L646.162 478.531C646.567 480.895 646.624 482.7 646.262 483.67L646.241 483.726C644.172 488.864 646.981 491.47 652.878 489.646L653.058 489.589L652.774 488.698C647.462 490.404 645.331 488.481 647.105 484.076C647.593 482.864 647.518 480.806 647.031 478.089C646.86 477.139 646.643 476.136 646.39 475.103C646.189 474.279 645.974 473.476 645.758 472.719L645.677 472.438C645.629 472.27 645.582 472.112 645.538 471.963L645.424 471.588L645.352 471.357Z" fill="black"/>
<path d="M668.365 507.16L667.909 506.344L667.743 506.435L667.59 506.516C667.359 506.639 667.096 506.773 666.803 506.918L666.676 506.98C665.692 507.461 664.605 507.943 663.444 508.392C660.777 509.425 658.141 510.13 655.688 510.358C654.577 510.462 653.523 510.464 652.537 510.358L652.34 510.335L652.227 511.264C653.339 511.402 654.525 511.407 655.774 511.29C658.323 511.052 661.038 510.326 663.78 509.265C664.966 508.806 666.078 508.314 667.084 507.822L667.465 507.633C667.627 507.551 667.779 507.473 667.92 507.399L668.184 507.259L668.365 507.16Z" fill="black"/>
<path fill-rule="evenodd" clip-rule="evenodd" d="M655.909 477.584C656.078 477.584 656.247 477.523 656.381 477.399C656.39 477.391 657.543 476.364 659.207 476.426C660.929 476.49 662.072 477.336 662.084 477.344C662.392 477.576 662.829 477.515 663.061 477.207C663.294 476.899 663.236 476.461 662.93 476.227C662.87 476.181 661.444 475.104 659.259 475.023C657.01 474.942 655.499 476.307 655.436 476.365C655.152 476.627 655.132 477.071 655.394 477.357C655.531 477.508 655.72 477.584 655.909 477.584Z" fill="black"/>
<path d="M660.431 465.968C665.347 465.968 669.332 469.969 669.332 474.905C669.332 479.84 665.347 483.842 660.431 483.842C655.515 483.842 651.529 479.84 651.529 474.905C651.529 469.969 655.515 465.968 660.431 465.968ZM660.431 468.073C656.673 468.073 653.627 471.132 653.627 474.905C653.627 478.677 656.673 481.736 660.431 481.736C664.188 481.736 667.235 478.677 667.235 474.905C667.235 471.132 664.188 468.073 660.431 468.073Z" fill="#E93737"/>
<path d="M638.544 468.099C643.46 468.099 647.445 472.1 647.445 477.036C647.445 481.971 643.46 485.973 638.544 485.973C633.628 485.973 629.642 481.971 629.642 477.036C629.642 472.1 633.628 468.099 638.544 468.099ZM638.544 470.204C634.786 470.204 631.74 473.263 631.74 477.036C631.74 480.808 634.786 483.867 638.544 483.867C642.301 483.867 645.348 480.808 645.348 477.036C645.348 473.263 642.301 470.204 638.544 470.204Z" fill="#E93737"/>
<path d="M681.142 468.501C680.933 467.977 680.352 467.714 679.826 467.897L679.779 467.915L668.127 472.594C667.589 472.81 667.327 473.423 667.543 473.963C667.751 474.487 668.332 474.75 668.858 474.567L668.906 474.549L680.558 469.87C681.095 469.654 681.357 469.041 681.142 468.501Z" fill="#E93737"/>
<path d="M653.763 475.346C653.701 474.785 653.21 474.376 652.654 474.412L652.605 474.416L646.495 475.099C645.919 475.163 645.504 475.684 645.569 476.262C645.631 476.823 646.122 477.232 646.678 477.196L646.727 477.192L652.837 476.509C653.413 476.445 653.827 475.924 653.763 475.346Z" fill="#E93737"/>
<path fill-rule="evenodd" clip-rule="evenodd" d="M639.794 500.934C639.794 500.934 640.961 497.649 644.769 493.405C646.868 491.066 658.254 485.477 662.865 489.929C667.476 494.382 669.994 495.267 669.199 495.399C661.433 496.685 659.84 493.196 656.245 493.385C652.228 493.596 649.974 493.158 649.974 493.158C648.926 494.842 647.773 496.07 645.188 498.349C644.329 499.107 640.389 502.776 639.794 500.934Z" fill="#711515"/>
<path fill-rule="evenodd" clip-rule="evenodd" d="M74.2136 590.942C74.2136 590.942 57.876 640.596 64.9408 699.56C72.0058 758.524 83.9278 878.227 83.9278 878.227H110.863C110.863 878.227 113.071 764.731 117.045 726.161C121.019 687.59 122.785 660.103 122.785 660.103L129.408 632.172L131.616 668.97C131.616 668.97 177.538 846.306 181.071 881.33L206.681 880.886C206.681 880.886 192.11 670.3 189.46 654.339C186.811 638.379 167.382 595.818 167.382 595.818L74.2136 590.942Z" fill="#7D4439"/>
<path fill-rule="evenodd" clip-rule="evenodd" d="M111.176 883.79H84.1384C82.7437 883.79 81.613 882.654 81.613 881.254V881.232C81.613 879.832 82.7437 878.697 84.1384 878.697H111.176C112.571 878.697 113.701 879.832 113.701 881.232V881.254C113.701 882.654 112.571 883.79 111.176 883.79Z" fill="#56ACF6"/>
<path fill-rule="evenodd" clip-rule="evenodd" d="M113.808 885.2C113.808 885.625 113.636 886.012 113.359 886.29C113.081 886.571 112.697 886.744 112.273 886.744H111.814V902.126H83.7023V886.744H83.2572C82.409 886.744 81.7215 886.051 81.7215 885.2C81.7215 884.774 81.8939 884.387 82.1713 884.109C82.4486 883.831 82.8331 883.657 83.2572 883.657H112.273C113.121 883.657 113.808 884.348 113.808 885.2Z" fill="#E4F9FF"/>
<path fill-rule="evenodd" clip-rule="evenodd" d="M69.8953 929.173C69.8953 929.173 69.3987 921.259 71.8193 920.387C74.2398 919.514 115.212 918.332 115.212 918.332L115.14 926.556C115.14 926.556 102.851 929.796 92.1763 930.17C81.5013 930.544 70.2057 929.672 69.8953 929.173Z" fill="#E4F9FF"/>
<path fill-rule="evenodd" clip-rule="evenodd" d="M115.213 918.333C115.22 918.785 115.224 919.042 115.224 919.042C115.224 919.042 107.163 920.771 100.275 921.48C93.3863 922.187 73.1143 923.05 71.7836 921.321C70.6837 919.891 79.2036 908.164 82.1958 904.133C81.5456 903.829 81.0935 903.164 81.0935 902.394C81.0935 901.865 81.3079 901.384 81.6528 901.037C81.9977 900.691 82.4778 900.476 83.0044 900.476H113.57C114.625 900.476 115.481 901.334 115.481 902.394C115.481 902.923 115.266 903.405 114.921 903.751C114.791 903.882 114.642 903.995 114.479 904.084C114.975 907.703 115.164 915.879 115.213 918.333Z" fill="#204EB2"/>
<path fill-rule="evenodd" clip-rule="evenodd" d="M74.273 915.798C74.273 915.798 69.6731 920.755 71.9765 921.555C74.2798 922.355 92.3519 923.067 98.996 922L105.64 920.932C105.64 920.932 106.152 917.997 102.157 915.035C99.3013 912.917 97.4426 910.001 94.785 909.467C92.1272 908.934 87.0004 908.649 84.6971 909.805C82.3939 910.961 78.4109 913.322 74.273 915.798Z" fill="#56ACF6"/>
<path fill-rule="evenodd" clip-rule="evenodd" d="M106.84 910.856C106.84 910.856 107.187 917.476 109.703 917.302C112.219 917.128 113.284 907.023 114.586 904.061C114.586 904.061 113.331 903.722 111.206 909.587C110.132 912.554 110.397 915.734 106.84 910.856Z" fill="white"/>
<path d="M82.5673 907.727C84.608 907.12 86.8795 906.776 89.3175 906.83C92.475 906.9 95.6639 907.637 98.8107 909.174C99.2737 909.4 99.4664 909.96 99.2412 910.425C99.016 910.89 98.4581 911.083 97.9952 910.857C95.0967 909.442 92.172 908.765 89.2766 908.702C87.0429 908.652 84.9614 908.967 83.0969 909.522C82.4936 909.701 81.9593 909.893 81.5011 910.083C81.3697 910.138 81.2533 910.189 81.1523 910.235L81.0243 910.295L80.9739 910.32C80.5165 910.557 79.9542 910.377 79.7181 909.918C79.482 909.458 79.6614 908.894 80.1189 908.657L80.214 908.609C80.3465 908.545 80.5391 908.457 80.7883 908.354C81.3049 908.139 81.9001 907.926 82.5673 907.727Z" fill="white"/>
<path d="M85.0534 902.069C87.0941 901.462 89.3655 901.118 91.8036 901.172C94.9611 901.242 98.1501 901.979 101.297 903.516C101.76 903.742 101.953 904.302 101.727 904.767C101.502 905.232 100.944 905.425 100.481 905.199C97.5828 903.784 94.6581 903.107 91.7626 903.043C89.529 902.994 87.4475 903.309 85.583 903.864C84.9797 904.043 84.4455 904.235 83.9873 904.425L83.8368 904.489C83.789 904.509 83.7437 904.529 83.7009 904.549L83.5305 904.628L83.4601 904.662C83.0026 904.899 82.4403 904.719 82.2042 904.26C81.9681 903.8 82.1476 903.236 82.605 902.999L82.6654 902.968C82.7981 902.902 83.0025 902.809 83.2745 902.696C83.791 902.481 84.3861 902.268 85.0534 902.069Z" fill="white"/>
<path d="M84.104 903.881C86.1568 903.323 88.4506 903.032 90.9117 903.152C94.1305 903.308 97.3614 904.159 100.52 905.844C100.975 906.086 101.148 906.653 100.906 907.109C100.665 907.566 100.1 907.739 99.6457 907.497C96.7362 905.945 93.7734 905.165 90.8218 905.021C88.5671 904.912 86.4654 905.178 84.5913 905.688C84.04 905.838 83.552 905.998 83.1337 906.156L82.9965 906.21C82.9094 906.244 82.8313 906.276 82.7622 906.306L82.6544 906.353C82.1888 906.574 81.6333 906.374 81.4135 905.906C81.1938 905.439 81.3931 904.881 81.8587 904.66L81.954 904.617C82.0758 904.563 82.25 904.491 82.474 904.406C82.9474 904.226 83.4927 904.047 84.104 903.881Z" fill="white"/>
<path d="M83.8501 906.549C88.4552 904.749 93.7338 904.369 99.3595 906.298C99.8467 906.465 100.107 906.997 99.9405 907.486C99.7742 907.975 99.2444 908.236 98.7572 908.069C93.5829 906.296 88.748 906.643 84.5266 908.294C83.7524 908.596 83.0679 908.92 82.4814 909.242C82.3368 909.321 82.2063 909.396 82.0902 909.465L81.928 909.564L81.8004 909.646C81.3756 909.938 80.7955 909.829 80.5047 909.403C80.2139 908.976 80.3225 908.394 80.7473 908.102L80.8488 908.034C81.0145 907.927 81.262 907.778 81.5874 907.599C82.242 907.24 82.9988 906.882 83.8501 906.549Z" fill="white"/>
<path fill-rule="evenodd" clip-rule="evenodd" d="M182.418 886.117L209.42 884.736C210.813 884.665 211.885 883.473 211.814 882.075L211.813 882.053C211.742 880.654 210.555 879.579 209.162 879.65L182.16 881.031C180.767 881.102 179.695 882.294 179.766 883.692L179.767 883.714C179.838 885.112 181.025 886.188 182.418 886.117Z" fill="#56ACF6"/>
<path fill-rule="evenodd" clip-rule="evenodd" d="M179.86 887.66C179.882 888.085 180.074 888.462 180.365 888.726C180.656 888.992 181.049 889.145 181.472 889.124L181.931 889.1L182.71 904.462L210.785 903.026L210.005 887.664L210.45 887.641C211.297 887.598 211.949 886.871 211.906 886.021C211.884 885.595 211.692 885.218 211.401 884.955C211.11 884.691 210.717 884.537 210.294 884.559L181.316 886.041C180.469 886.085 179.817 886.809 179.86 887.66Z" fill="#E4F9FF"/>
<path fill-rule="evenodd" clip-rule="evenodd" d="M225.945 929.333C225.945 929.333 226.04 921.404 223.578 920.656C221.116 919.909 180.137 920.821 180.137 920.821L180.626 929.03C180.626 929.03 193.063 931.639 203.743 931.467C214.423 931.295 225.66 929.847 225.945 929.333Z" fill="#E4F9FF"/>
<path fill-rule="evenodd" clip-rule="evenodd" d="M180.137 920.822C180.153 921.273 180.161 921.53 180.161 921.53C180.161 921.53 188.299 922.845 195.215 923.202C202.13 923.556 222.42 923.382 223.661 921.587C224.687 920.103 215.584 908.827 212.391 904.953C213.025 904.616 213.443 903.93 213.404 903.161C213.377 902.633 213.139 902.162 212.777 901.834C212.415 901.506 211.924 901.315 211.398 901.342L180.873 902.904C179.818 902.958 179.008 903.859 179.062 904.918C179.088 905.446 179.327 905.916 179.689 906.244C179.826 906.368 179.98 906.473 180.148 906.554C179.835 910.194 180.061 918.368 180.137 920.822Z" fill="#204EB2"/>
<path fill-rule="evenodd" clip-rule="evenodd" d="M220.895 916.198C220.895 916.198 225.74 920.914 223.48 921.831C221.22 922.748 203.208 924.382 196.518 923.655L189.829 922.929C189.829 922.929 189.169 920.023 193.009 916.861C195.753 914.601 197.462 911.593 200.089 910.924C202.716 910.256 207.822 909.709 210.181 910.746C212.54 911.783 216.637 913.937 220.895 916.198Z" fill="#56ACF6"/>
<path fill-rule="evenodd" clip-rule="evenodd" d="M188.12 912.927C188.12 912.927 188.108 919.556 185.587 919.511C183.065 919.465 181.489 909.428 180.04 906.536C180.04 906.536 181.276 906.133 183.695 911.882C184.919 914.791 184.814 917.98 188.12 912.927Z" fill="white"/>
<path d="M205.71 907.991C208.18 907.843 210.483 908.11 212.539 908.647C213.072 908.786 213.553 908.935 213.978 909.085L214.103 909.13C214.383 909.232 214.582 909.314 214.695 909.366C215.164 909.579 215.371 910.134 215.159 910.604C214.953 911.06 214.428 911.27 213.969 911.089L213.822 911.027L213.694 910.975C213.648 910.958 213.599 910.939 213.547 910.919L213.467 910.89C213.066 910.744 212.599 910.597 212.07 910.459C210.194 909.969 208.084 909.724 205.821 909.86C202.845 910.038 199.866 910.865 196.953 912.476C196.502 912.726 195.935 912.561 195.687 912.108C195.438 911.656 195.602 911.086 196.053 910.837C199.216 909.087 202.465 908.186 205.71 907.991Z" fill="white"/>
<path d="M202.94 902.468C205.411 902.32 207.713 902.587 209.77 903.123C210.303 903.262 210.784 903.411 211.208 903.562L211.334 903.607C211.613 903.709 211.812 903.791 211.925 903.842C212.394 904.055 212.602 904.61 212.389 905.081C212.183 905.537 211.659 905.747 211.2 905.565L211.053 905.503L210.924 905.452C210.856 905.425 210.78 905.396 210.697 905.366C210.297 905.22 209.829 905.073 209.3 904.935C207.424 904.445 205.314 904.201 203.051 904.336C200.075 904.514 197.097 905.341 194.183 906.952C193.733 907.202 193.166 907.037 192.917 906.584C192.669 906.132 192.833 905.563 193.284 905.313C196.447 903.563 199.695 902.662 202.94 902.468Z" fill="white"/>
<path d="M203.94 904.391C206.43 904.177 208.749 904.389 210.81 904.876C211.339 905.001 211.81 905.135 212.22 905.27L212.34 905.311C212.53 905.375 212.669 905.428 212.755 905.463C213.231 905.66 213.458 906.207 213.262 906.685C213.073 907.148 212.556 907.376 212.091 907.212L211.955 907.16L211.841 907.118C211.779 907.096 211.711 907.073 211.637 907.048C211.278 906.93 210.858 906.81 210.383 906.698C208.505 906.254 206.38 906.06 204.099 906.256C201.068 906.517 198.053 907.451 195.134 909.204C194.693 909.47 194.12 909.325 193.856 908.882C193.592 908.438 193.735 907.863 194.177 907.598C197.346 905.694 200.634 904.675 203.94 904.391Z" fill="white"/>
<path d="M195.359 907.992C201.033 905.718 206.448 905.896 211.194 907.565C211.912 907.818 212.558 908.088 213.125 908.36L213.265 908.428C213.633 908.609 213.894 908.754 214.039 908.843C214.478 909.113 214.616 909.689 214.347 910.13C214.087 910.557 213.541 910.7 213.108 910.464L212.954 910.375L212.923 910.358C212.789 910.284 212.63 910.2 212.445 910.109C211.909 909.845 211.284 909.58 210.578 909.332C206.228 907.802 201.269 907.639 196.051 909.731C195.573 909.922 195.03 909.689 194.839 909.209C194.648 908.729 194.881 908.184 195.359 907.992Z" fill="white"/>
<path fill-rule="evenodd" clip-rule="evenodd" d="M73.6953 567.402C73.6953 567.402 65.7026 616.609 54.3721 671.638C54.3721 671.638 53.5411 675.392 62.8889 674.141C72.2365 672.89 99.2408 674.349 111.704 676.852C124.168 679.355 125.206 679.355 125.206 670.595C125.206 661.835 126.868 640.771 126.868 640.771C126.868 640.771 127.699 678.729 131.854 677.686C136.008 676.644 159.166 662.203 199.409 669.646C199.409 669.646 203.91 668.583 202.587 663.798C201.263 659.013 177.482 590.942 174.368 567.402C174.368 567.402 140.81 567.402 73.6953 567.402Z" fill="#204EB2"/>
<path fill-rule="evenodd" clip-rule="evenodd" d="M112.369 414.38C112.369 414.38 111.509 433.368 100.477 440.07C90.4677 446.152 111.673 481.44 134.485 479.335C146.972 478.183 149.899 443.898 149.899 443.898C149.899 443.898 139.816 441.942 143.541 426.504L112.369 414.38Z" fill="#7D4439"/>
<path fill-rule="evenodd" clip-rule="evenodd" d="M130.635 433.687C115.846 431.891 105.174 422.128 103.679 405.933C99.3799 406.62 98.3659 395.372 99.5632 391.759C100.762 388.141 104.674 390.257 104.674 390.257C104.89 389.685 105.074 389.086 105.226 388.461C111.686 361.855 129.78 362.91 129.78 362.91C163.029 364.649 155.239 398.731 153.339 407.773C151.439 416.815 144.931 435.421 130.635 433.687Z" fill="#7D4439"/>
<mask id="mask6_3_681" style="mask-type:alpha" maskUnits="userSpaceOnUse" x="176" y="538" width="101" height="95">
<path fill-rule="evenodd" clip-rule="evenodd" d="M276.904 538.377H176.168V632.42H276.904V538.377Z" fill="white"/>
</mask>
<g mask="url(#mask6_3_681)">
<path fill-rule="evenodd" clip-rule="evenodd" d="M206.324 538.377C206.324 538.377 208.079 568.95 214.036 573.436C219.993 577.922 260.793 589.541 260.793 589.541C260.793 589.541 262.619 613.651 256.029 611.117C249.439 608.583 182.911 599.168 182.234 595.085C181.556 591.001 176.168 543.799 176.168 543.799L206.324 538.377Z" fill="#7D4439"/>
</g>
<path fill-rule="evenodd" clip-rule="evenodd" d="M50.0623 461.055C40.1228 476.856 40.8202 492.447 33.7799 497.437C26.7394 502.427 23.8404 509.496 21.7696 518.644C19.6991 527.792 21.7696 522.883 21.7696 522.883L56.8188 547.061C56.8188 547.061 77.6791 503.675 73.9517 517.396C70.2245 531.119 61.4282 588.836 64.9787 592.151C68.5293 595.466 101.885 608.3 132.086 606.916C158.548 605.704 183.479 598.617 183.479 596.675C183.479 592.517 177.488 545.672 177.488 545.672L208.548 538.603C208.548 538.603 205.939 476.384 179.405 455.478C179.405 455.478 165.032 444.932 147.343 441.047C147.343 441.047 142.184 452.333 125.968 452.703C109.753 453.073 104.495 447.254 100.447 440.819C100.447 440.819 60.0018 445.254 50.0623 461.055Z" fill="#FC7750"/>
<path fill-rule="evenodd" clip-rule="evenodd" d="M276.646 587.038C276.736 587.033 276.827 587.035 276.917 587.04C277.143 587.047 277.373 587.076 277.601 587.127L284.944 588.749C286.995 589.203 288.29 591.236 287.838 593.295C287.432 595.151 285.739 596.39 283.907 596.279C285.567 596.979 286.545 598.788 286.147 600.616C285.776 602.301 284.344 603.482 282.71 603.6C284.187 604.377 285.026 606.077 284.649 607.793C284.245 609.651 282.55 610.888 280.718 610.777C282.378 611.477 283.358 613.288 282.958 615.114C282.509 617.171 280.48 618.47 278.434 618.017L271.09 616.395C270.602 616.288 270.159 616.088 269.771 615.824L253.33 610.28C253.427 609.83 253.5 609.339 253.54 608.805C253.881 604.282 255.466 593.132 255.233 588.097C262.887 585.134 268.193 582.417 271.151 579.947C275.589 576.241 280.272 568.044 282.846 570.224C285.759 572.693 280.79 583.163 276.807 586.889C276.753 586.94 276.699 586.991 276.646 587.038Z" fill="#7D4439"/>
<path fill-rule="evenodd" clip-rule="evenodd" d="M52.1628 544.028C52.1628 544.028 37.5111 576.446 22.1908 565.5C6.87071 554.554 -1.73034 541.319 -23.8596 510.31C-32.5536 498.128 -54.3125 468.451 -48.6323 466.155C-45.4738 464.879 -25.9178 483.949 -14.8583 491.501C-11.6005 493.725 16.3251 521.177 19.3422 521.582C21.3536 521.852 32.2938 529.334 52.1628 544.028Z" fill="#7D4439"/>
<path fill-rule="evenodd" clip-rule="evenodd" d="M127.928 398.089C127.928 398.865 127.303 399.493 126.53 399.493C125.758 399.493 125.132 398.865 125.132 398.089C125.132 397.314 125.758 396.685 126.53 396.685C127.303 396.685 127.928 397.314 127.928 398.089Z" fill="black"/>
<path fill-rule="evenodd" clip-rule="evenodd" d="M146.455 401.248C146.455 402.023 145.829 402.652 145.057 402.652C144.285 402.652 143.659 402.023 143.659 401.248C143.659 400.473 144.285 399.844 145.057 399.844C145.829 399.844 146.455 400.473 146.455 401.248Z" fill="black"/>
<path fill-rule="evenodd" clip-rule="evenodd" d="M125.607 417.992C125.607 417.992 125.551 421.724 130.766 422.393C135.981 423.061 138.311 422.393 138.2 419.997C138.2 419.997 137.368 417.38 136.147 417.268C134.927 417.157 133.651 417.825 133.651 417.825C133.651 417.825 132.431 416.21 131.155 416.377C129.879 416.544 127.327 418.048 125.607 417.992Z" fill="#CE4129"/>
<mask id="mask7_3_681" style="mask-type:alpha" maskUnits="userSpaceOnUse" x="116" y="388" width="19" height="6">
<path fill-rule="evenodd" clip-rule="evenodd" d="M116.574 388.408H134.689V393.956H116.574V388.408Z" fill="white"/>
</mask>
<g mask="url(#mask7_3_681)">
<path fill-rule="evenodd" clip-rule="evenodd" d="M134.103 393.956C134.103 393.956 127.37 392.082 125.615 391.55C123.86 391.017 123.493 390.648 121.411 390.853C119.33 391.058 116.962 391.508 116.595 391.099C116.228 390.689 120.88 388.64 122.432 388.435C123.982 388.23 133.143 389.189 134.317 391.47C135.264 393.311 134.103 393.956 134.103 393.956Z" fill="black"/>
</g>
<path fill-rule="evenodd" clip-rule="evenodd" d="M134.779 420.013C130.977 419.504 126.43 418.828 125.003 418.112C123.962 417.589 123.578 417.72 123.575 417.722C123.575 417.722 123.909 416.516 125.42 417.274C126.891 418.013 132.921 418.82 134.903 419.085C138.369 419.549 138.682 419.37 139.078 419.143L139.54 419.955C139.156 420.176 138.794 420.31 137.974 420.31C137.303 420.31 136.326 420.22 134.779 420.013Z" fill="black"/>
<mask id="mask8_3_681" style="mask-type:alpha" maskUnits="userSpaceOnUse" x="142" y="392" width="12" height="5">
<path fill-rule="evenodd" clip-rule="evenodd" d="M142.099 392.534H153.982V396.556H142.099V392.534Z" fill="white"/>
</mask>
<g mask="url(#mask8_3_681)">
<path fill-rule="evenodd" clip-rule="evenodd" d="M142.109 394.853C142.109 394.853 142.255 393.385 144.039 392.739C145.823 392.093 152.052 393.15 152.52 393.503C152.988 393.855 153.836 394.706 153.982 396.556C153.982 396.556 153.307 395.147 152.079 394.912C150.851 394.677 147.022 395.734 144.595 395.705C142.167 395.675 142.05 395.382 142.109 394.853Z" fill="black"/>
</g>
<path fill-rule="evenodd" clip-rule="evenodd" d="M131.829 434.543C128.601 434.543 125.263 433.598 122.869 432.724C119.803 431.606 117.578 430.36 117.556 430.347L117.898 429.735C117.985 429.784 126.629 434.593 133.538 433.74L133.623 434.437C133.034 434.51 132.433 434.543 131.829 434.543Z" fill="black"/>
<path d="M140.563 394.612L141.451 394.898L141.364 395.177C141.294 395.405 141.216 395.666 141.132 395.954C140.893 396.781 140.653 397.668 140.43 398.581C140.181 399.596 139.968 400.581 139.801 401.51L139.753 401.785C139.348 404.15 139.291 405.955 139.653 406.925L139.674 406.981C141.743 412.119 138.933 414.725 133.037 412.901L132.857 412.844L133.141 411.953C138.453 413.659 140.583 411.736 138.81 407.331C138.322 406.119 138.397 404.061 138.884 401.344C139.054 400.394 139.271 399.391 139.524 398.358C139.726 397.534 139.941 396.731 140.156 395.974L140.237 395.693C140.286 395.525 140.333 395.367 140.377 395.218L140.491 394.843L140.563 394.612Z" fill="black"/>
<path d="M117.55 430.415L118.006 429.599L118.172 429.69L118.325 429.771C118.556 429.894 118.819 430.028 119.111 430.173L119.239 430.235C120.222 430.716 121.31 431.198 122.47 431.647C125.138 432.68 127.774 433.385 130.227 433.613C131.338 433.717 132.391 433.719 133.378 433.613L133.574 433.59L133.688 434.519C132.575 434.657 131.39 434.662 130.14 434.545C127.592 434.307 124.876 433.581 122.135 432.52C120.949 432.061 119.837 431.569 118.83 431.077L118.45 430.888C118.288 430.806 118.136 430.728 117.994 430.654L117.731 430.514L117.55 430.415Z" fill="black"/>
<path fill-rule="evenodd" clip-rule="evenodd" d="M136.342 413.483C135.4 413.483 134.224 413.298 132.757 412.826L133.041 411.935C135.773 412.813 137.791 412.741 138.724 411.733C139.517 410.875 139.512 409.305 138.71 407.314C138.166 405.963 138.3 403.4 139.11 399.696C139.702 396.986 140.455 394.618 140.463 394.594L141.35 394.88C140.533 397.438 138.621 404.596 139.574 406.963C140.785 409.972 140.152 411.564 139.407 412.369C138.875 412.944 137.948 413.483 136.342 413.483Z" fill="black"/>
<path fill-rule="evenodd" clip-rule="evenodd" d="M157.374 399.648C157.374 395.264 156.4 389.713 159.02 387.522C161.64 385.329 167.317 381.603 164.042 377C160.767 372.396 164.478 363.409 158.802 362.313C153.125 361.217 152.886 359.413 151.358 355.248C149.83 351.084 143.339 354.376 140.674 352.274C138.16 350.291 135.154 346.872 128.194 350.381C124.446 352.27 118.048 344.927 113.391 355.298C110.404 361.95 107.243 356.125 102.921 359.581C97.7827 363.689 102.783 369.693 98.198 372.762C93.6132 375.831 97.6061 379.349 95.9566 382.808C93.2352 388.514 97.8899 408.565 100.946 410.319C104.003 412.072 105.584 415.024 105.584 415.024C105.584 415.024 104.174 410.217 103.827 405.833C103.827 405.833 101.464 406.424 100.175 402.188C98.8854 397.951 98.4273 390.731 101.217 389.917C104.007 389.104 104.529 391.382 104.529 391.382C104.529 391.382 105.445 394.872 104.914 397.534C104.384 400.197 106.108 401.794 107.035 397.8C107.964 393.807 112.604 393.674 111.676 388.216C110.748 382.758 112.604 379.564 116.316 377.967C120.028 376.369 121.089 368.249 124.271 369.048C127.453 369.847 131.032 366.386 135.938 368.782C140.843 371.178 140.445 374.506 144.688 375.304C148.931 376.103 151.184 378.765 151.184 381.028C151.184 383.291 154.101 384.09 154.897 387.284C155.692 390.479 154.995 399.952 153.331 407.906C153.331 407.906 157.374 404.033 157.374 399.648Z" fill="#711515"/>
</g>
<defs>
<clipPath id="clip0_3_681">
<rect width="785" height="660" fill="white" transform="translate(0 278)"/>
</clipPath>
</defs>
</svg>
