<svg width="785" height="660" viewBox="0 0 785 660" fill="none" xmlns="http://www.w3.org/2000/svg">
<g clip-path="url(#clip0_2_351)">
<path opacity="0.5" d="M381.072 653.707C587.255 653.707 754.399 647.631 754.399 640.136C754.399 632.641 587.255 626.565 381.072 626.565C174.89 626.565 7.74561 632.641 7.74561 640.136C7.74561 647.631 174.89 653.707 381.072 653.707Z" fill="#D5ECFF"/>
<path fill-rule="evenodd" clip-rule="evenodd" d="M626.119 168.034V205.294C626.119 224.031 610.99 239.221 592.329 239.221L365.661 239.221C346.999 239.221 331.871 224.031 331.871 205.294V168.034C331.871 149.297 346.999 134.107 365.661 134.107L592.329 134.107C610.99 134.107 626.119 149.297 626.119 168.034Z" fill="#EECCDC"/>
<path fill-rule="evenodd" clip-rule="evenodd" d="M620.435 163.865V201.124C620.435 219.862 605.307 235.051 586.645 235.051L359.975 235.051C341.313 235.051 326.185 219.862 326.185 201.124V163.865C326.185 145.128 341.313 129.938 359.975 129.938L586.645 129.938C605.307 129.938 620.435 145.128 620.435 163.865Z" fill="#FCEBEC"/>
<path fill-rule="evenodd" clip-rule="evenodd" d="M352.965 145.848H592.519C595.839 145.848 598.53 148.55 598.53 151.883C598.53 155.216 595.839 157.918 592.519 157.918H352.965V145.848Z" fill="#EECCDC"/>
<path fill-rule="evenodd" clip-rule="evenodd" d="M352.965 176.461H462.189C465.509 176.461 468.2 179.163 468.2 182.496C468.2 185.83 465.509 188.532 462.189 188.532H352.965V176.461Z" fill="#EECCDC"/>
<path fill-rule="evenodd" clip-rule="evenodd" d="M352.965 206.9H521.463C524.783 206.9 527.474 209.602 527.474 212.935C527.474 216.268 524.783 218.97 521.463 218.97H352.965V206.9Z" fill="#EECCDC"/>
<path fill-rule="evenodd" clip-rule="evenodd" d="M625.995 45.7237V83.0755C625.995 101.813 610.867 117.002 592.205 117.002L531.755 117.002C513.093 117.002 497.964 101.813 497.964 83.0755V45.7237C497.964 26.9864 513.093 11.7968 531.755 11.7968L592.205 11.7968C610.867 11.7968 625.995 26.9864 625.995 45.7237Z" fill="#EECCDC"/>
<path fill-rule="evenodd" clip-rule="evenodd" d="M620.962 41.5508V78.9024C620.962 97.6398 605.833 112.829 587.171 112.829L526.721 112.829C508.059 112.829 492.931 97.6398 492.931 78.9024V41.5508C492.931 22.8135 508.059 7.6239 526.721 7.6239L587.171 7.6239C605.833 7.6239 620.962 22.8135 620.962 41.5508Z" fill="#FCEBEC"/>
<path fill-rule="evenodd" clip-rule="evenodd" d="M514.718 74.9305C506.661 51.4368 519.048 25.8507 542.386 17.7825C565.724 9.7142 591.174 22.219 599.231 45.7127C607.288 69.2065 594.901 94.7925 571.563 102.861C548.225 110.929 522.775 98.4242 514.718 74.9305ZM534.082 68.2359C538.454 80.9845 552.248 87.7758 564.891 83.4049C577.534 79.0339 584.239 65.1558 579.867 52.4073C575.495 39.6588 561.702 32.8674 549.058 37.2384C536.415 41.6093 529.71 55.4874 534.082 68.2359Z" fill="#56ACF6"/>
<path fill-rule="evenodd" clip-rule="evenodd" d="M530.486 24.1296L542.594 40.7495C536.724 45.0743 533.109 51.8503 532.712 59.0934L512.197 57.9708C512.938 44.6074 519.629 32.1041 530.486 24.1296Z" fill="#E93737"/>
<path fill-rule="evenodd" clip-rule="evenodd" d="M578.436 71.7713L596.569 81.4191C593.217 87.7564 588.359 93.305 582.284 97.4722L570.648 80.5235C573.964 78.2573 576.613 75.2308 578.436 71.7713Z" fill="#1BC0D7"/>
<path fill-rule="evenodd" clip-rule="evenodd" d="M459.299 41.2221V78.4437C459.299 97.181 444.17 112.371 425.508 112.371L365.039 112.371C346.377 112.371 331.248 97.181 331.248 78.4437V41.2221C331.248 22.4848 346.377 7.29517 365.039 7.29517L425.508 7.29517C444.17 7.29517 459.299 22.4848 459.299 41.2221Z" fill="#EECCDC"/>
<path fill-rule="evenodd" clip-rule="evenodd" d="M454.24 37.0261V74.2477C454.24 92.985 439.111 108.175 420.449 108.175L359.979 108.175C341.317 108.175 326.189 92.985 326.189 74.2477V37.0261C326.189 18.2888 341.317 3.09923 359.979 3.09923L420.449 3.09923C439.111 3.09923 454.24 18.2888 454.24 37.0261Z" fill="#FCEBEC"/>
<path fill-rule="evenodd" clip-rule="evenodd" d="M390.302 10.8793C415.063 10.8793 435.137 30.9571 435.137 55.7243C435.137 80.4915 415.063 100.569 390.302 100.569C365.54 100.569 345.466 80.4915 345.466 55.7243C345.466 30.9571 365.54 10.8793 390.302 10.8793ZM390.302 31.4296C376.865 31.4296 365.972 42.3067 365.972 55.7243C365.972 69.1419 376.865 80.019 390.302 80.019C403.738 80.019 414.631 69.1419 414.631 55.7243C414.631 42.3067 403.738 31.4296 390.302 31.4296Z" fill="#56ACF6"/>
<path fill-rule="evenodd" clip-rule="evenodd" d="M433.043 42.3897L413.439 48.4687C411.276 41.4923 406.069 35.8582 399.373 33.1252L407.114 14.0263C419.464 19.0776 429.066 29.4939 433.043 42.3897Z" fill="#E93737"/>
<path fill-rule="evenodd" clip-rule="evenodd" d="M372.507 72.3427L357.509 86.4078C352.63 81.1656 348.984 74.7512 347.036 67.6312L366.797 62.1058C367.852 65.9896 369.841 69.4876 372.507 72.3427Z" fill="#1BC0D7"/>
<path fill-rule="evenodd" clip-rule="evenodd" d="M292.601 41.1386L292.601 197.134C292.601 215.871 277.472 231.061 258.81 231.061L174.76 231.061C156.098 231.061 140.969 215.871 140.969 197.134L140.969 41.1386C140.969 22.4013 156.098 7.2117 174.76 7.2117L258.81 7.2117C277.472 7.2117 292.601 22.4013 292.601 41.1386Z" fill="#EECCDC"/>
<path fill-rule="evenodd" clip-rule="evenodd" d="M287.546 36.9386L287.546 192.937C287.546 211.674 272.418 226.864 253.756 226.864L169.707 226.864C151.045 226.864 135.916 211.674 135.916 192.937L135.916 36.9386C135.916 18.2013 151.045 3.01173 169.707 3.01173L253.756 3.01173C272.418 3.01173 287.546 18.2013 287.546 36.9386Z" fill="#FCEBEC"/>
<path d="M262.269 50.6575H162.899C158.265 50.6575 154.509 54.4287 154.509 59.0807V139.941C154.509 144.593 158.265 148.364 162.899 148.364H262.269C266.903 148.364 270.659 144.593 270.659 139.941V59.0807C270.659 54.4287 266.903 50.6575 262.269 50.6575Z" fill="white"/>
<path d="M200.872 111.953L201.076 112.408C202.254 115.019 203.072 116.487 204.122 117.723C205.424 119.257 206.922 120.121 208.929 120.373C210.822 120.61 213.429 118.864 216.591 115.029L216.85 114.711C219.332 111.647 221.874 107.726 225.418 101.712L226.155 100.455C227.163 98.7288 229.148 95.3189 229.763 94.2763L230.229 93.4882C231.522 91.3108 232.581 89.5954 233.575 88.0859L233.663 87.9532C236.706 83.3524 239.044 80.8075 241.524 80.0822C244.447 79.2272 246.832 79.941 248.242 82.1006C249.123 83.4498 249.487 84.9978 249.729 87.4441L249.83 88.5661L249.893 89.312C249.933 89.7647 249.971 90.1351 250.008 90.4451L250.024 90.5708L250.103 90.4623L250.162 90.3799L250.279 90.2126C251.165 88.9287 252.234 86.9797 253.465 84.388L253.704 83.8805C256.302 78.3283 259.549 70.1059 263.434 59.2334C263.869 58.0171 265.203 57.3848 266.415 57.8212C267.626 58.2575 268.256 59.5973 267.821 60.8136L267.338 62.1613C263.539 72.7233 260.347 80.7396 257.754 86.2292L257.672 86.4017C256.311 89.2692 255.104 91.4587 254.03 92.9941L253.958 93.0955C252.544 95.0872 251.242 96.1918 249.566 96.1918C247.62 96.1918 246.384 94.9396 245.803 93.1052L245.764 92.9777C245.489 92.066 245.373 91.1864 245.218 89.3518L245.117 88.1754L245.094 87.9352C244.922 86.2066 244.689 85.1945 244.344 84.6659C244.245 84.5134 244.183 84.4648 244.094 84.4382C243.871 84.3713 243.462 84.3895 242.827 84.575C241.817 84.8705 239.959 86.8923 237.545 90.5421L237.3 90.9155C236.338 92.3872 235.291 94.0939 233.997 96.2808L232.798 98.326C231.686 100.23 230.113 102.932 229.681 103.667L229.046 104.745C225.46 110.801 222.851 114.774 220.181 118.013C216.092 122.973 212.302 125.511 208.351 125.016C205.142 124.614 202.605 123.151 200.575 120.759C199.145 119.074 198.152 117.281 196.769 114.203L196.072 112.633C194.792 109.755 194.051 108.378 193.079 107.25C191.974 105.967 190.76 105.368 189.043 105.368C186.425 105.368 182.769 108.237 178.399 114.242C173.736 120.647 168.438 130.353 162.535 143.333C162 144.508 160.618 145.026 159.447 144.489C158.276 143.952 157.761 142.564 158.295 141.389C170.665 114.192 180.494 100.688 189.043 100.688C192.164 100.688 194.642 101.911 196.604 104.188L196.737 104.344C198.008 105.858 198.878 107.475 200.25 110.55L200.872 111.953Z" fill="#56ACF6"/>
<path d="M263.653 89.044C264.336 87.9488 265.774 87.6169 266.864 88.3027C267.955 88.9885 268.286 90.4323 267.603 91.5276C257.059 108.434 248.953 115.934 242.245 113.32C240.962 112.82 239.624 112.019 238 110.844L237.686 110.615C237.227 110.277 236.74 109.907 236.168 109.464L233.774 107.588L233.34 107.253C229.637 104.397 227.269 102.979 224.979 102.456C221.755 101.72 219.073 103.137 216.346 107.94L216.264 108.087C212.144 115.443 206.946 119.391 200.789 120.428C196.184 121.204 191.866 120.435 185.835 118.378L182.715 117.287C178.372 115.781 171.392 119.908 162.151 130.271C161.293 131.233 159.819 131.315 158.861 130.453C157.902 129.591 157.82 128.112 158.679 127.149C169.083 115.483 177.476 110.52 184.236 112.863L187.132 113.877C192.596 115.756 196.321 116.436 200.018 115.813C204.673 115.029 208.665 112.025 212.097 105.977L212.201 105.793C215.907 99.1759 220.594 96.6556 226.013 97.8931C229.156 98.6108 231.945 100.276 236.157 103.524L237.096 104.255C237.672 104.707 238.516 105.37 238.757 105.558L239.258 105.946C239.775 106.345 240.214 106.676 240.629 106.978L240.724 107.047C242.055 108.009 243.09 108.629 243.932 108.957C245.464 109.555 247.806 108.635 250.979 105.699C254.555 102.391 258.797 96.83 263.653 89.044Z" fill="#E93737"/>
<path d="M258.628 17.2835H166.54V38.1422H258.628V17.2835Z" fill="#EECCDC"/>
<path d="M270.659 168.784H154.509V173.615H270.659V168.784Z" fill="#EECCDC"/>
<path d="M270.659 196.23H154.509V201.06H270.659V196.23Z" fill="#EECCDC"/>
<path fill-rule="evenodd" clip-rule="evenodd" d="M345.54 450.083C342.804 465.877 316.471 636.188 316.471 636.188C316.471 636.188 317.065 640.489 321.349 641.121C325.633 641.754 327.901 637.832 327.901 637.832L365.039 454.221L345.54 450.083Z" fill="#DDB0C8"/>
<path fill-rule="evenodd" clip-rule="evenodd" d="M431.959 454.116C434.85 469.883 468.985 638.791 468.985 638.791C468.985 638.791 471.028 642.619 475.265 641.72C479.501 640.821 480.273 636.353 480.273 636.353L451.678 451.207L431.959 454.116Z" fill="#DDB0C8"/>
<path fill-rule="evenodd" clip-rule="evenodd" d="M475.244 453.602C478.135 469.369 512.27 638.277 512.27 638.277C512.27 638.277 514.313 642.104 518.55 641.206C522.786 640.307 523.558 635.839 523.558 635.839L494.963 450.693L475.244 453.602Z" fill="#DDB0C8"/>
<path fill-rule="evenodd" clip-rule="evenodd" d="M498.254 457.293H340.275C334.292 457.293 329.441 452.423 329.441 446.415C329.441 440.407 334.292 435.536 340.275 435.536H498.254C504.238 435.536 509.089 440.407 509.089 446.415C509.089 452.423 504.238 457.293 498.254 457.293Z" fill="#EECCDC"/>
<path fill-rule="evenodd" clip-rule="evenodd" d="M315.783 615.803L299.332 631.473L274.246 629.423L276.257 622.777L306.982 612.638L315.783 615.803Z" fill="#56ACF6"/>
<path fill-rule="evenodd" clip-rule="evenodd" d="M325.763 522.483C325.924 524.734 319.672 569.892 319.672 569.892C319.672 569.892 311.745 570.624 295.891 572.089L290.049 519.967L325.763 522.483Z" fill="#ECAFA3"/>
<path fill-rule="evenodd" clip-rule="evenodd" d="M323.031 594.689C322.976 593.922 320.397 568.649 320.397 568.649C320.397 568.649 321.085 567.52 320.876 564.604C320.667 561.688 318.787 559.045 306.475 561.006C294.163 562.968 293.509 564.557 293.596 565.785C293.684 567.013 295.27 569.831 295.413 571.827C295.556 573.822 295.87 593.239 295.87 593.239L323.031 594.689Z" fill="#E4F9FF"/>
<path fill-rule="evenodd" clip-rule="evenodd" d="M323.315 593.705L325.569 613.91L309.29 610.81L293.92 617.123L270.565 625.667L251.055 623.627L251.875 618.592C251.875 618.592 269.399 609.399 273.585 606.848C277.771 604.297 279.447 599.854 279.447 599.854L286.027 590.309C286.027 590.309 293.053 580.125 298.665 579.249C304.277 578.372 309.076 579.358 308.009 581.617C306.941 583.877 304.295 587.863 304.295 587.863L314.55 585.8L320.361 592.977L321.901 594.67L321.282 595.862" fill="#F4F0F1"/>
<path fill-rule="evenodd" clip-rule="evenodd" d="M321.74 596.646C321.74 596.646 321.952 598.454 316.219 600.274C310.486 602.093 304.331 604.937 303.45 601.851C302.568 598.765 303.998 595.679 303.998 595.679L298.742 599.535C298.742 599.535 296.32 603.77 299.092 607.881C301.863 611.992 308.812 612.157 308.812 612.157L311.757 609.46C311.757 609.46 320.963 604.244 322.933 600.622C324.903 597 321.74 596.646 321.74 596.646Z" fill="#F9C818"/>
<mask id="mask0_2_351" style="mask-type:alpha" maskUnits="userSpaceOnUse" x="246" y="582" width="93" height="63">
<path fill-rule="evenodd" clip-rule="evenodd" d="M338.916 588.9L249.979 582.617L246.114 638.463L335.051 644.747L338.916 588.9Z" fill="white"/>
</mask>
<g mask="url(#mask0_2_351)">
<path fill-rule="evenodd" clip-rule="evenodd" d="M323.722 589.281C323.722 589.281 330.458 605.281 329.867 605.052C329.276 604.823 325.489 596.997 325.331 599.991C325.175 602.986 327.137 606.819 326.732 610.148C326.732 610.148 323.662 618.187 321.813 618.319C319.964 618.452 311.149 616.142 311.149 616.142C311.149 616.142 307.128 610.905 298.799 616.38C290.47 621.854 279.718 627.43 279.718 627.43C279.718 627.43 281.027 628.532 281.078 629.557C281.129 630.582 280.476 631.978 280.476 631.978L313.064 627.271L330.605 615.357L332.776 615.588C332.776 615.588 334.79 616.834 334.972 620.451C335.154 624.068 334.99 625.006 335.532 626.126C336.074 627.246 337.464 629.464 333.231 630.539C328.999 631.614 297.219 639.218 283.217 640.375C269.216 641.531 254.846 637.539 250.955 633.725C247.065 629.909 246.462 626.863 247.33 623.943C248.198 621.023 249.917 617.504 253.934 618.173C257.951 618.843 260.245 619.512 266.831 617.404C273.419 615.296 276.021 615.543 275.789 617.041C275.559 618.54 270.707 619.968 270.707 619.968C270.707 619.968 264.196 621.422 264.243 622.067C264.289 622.712 264.514 623.282 270.42 622.829C276.325 622.375 283.401 621.082 292.682 615.416C301.965 609.75 304.717 607.53 310.815 608.217C316.912 608.905 322.377 611.718 323.915 607.392C325.453 603.067 321.246 597.332 321.278 595.866C321.31 594.4 323.311 593.708 323.311 593.708L323.707 587.81" fill="#15023F"/>
<path fill-rule="evenodd" clip-rule="evenodd" d="M322.887 585.596C322.887 585.596 323.109 585.889 323.71 587.795C324.311 589.7 324.52 595.573 322.48 595.38C320.44 595.187 318.843 591.151 317.033 588.866C315.223 586.581 312.94 585.94 310.991 587.011C309.041 588.083 301.51 587.613 301.51 587.613C301.51 587.613 303.527 584.174 310.217 584.111C310.217 584.111 314.945 582.541 317.708 586.853C320.471 591.166 322.154 595.451 322.356 591.824C322.53 588.701 321.55 586.789 321.757 585.686C321.965 584.584 322.887 585.596 322.887 585.596Z" fill="#451989"/>
<path fill-rule="evenodd" clip-rule="evenodd" d="M271.614 607.694C271.614 607.694 275.18 608.224 285.541 607.248C295.901 606.27 293.603 601.555 297.827 600.307C302.051 599.063 302.507 598.871 304.814 594.928C307.118 590.985 312.944 594.583 315.719 593.913C318.495 593.241 310.182 585.572 310.182 585.572C310.182 585.572 305.686 584.358 301.51 587.621C300.335 588.54 297.963 591.831 297.245 592.602C296.529 593.373 292.173 594.958 288.299 599.831C284.426 604.706 278.974 603.324 277.89 603.622C276.809 603.922 286.141 590.904 286.141 590.904L286.123 589.609C286.123 589.609 280.295 598.214 277.443 602.048C274.589 605.882 272.239 606.836 271.814 607.061C271.391 607.288 271.614 607.694 271.614 607.694Z" fill="#E263AB"/>
<path fill-rule="evenodd" clip-rule="evenodd" d="M327.137 597.201C327.137 597.201 333.814 612.456 333.441 615.955C333.068 619.453 325.59 617.2 322.442 623.913C319.293 630.627 314.586 633.568 294.65 637.05C274.714 640.531 257.892 633.026 257.808 631.858C257.725 630.689 257.855 628.429 257.855 628.429C257.855 628.429 286.568 633.126 298.47 625.033C310.372 616.94 310.78 614.464 315.25 615.612C319.721 616.76 322.346 615.3 325.754 611.141C325.754 611.141 326.093 609.062 324.829 603.672C323.565 598.283 324.67 590.592 327.137 597.201Z" fill="white"/>
<path fill-rule="evenodd" clip-rule="evenodd" d="M309.941 584.774C309.941 584.774 312.376 582.116 308.344 579.243C304.313 576.371 297.115 578.504 294.955 580.804C294.955 580.804 299.085 578.777 304.224 579.313C309.363 579.848 308.156 581.327 305.794 584.996L310.439 584.4" fill="#451989"/>
<path fill-rule="evenodd" clip-rule="evenodd" d="M303.068 587.751C302.517 588.633 302.988 589.926 304.12 590.64C305.253 591.354 306.618 591.218 307.17 590.336C307.721 589.455 307.25 588.161 306.118 587.447C304.985 586.733 303.62 586.869 303.068 587.751Z" fill="#1F003C"/>
<path fill-rule="evenodd" clip-rule="evenodd" d="M306.493 589.386C306.493 589.386 306.224 587.5 302.602 586.255C298.981 585.009 292.138 582.991 288.508 585.825C284.879 588.66 285.204 589.94 285.204 589.94C285.204 589.94 287.856 588.346 289.906 587.664C291.957 586.983 294.738 586.717 297.509 587.254C300.28 587.792 303.044 588.697 303.937 589.068C304.83 589.439 305.66 591.251 306.493 589.386Z" fill="#E8D9F3"/>
<path fill-rule="evenodd" clip-rule="evenodd" d="M298.212 591.814C297.66 592.696 298.131 593.989 299.264 594.703C300.396 595.417 301.761 595.281 302.313 594.399C302.864 593.518 302.394 592.224 301.261 591.51C300.128 590.797 298.763 590.933 298.212 591.814Z" fill="#1F003C"/>
<path fill-rule="evenodd" clip-rule="evenodd" d="M301.636 593.45C301.636 593.45 301.373 591.563 297.888 590.308C294.403 589.052 287.82 587.016 284.34 589.839C280.859 592.663 281.175 593.944 281.175 593.944C281.175 593.944 283.719 592.358 285.689 591.682C287.658 591.006 290.329 590.748 292.994 591.293C295.66 591.838 298.319 592.751 299.179 593.124C300.038 593.497 300.84 595.312 301.636 593.45Z" fill="#E8D9F3"/>
<path fill-rule="evenodd" clip-rule="evenodd" d="M292.846 595.511C292.294 596.392 292.766 597.686 293.898 598.4C295.031 599.113 296.396 598.977 296.947 598.096C297.499 597.214 297.028 595.92 295.895 595.207C294.763 594.493 293.398 594.629 292.846 595.511Z" fill="#1F003C"/>
<path fill-rule="evenodd" clip-rule="evenodd" d="M296.276 597.224C296.276 597.224 296.053 595.528 293.276 594.375C290.499 593.222 283.482 591.696 280.738 594.205C277.995 596.714 279.689 598.443 279.689 598.443C279.689 598.443 282.039 596.11 283.598 595.518C285.157 594.926 287.277 594.714 289.397 595.223C291.518 595.732 293.637 596.572 294.322 596.913C295.007 597.255 295.658 598.89 296.276 597.224Z" fill="#E8D9F3"/>
</g>
<path fill-rule="evenodd" clip-rule="evenodd" d="M502.676 384.632C502.676 384.632 504.116 428.516 496.328 425.915C496.328 425.915 453.915 430.141 443.555 431.766C438.342 432.584 428.373 438.848 397.176 444.073C365.978 449.299 336.232 454.686 336.232 456.786C336.232 461.012 329.436 491.84 327.818 529.548C327.818 529.548 318.105 541.25 288.966 530.848C288.966 530.848 286.854 457.122 301.424 428.516C329.243 391.458 417.425 384.632 417.425 384.632H502.676Z" fill="#E93737"/>
<path fill-rule="evenodd" clip-rule="evenodd" d="M418.746 517.883C418.746 520.14 415.962 577.874 415.962 577.874L393.257 579.969L380.705 514.723L418.746 517.883Z" fill="#ECAFA3"/>
<path fill-rule="evenodd" clip-rule="evenodd" d="M411.437 590.542L396.113 607.339L370.949 607.057L372.495 600.281L402.439 588.002L411.437 590.542Z" fill="#56ACF6"/>
<path fill-rule="evenodd" clip-rule="evenodd" d="M411.375 617.046L396.051 633.843L370.887 633.561L372.433 626.786L402.377 614.506L411.375 617.046Z" fill="#56ACF6"/>
<path fill-rule="evenodd" clip-rule="evenodd" d="M418.092 599.024C418.092 598.254 417.326 572.858 417.326 572.858C417.326 572.858 418.092 571.78 418.092 568.856C418.092 565.931 416.406 563.16 403.989 564.238C391.571 565.315 390.805 566.855 390.805 568.086C390.805 569.317 392.184 572.242 392.184 574.243C392.184 576.244 391.111 595.638 391.111 595.638L418.092 599.024Z" fill="#E4F9FF"/>
<path fill-rule="evenodd" clip-rule="evenodd" d="M418.453 598.05L419.257 618.372L403.243 614.115L387.464 619.318L363.561 626.175L344.25 622.746L345.427 617.78C345.427 617.78 363.561 609.86 367.917 607.613C372.274 605.367 374.263 601.053 374.263 601.053L381.508 591.999C381.508 591.999 389.242 582.339 394.901 581.866C400.561 581.392 405.277 582.718 404.051 584.896C402.825 587.075 399.901 590.863 399.901 590.863L410.276 589.537L415.558 597.113L416.973 598.913L416.271 600.058" fill="#F4F0F1"/>
<path fill-rule="evenodd" clip-rule="evenodd" d="M416.675 600.879C416.675 600.879 416.757 602.697 410.91 604.103C405.062 605.509 398.721 607.907 398.062 604.765C397.403 601.623 399.05 598.646 399.05 598.646L393.532 602.119C393.532 602.119 390.814 606.171 393.285 610.47C395.756 614.771 402.674 615.432 402.674 615.432L405.804 612.951C405.804 612.951 415.357 608.403 417.581 604.93C419.804 601.457 416.675 600.879 416.675 600.879Z" fill="#F9C818"/>
<path fill-rule="evenodd" clip-rule="evenodd" d="M419.179 593.662C419.179 593.662 424.753 610.108 424.18 609.837C423.608 609.567 420.389 601.486 420.019 604.464C419.648 607.441 421.332 611.405 420.69 614.698C420.69 614.698 417.054 622.5 415.201 622.5C413.347 622.5 404.72 619.566 404.72 619.566C404.72 619.566 401.085 614.054 392.387 618.921C383.689 623.789 372.567 628.585 372.567 628.585C372.567 628.585 373.794 629.778 373.772 630.804C373.749 631.831 372.998 633.177 372.998 633.177L405.835 630.808L424.18 620.172L426.329 620.558C426.329 620.558 428.248 621.945 428.171 625.567C428.095 629.189 427.865 630.114 428.325 631.27C428.786 632.426 430.014 634.738 425.715 635.509C421.417 636.279 389.179 641.597 375.132 641.751C361.086 641.905 347.04 636.896 343.432 632.811C339.825 628.727 339.441 625.644 340.515 622.793C341.59 619.941 343.555 616.552 347.514 617.507C351.472 618.462 353.712 619.294 360.432 617.661C367.151 616.028 369.729 616.459 369.392 617.938C369.054 619.417 364.114 620.495 364.114 620.495C364.114 620.495 357.516 621.481 357.516 622.128C357.516 622.775 357.701 623.36 363.623 623.33C369.545 623.299 376.693 622.514 386.355 617.523C396.017 612.532 398.921 610.514 404.953 611.635C410.985 612.757 416.234 615.953 418.077 611.748C419.921 607.542 416.135 601.519 416.271 600.058C416.407 598.598 418.453 598.05 418.453 598.05L419.268 592.193" fill="#15023F"/>
<path fill-rule="evenodd" clip-rule="evenodd" d="M418.604 589.939C418.604 589.939 418.805 590.249 419.268 592.193C419.731 594.137 419.521 600.013 417.5 599.674C415.479 599.336 414.174 595.194 412.532 592.785C410.891 590.375 408.659 589.572 406.639 590.502C404.618 591.432 397.14 590.426 397.14 590.426C397.14 590.426 399.397 587.138 406.074 587.553C406.074 587.553 410.901 586.324 413.349 590.824C415.798 595.326 417.17 599.722 417.63 596.117C418.026 593.013 417.185 591.035 417.472 589.949C417.757 588.864 418.604 589.939 418.604 589.939Z" fill="#451989"/>
<path fill-rule="evenodd" clip-rule="evenodd" d="M365.889 608.32C365.889 608.32 369.408 609.104 379.811 608.87C390.214 608.634 388.259 603.765 392.56 602.822C396.862 601.881 397.331 601.722 399.913 597.953C402.493 594.183 408.046 598.189 410.861 597.719C413.678 597.246 405.935 589.001 405.935 589.001C405.935 589.001 401.537 587.468 397.14 590.426C395.902 591.258 393.302 594.373 392.53 595.091C391.761 595.809 387.303 597.08 383.092 601.666C378.881 606.254 373.542 604.485 372.44 604.705C371.34 604.927 381.577 592.604 381.577 592.604L381.652 591.31C381.652 591.31 375.225 599.481 372.107 603.102C368.986 606.725 366.574 607.508 366.134 607.702C365.696 607.899 365.889 608.32 365.889 608.32Z" fill="#E263AB"/>
<path fill-rule="evenodd" clip-rule="evenodd" d="M422.019 601.809C422.019 601.809 427.589 617.507 426.967 620.971C426.345 624.436 419.049 621.653 415.429 628.127C411.809 634.601 406.905 637.199 386.773 639.25C366.642 641.3 350.401 632.61 350.401 631.438C350.401 630.267 350.693 628.021 350.693 628.021C350.693 628.021 378.993 634.758 391.442 627.532C403.89 620.307 404.473 617.866 408.849 619.33C413.226 620.795 415.949 619.526 419.645 615.62C419.645 615.62 420.131 613.569 419.256 608.101C418.38 602.633 420.031 595.038 422.019 601.809Z" fill="white"/>
<path fill-rule="evenodd" clip-rule="evenodd" d="M405.748 588.196C405.748 588.196 408.366 585.717 404.551 582.563C400.736 579.408 393.404 581.023 391.085 583.164C391.085 583.164 395.35 581.436 400.436 582.337C405.523 583.239 404.214 584.628 401.596 588.121L406.272 587.858" fill="#451989"/>
<path fill-rule="evenodd" clip-rule="evenodd" d="M398.684 590.673C398.071 591.513 398.448 592.838 399.527 593.631C400.605 594.424 401.976 594.386 402.589 593.545C403.202 592.705 402.825 591.381 401.747 590.588C400.668 589.795 399.297 589.833 398.684 590.673Z" fill="#1F003C"/>
<path fill-rule="evenodd" clip-rule="evenodd" d="M401.981 592.548C401.981 592.548 401.848 590.646 398.325 589.144C394.801 587.642 388.12 585.139 384.298 587.709C380.475 590.279 380.708 591.58 380.708 591.58C380.708 591.58 383.467 590.178 385.561 589.644C387.655 589.11 390.447 589.044 393.173 589.778C395.898 590.512 398.591 591.614 399.455 592.047C400.319 592.481 401.017 594.35 401.981 592.548Z" fill="#E8D9F3"/>
<path fill-rule="evenodd" clip-rule="evenodd" d="M393.55 594.378C392.937 595.218 393.315 596.542 394.393 597.335C395.471 598.128 396.843 598.09 397.456 597.25C398.069 596.41 397.692 595.085 396.613 594.292C395.535 593.499 394.163 593.537 393.55 594.378Z" fill="#1F003C"/>
<path fill-rule="evenodd" clip-rule="evenodd" d="M396.848 596.253C396.848 596.253 396.72 594.35 393.334 592.848C389.948 591.347 383.528 588.843 379.854 591.413C376.181 593.983 376.404 595.285 376.404 595.285C376.404 595.285 379.056 593.883 381.068 593.349C383.08 592.815 385.764 592.748 388.383 593.483C391.002 594.217 393.59 595.318 394.42 595.752C395.251 596.186 395.921 598.055 396.848 596.253Z" fill="#E8D9F3"/>
<path fill-rule="evenodd" clip-rule="evenodd" d="M387.936 597.68C387.323 598.52 387.7 599.844 388.778 600.637C389.857 601.43 391.228 601.392 391.841 600.552C392.454 599.712 392.077 598.387 390.998 597.594C389.92 596.801 388.549 596.839 387.936 597.68Z" fill="#1F003C"/>
<path fill-rule="evenodd" clip-rule="evenodd" d="M391.233 599.633C391.233 599.633 391.131 597.924 388.445 596.575C385.758 595.226 378.867 593.201 375.952 595.51C373.037 597.818 374.602 599.665 374.602 599.665C374.602 599.665 377.113 597.504 378.71 597.025C380.307 596.545 382.437 596.485 384.516 597.145C386.594 597.804 388.647 598.793 389.306 599.183C389.966 599.573 390.498 601.252 391.233 599.633Z" fill="#E8D9F3"/>
<path fill-rule="evenodd" clip-rule="evenodd" d="M480.324 444.073C449.126 449.299 419.38 454.686 419.38 456.785C419.38 461.012 421.906 491.84 420.287 529.548C420.287 529.548 410.574 541.25 381.436 530.848C381.436 530.848 370.002 457.121 384.572 428.515C412.392 391.458 500.573 384.631 500.573 384.631C507.872 420.775 501.122 440.589 480.324 444.073Z" fill="#E93737"/>
<path d="M409.299 406.077C389.473 413.513 379.226 427.247 378.64 447.188L378.626 447.794L379.791 447.817C380.172 428.235 389.922 414.791 409.122 407.395L409.707 407.173L409.299 406.077Z" fill="black"/>
<path fill-rule="evenodd" clip-rule="evenodd" d="M461.015 213.125C461.015 213.125 461.875 232.113 472.907 238.815C482.916 244.897 461.711 280.185 438.899 278.08C426.412 276.928 423.485 242.643 423.485 242.643C423.485 242.643 433.568 240.687 429.843 225.249L461.015 213.125Z" fill="#ECAFA3"/>
<path fill-rule="evenodd" clip-rule="evenodd" d="M442.749 232.432C457.538 230.636 468.21 220.873 469.705 204.678C474.004 205.365 475.018 194.117 473.821 190.504C472.622 186.886 468.71 189.002 468.71 189.002C468.494 188.43 468.31 187.831 468.158 187.206C461.698 160.6 443.604 161.655 443.604 161.655C410.355 163.394 418.145 197.476 420.045 206.518C421.945 215.56 428.453 234.166 442.749 232.432Z" fill="#ECAFA3"/>
<path fill-rule="evenodd" clip-rule="evenodd" d="M325.667 241.163C325.667 241.163 327.521 235.807 314.715 227.826C307.956 223.615 301.079 212.035 298.409 214.843C295.739 217.652 305.316 230.977 305.316 230.977C305.316 230.977 297.208 226.235 291.752 220.275C286.296 214.315 281.391 209.569 281.391 209.569C281.391 209.569 277.766 208.187 278.23 211.475C278.694 214.762 279.814 215.601 279.814 215.601C279.814 215.601 277.24 215.543 277.713 218.035C278.187 220.528 278.747 220.948 278.747 220.948C278.747 220.948 276.861 221.137 277.275 223.318C277.689 225.499 279.183 226.619 279.183 226.619C279.183 226.619 277.857 227.228 279.588 229.594C281.318 231.96 290.845 244.179 296.457 247.584C302.068 250.988 315.88 255.904 315.88 255.904C315.88 255.904 327.532 244.673 325.667 241.163Z" fill="#ECAFA3"/>
<path fill-rule="evenodd" clip-rule="evenodd" d="M295.23 238.208L295.514 237.567C295.473 237.548 291.315 235.652 286.303 230.391C282.834 226.75 281.056 225.974 280.175 225.964C279.757 225.965 279.562 226.124 279.512 226.174L280.006 226.671C279.987 226.69 279.976 226.696 279.976 226.696C279.987 226.69 281.203 226.053 285.798 230.877C290.914 236.246 295.057 238.131 295.23 238.208Z" fill="black"/>
<path fill-rule="evenodd" clip-rule="evenodd" d="M296.474 234.796L296.834 234.194C296.822 234.187 295.628 233.469 292.4 231.616C290.199 230.353 287.058 227.058 284.765 224.652C283.709 223.542 282.796 222.585 282.203 222.064C280.237 220.336 278.717 220.567 278.653 220.578L278.764 221.271C278.777 221.27 280.047 221.102 281.742 222.592C282.312 223.092 283.215 224.04 284.26 225.137C286.583 227.574 289.764 230.912 292.053 232.226C295.273 234.073 296.463 234.789 296.474 234.796Z" fill="black"/>
<path fill-rule="evenodd" clip-rule="evenodd" d="M297.411 231.991L297.761 231.383C297.717 231.358 293.323 228.793 290.124 226.039C287.141 223.473 284.341 219.702 282.837 217.676L282.485 217.204C281.024 215.248 279.989 215.191 279.875 215.191L279.864 215.893C279.872 215.894 280.687 215.966 281.926 217.625L282.276 218.096C283.797 220.143 286.627 223.955 289.668 226.572C292.918 229.368 297.367 231.965 297.411 231.991Z" fill="black"/>
<path fill-rule="evenodd" clip-rule="evenodd" d="M312.779 234.791L313.154 234.199C313.047 234.13 310.503 232.516 308.582 232.275C306.865 232.059 305.536 230.75 305.523 230.737L305.029 231.233C305.09 231.294 306.535 232.725 308.496 232.971C310.259 233.193 312.754 234.775 312.779 234.791Z" fill="black"/>
<path fill-rule="evenodd" clip-rule="evenodd" d="M315.88 255.904C315.88 255.904 318.443 257.776 322.871 266.901C327.299 276.026 343.378 315.1 343.378 315.1L354.842 274.479C354.842 274.479 332.33 243.043 322.474 234.265C312.617 225.487 315.88 255.904 315.88 255.904Z" fill="#ECAFA3"/>
<path fill-rule="evenodd" clip-rule="evenodd" d="M575.321 234.92C575.321 234.92 572.406 230.063 583.297 219.6C589.043 214.079 593.392 201.323 596.582 203.518C599.772 205.713 593.141 220.735 593.141 220.735C593.141 220.735 600.099 214.416 604.212 207.453C608.325 200.491 612.149 194.831 612.149 194.831C612.149 194.831 615.412 192.728 615.634 196.04C615.856 199.352 614.932 200.406 614.932 200.406C614.932 200.406 617.439 199.815 617.488 202.352C617.537 204.889 617.076 205.416 617.076 205.416C617.076 205.416 618.96 205.211 619.003 207.431C619.046 209.65 617.815 211.056 617.815 211.056C617.815 211.056 619.237 211.377 618.03 214.051C616.823 216.725 610.013 230.655 605.223 235.149C600.432 239.643 587.928 247.315 587.928 247.315C587.928 247.315 574.219 238.741 575.321 234.92Z" fill="#ECAFA3"/>
<path fill-rule="evenodd" clip-rule="evenodd" d="M604.495 225.721C604.65 225.609 608.316 222.907 612.217 216.593C615.722 210.921 617.041 211.29 617.055 211.296C617.054 211.296 617.042 211.292 617.02 211.277L617.402 210.689C617.342 210.65 617.116 210.53 616.71 210.621C615.849 210.813 614.269 211.941 611.623 216.223C607.794 222.42 604.122 225.126 604.086 225.152L604.495 225.721Z" fill="black"/>
<path fill-rule="evenodd" clip-rule="evenodd" d="M602.577 222.64C602.587 222.631 603.604 221.684 606.375 219.209C608.344 217.449 610.771 213.524 612.542 210.658C613.339 209.368 614.028 208.254 614.482 207.646C615.833 205.84 617.109 205.737 617.122 205.736L617.092 205.035C617.027 205.038 615.492 205.127 613.923 207.225C613.45 207.857 612.754 208.984 611.948 210.288C610.199 213.117 607.804 216.993 605.91 218.685C603.132 221.166 602.111 222.116 602.101 222.125L602.577 222.64Z" fill="black"/>
<path fill-rule="evenodd" clip-rule="evenodd" d="M601.083 220.089C601.122 220.055 604.941 216.592 607.545 213.183C609.983 209.992 611.969 205.675 613.036 203.357L613.282 202.824C614.153 200.944 614.936 200.704 614.943 200.702L614.788 200.018C614.677 200.041 613.675 200.311 612.648 202.528L612.401 203.062C611.346 205.356 609.381 209.626 606.991 212.755C604.425 216.115 600.654 219.534 600.616 219.568L601.083 220.089Z" fill="black"/>
<path fill-rule="evenodd" clip-rule="evenodd" d="M586.622 226.014C586.643 225.993 588.759 223.928 590.439 223.346C592.307 222.699 593.427 220.999 593.474 220.927L592.888 220.543C592.878 220.559 591.847 222.116 590.211 222.682C588.382 223.316 586.224 225.423 586.133 225.512L586.622 226.014Z" fill="black"/>
<path fill-rule="evenodd" clip-rule="evenodd" d="M587.928 247.315C587.928 247.315 585.805 249.678 583.349 259.524C580.892 269.37 573.191 310.936 573.191 310.936L553.624 273.565C553.624 273.565 569.189 238.14 577.028 227.508C584.868 216.877 587.928 247.315 587.928 247.315Z" fill="#ECAFA3"/>
<mask id="mask1_2_351" style="mask-type:alpha" maskUnits="userSpaceOnUse" x="337" y="237" width="246" height="162">
<path fill-rule="evenodd" clip-rule="evenodd" d="M582.045 237.003H337.552V398.472H582.045V237.003Z" fill="white"/>
</mask>
<g mask="url(#mask1_2_351)">
<path fill-rule="evenodd" clip-rule="evenodd" d="M472.714 238.121C472.714 238.121 502.193 244.968 514.603 266.113C527.012 287.257 536.101 290.299 536.101 290.299C536.101 290.299 545.655 265.731 550.782 266.667C555.909 267.603 583.174 310.421 582.009 314.398C580.844 318.376 558.549 373.716 534.508 363.478C510.466 353.239 504.174 335.457 502.776 339.434C501.378 343.412 508.136 393.483 502.31 394.887C496.484 396.291 463.343 398.954 433.098 398.397C407.697 397.929 392.316 399.099 391.151 388.336C389.986 377.573 393.947 340.136 393.947 340.136C393.947 340.136 381.13 356.047 369.944 350.899C358.759 345.752 337.552 328.671 337.552 328.671L353.865 271.346L369.711 286.555C369.711 286.555 387.422 256.84 397.909 251.224C408.396 245.609 428.789 237.003 428.789 237.003C428.789 237.003 440.555 247.247 445.682 254.5C450.809 261.753 452.207 265.497 452.207 265.497C452.207 265.497 463.626 243.503 472.714 238.121Z" fill="#F9C818"/>
</g>
<path fill-rule="evenodd" clip-rule="evenodd" d="M494.387 305.039L479.705 323.758C479.705 323.758 477.608 315.568 481.803 309.017C485.997 302.466 494.387 305.039 494.387 305.039Z" fill="#FFE89D"/>
<path fill-rule="evenodd" clip-rule="evenodd" d="M422.378 252.394L407.697 271.112C407.697 271.112 405.599 262.923 409.794 256.372C413.989 249.82 422.378 252.394 422.378 252.394Z" fill="#FFE89D"/>
<path fill-rule="evenodd" clip-rule="evenodd" d="M488.794 370.787L474.112 389.506C474.112 389.506 472.015 381.316 476.21 374.765C480.404 368.214 488.794 370.787 488.794 370.787Z" fill="#FFE89D"/>
<path fill-rule="evenodd" clip-rule="evenodd" d="M423.776 334.287L409.095 353.005C409.095 353.005 406.998 344.816 411.192 338.264C415.387 331.713 423.776 334.287 423.776 334.287Z" fill="#FFE89D"/>
<path fill-rule="evenodd" clip-rule="evenodd" d="M450.362 373.548L434.538 355.794C434.538 355.794 442.934 355.135 448.635 360.416C454.337 365.696 450.362 373.548 450.362 373.548Z" fill="#FFE89D"/>
<path fill-rule="evenodd" clip-rule="evenodd" d="M458.985 326.05L443.16 308.296C443.16 308.296 451.556 307.638 457.258 312.918C462.96 318.198 458.985 326.05 458.985 326.05Z" fill="#FFE89D"/>
<path fill-rule="evenodd" clip-rule="evenodd" d="M425.367 293.398L430.997 316.543C430.997 316.543 423.282 313.153 420.73 305.798C418.178 298.444 425.367 293.398 425.367 293.398Z" fill="#FFE89D"/>
<path fill-rule="evenodd" clip-rule="evenodd" d="M392.276 277.019L397.906 300.165C397.906 300.165 390.191 296.775 387.638 289.42C385.086 282.065 392.276 277.019 392.276 277.019Z" fill="#FFE89D"/>
<path fill-rule="evenodd" clip-rule="evenodd" d="M493.175 350.818L469.93 346.028C469.93 346.028 476.282 340.476 483.995 341.305C491.708 342.135 493.175 350.818 493.175 350.818Z" fill="#FFE89D"/>
<path fill-rule="evenodd" clip-rule="evenodd" d="M511.22 320.967L534.517 316.438C534.517 316.438 530.773 324.012 523.333 326.216C515.893 328.421 511.22 320.967 511.22 320.967Z" fill="#FFE89D"/>
<path fill-rule="evenodd" clip-rule="evenodd" d="M561.261 297.642L573.29 318.18C573.29 318.18 564.929 317.164 560.376 310.859C555.823 304.553 561.261 297.642 561.261 297.642Z" fill="#FFE89D"/>
<path fill-rule="evenodd" clip-rule="evenodd" d="M556.34 343.098L536.413 356.036C536.413 356.036 537.069 347.606 543.151 342.771C549.232 337.936 556.34 343.098 556.34 343.098Z" fill="#FFE89D"/>
<path fill-rule="evenodd" clip-rule="evenodd" d="M492.761 274.417L475.602 257.959C475.602 257.959 483.921 256.643 490.017 261.46C496.112 266.277 492.761 274.417 492.761 274.417Z" fill="#FFE89D"/>
<path fill-rule="evenodd" clip-rule="evenodd" d="M525.242 293.84L503.01 285.509C503.01 285.509 510.139 281.006 517.632 283.02C525.125 285.033 525.242 293.84 525.242 293.84Z" fill="#FFE89D"/>
<path fill-rule="evenodd" clip-rule="evenodd" d="M452.534 285.416L430.302 277.085C430.302 277.085 437.431 272.583 444.924 274.596C452.417 276.609 452.534 285.416 452.534 285.416Z" fill="#FFE89D"/>
<path fill-rule="evenodd" clip-rule="evenodd" d="M390.313 327.065L368.081 318.734C368.081 318.734 375.21 314.231 382.703 316.245C390.196 318.258 390.313 327.065 390.313 327.065Z" fill="#FFE89D"/>
<path fill-rule="evenodd" clip-rule="evenodd" d="M427.832 390.239L405.6 381.908C405.6 381.908 412.729 377.405 420.222 379.419C427.715 381.432 427.832 390.239 427.832 390.239Z" fill="#FFE89D"/>
<path fill-rule="evenodd" clip-rule="evenodd" d="M446.528 216.535C446.528 216.535 442.765 222.385 437.651 219.002L446.528 216.535Z" fill="black"/>
<path fill-rule="evenodd" clip-rule="evenodd" d="M426.107 201.5C426.107 202.275 426.733 202.904 427.506 202.904C428.278 202.904 428.904 202.275 428.904 201.5C428.904 200.725 428.278 200.096 427.506 200.096C426.733 200.096 426.107 200.725 426.107 201.5Z" fill="black"/>
<path fill-rule="evenodd" clip-rule="evenodd" d="M455.178 192.181C455.178 192.181 451.622 190.026 448.91 189.536C447.236 189.234 437.99 190.544 438.285 192.437C438.572 194.281 439.484 194.033 443.134 193.403C446.783 192.773 448.45 192.353 450.56 192.582C452.67 192.811 455.121 193.269 455.178 192.181Z" fill="black"/>
<path fill-rule="evenodd" clip-rule="evenodd" d="M417.877 194.988C417.877 194.988 418.486 193.116 419.489 192.216C420.491 191.317 428.038 189.375 429.315 190.576C431.342 192.484 429.885 193.168 425.814 193.592C422.54 193.933 421.247 194.047 419.73 194.708C417.657 195.613 417.922 195.336 417.877 194.988Z" fill="black"/>
<path d="M432.821 193.357L431.933 193.643L432.02 193.922C432.09 194.15 432.168 194.411 432.252 194.699C432.491 195.526 432.731 196.413 432.954 197.326C433.203 198.341 433.416 199.326 433.583 200.255L433.631 200.53C434.036 202.895 434.093 204.7 433.731 205.67L433.71 205.726C431.641 210.864 434.451 213.47 440.347 211.646L440.527 211.589L440.243 210.698C434.931 212.404 432.801 210.481 434.574 206.076C435.062 204.864 434.987 202.806 434.5 200.089C434.33 199.139 434.113 198.136 433.86 197.103C433.658 196.279 433.443 195.476 433.228 194.719L433.147 194.438C433.098 194.27 433.051 194.112 433.007 193.963L432.893 193.588L432.821 193.357Z" fill="black"/>
<path d="M455.834 229.16L455.378 228.344L455.212 228.435L455.059 228.516C454.828 228.639 454.565 228.773 454.273 228.918L454.145 228.98C453.162 229.461 452.074 229.943 450.914 230.392C448.246 231.425 445.61 232.13 443.157 232.358C442.046 232.462 440.993 232.464 440.006 232.358L439.81 232.335L439.696 233.264C440.809 233.402 441.994 233.407 443.244 233.29C445.792 233.052 448.508 232.326 451.249 231.265C452.435 230.806 453.547 230.314 454.554 229.822L454.934 229.633C455.096 229.551 455.248 229.473 455.389 229.399L455.653 229.259L455.834 229.16Z" fill="black"/>
<path fill-rule="evenodd" clip-rule="evenodd" d="M445.455 196.834C445.455 197.61 446.081 198.238 446.854 198.238C447.626 198.238 448.252 197.61 448.252 196.834C448.252 196.059 447.626 195.431 446.854 195.431C446.081 195.431 445.455 196.059 445.455 196.834Z" fill="black"/>
<mask id="mask2_2_351" style="mask-type:alpha" maskUnits="userSpaceOnUse" x="413" y="116" width="51" height="36">
<path fill-rule="evenodd" clip-rule="evenodd" d="M463.491 116.023H413.25V151.725H463.491V116.023Z" fill="white"/>
</mask>
<g mask="url(#mask2_2_351)">
<path fill-rule="evenodd" clip-rule="evenodd" d="M422.095 151.271C422.095 151.271 423.042 149.065 417.881 148.824C412.719 148.583 410.678 137.977 418.121 133.276C425.563 128.576 417.521 123.634 428.925 117.729C440.328 111.823 445.97 123.152 445.97 123.152C445.97 123.152 457.974 118.452 462.175 128.094C466.377 137.735 459.175 141.592 459.175 141.592C459.175 141.592 463.976 144.846 460.135 148.824C456.294 152.801 445.928 148.381 444.208 150.531C442.489 152.681 422.095 151.271 422.095 151.271Z" fill="#0F0F0F"/>
</g>
<path fill-rule="evenodd" clip-rule="evenodd" d="M456.612 153.48C456.612 153.48 452.979 146.76 444.336 146.133C435.693 145.505 431.816 148.587 430.814 153.48C429.812 158.373 456.612 153.48 456.612 153.48Z" fill="white"/>
<mask id="mask3_2_351" style="mask-type:alpha" maskUnits="userSpaceOnUse" x="416" y="150" width="59" height="53">
<path fill-rule="evenodd" clip-rule="evenodd" d="M474.987 150.723H416.607V202.501H474.987V150.723Z" fill="white"/>
</mask>
<g mask="url(#mask3_2_351)">
<path fill-rule="evenodd" clip-rule="evenodd" d="M469.785 197.274C470.025 196.23 469.384 194.985 467.864 193.538C465.583 191.369 466.424 181.365 461.022 179.557C455.62 177.75 446.617 168.469 442.416 168.469C438.214 168.469 431.012 172.326 428.131 172.085C425.25 171.844 421.409 177.629 421.169 180.642C420.929 183.655 416.994 189.046 419.441 202.501C419.441 202.501 416.607 197.998 416.607 192.695C416.607 187.391 417.327 186.186 416.967 178.593C416.607 171 417.447 163.166 422.969 159.551C428.491 155.935 431.972 149.306 440.495 150.993C449.018 152.681 455.62 150.632 460.662 156.055C464.37 160.045 469.905 162.805 471.105 171C472.223 178.636 478.398 182.166 472.411 190.383C472.411 190.383 469.785 194.623 469.785 197.274Z" fill="#0F0F0F"/>
</g>
<path fill-rule="evenodd" clip-rule="evenodd" d="M455.994 152.932C455.994 152.932 454.404 146.32 443.917 145.618C433.431 144.916 431.389 149.452 430.895 153.151C430.895 153.151 435.203 150.257 440.725 151.448C446.248 152.638 452.456 151.823 455.994 152.932Z" fill="#56ACF6"/>
<path fill-rule="evenodd" clip-rule="evenodd" d="M427.264 222.934C427.264 222.934 428.43 219.649 432.238 215.405C434.337 213.066 445.723 207.477 450.335 211.929C454.946 216.382 457.463 217.267 456.669 217.399C448.902 218.685 447.309 215.196 443.714 215.385C439.697 215.596 437.444 215.158 437.444 215.158C436.396 216.842 435.243 218.07 432.657 220.349C431.798 221.107 427.859 224.776 427.264 222.934Z" fill="#0F0F0F"/>
<path fill-rule="evenodd" clip-rule="evenodd" d="M558.071 450.083C555.335 465.877 529.002 636.188 529.002 636.188C529.002 636.188 529.596 640.489 533.88 641.121C538.164 641.754 540.432 637.832 540.432 637.832L577.57 454.221L558.071 450.083Z" fill="#DDB0C8"/>
<path fill-rule="evenodd" clip-rule="evenodd" d="M644.49 454.116C647.38 469.883 681.516 638.791 681.516 638.791C681.516 638.791 683.559 642.619 687.795 641.72C692.032 640.821 692.804 636.353 692.804 636.353L664.208 451.207L644.49 454.116Z" fill="#DDB0C8"/>
<path fill-rule="evenodd" clip-rule="evenodd" d="M687.775 453.602C690.665 469.369 724.801 638.277 724.801 638.277C724.801 638.277 726.844 642.104 731.08 641.206C735.317 640.307 736.089 635.839 736.089 635.839L707.493 450.693L687.775 453.602Z" fill="#DDB0C8"/>
<path fill-rule="evenodd" clip-rule="evenodd" d="M710.785 457.293H552.806C546.822 457.293 541.971 452.423 541.971 446.415C541.971 440.407 546.822 435.536 552.806 435.536H710.785C716.769 435.536 721.619 440.407 721.619 446.415C721.619 452.423 716.769 457.293 710.785 457.293Z" fill="#EECCDC"/>
<path fill-rule="evenodd" clip-rule="evenodd" d="M528.313 615.803L511.863 631.473L486.776 629.423L488.788 622.777L519.513 612.638L528.313 615.803Z" fill="#56ACF6"/>
<path fill-rule="evenodd" clip-rule="evenodd" d="M538.293 522.483C538.454 524.734 532.203 569.892 532.203 569.892C532.203 569.892 524.276 570.624 508.422 572.089L502.579 519.967L538.293 522.483Z" fill="#F6CBC3"/>
<path fill-rule="evenodd" clip-rule="evenodd" d="M535.561 594.689C535.506 593.922 532.928 568.65 532.928 568.65C532.928 568.65 533.616 567.52 533.407 564.604C533.198 561.688 531.317 559.045 519.006 561.006C506.694 562.968 506.039 564.557 506.127 565.785C506.215 567.013 507.8 569.831 507.943 571.827C508.086 573.822 508.401 593.239 508.401 593.239L535.561 594.689Z" fill="#E4F9FF"/>
<path fill-rule="evenodd" clip-rule="evenodd" d="M535.846 593.705L538.099 613.91L521.82 610.81L506.451 617.123L483.095 625.667L463.586 623.627L464.406 618.592C464.406 618.592 481.93 609.399 486.116 606.848C490.302 604.297 491.977 599.854 491.977 599.854L498.558 590.309C498.558 590.309 505.584 580.125 511.196 579.249C516.808 578.372 521.607 579.358 520.539 581.617C519.472 583.877 516.825 587.863 516.825 587.863L527.081 585.8L532.891 592.977L534.431 594.67L533.812 595.862" fill="#F4F0F1"/>
<path fill-rule="evenodd" clip-rule="evenodd" d="M534.271 596.647C534.271 596.647 534.482 598.454 528.75 600.274C523.017 602.093 516.862 604.937 515.98 601.851C515.098 598.765 516.529 595.679 516.529 595.679L511.272 599.535C511.272 599.535 508.85 603.77 511.622 607.881C514.394 611.992 521.343 612.157 521.343 612.157L524.288 609.46C524.288 609.46 533.493 604.244 535.464 600.622C537.434 597 534.271 596.647 534.271 596.647Z" fill="#F9C818"/>
<mask id="mask4_2_351" style="mask-type:alpha" maskUnits="userSpaceOnUse" x="458" y="582" width="94" height="63">
<path fill-rule="evenodd" clip-rule="evenodd" d="M551.446 588.9L462.51 582.617L458.645 638.463L547.582 644.747L551.446 588.9Z" fill="white"/>
</mask>
<g mask="url(#mask4_2_351)">
<path fill-rule="evenodd" clip-rule="evenodd" d="M536.253 589.281C536.253 589.281 542.989 605.281 542.398 605.052C541.807 604.823 538.02 596.997 537.862 599.991C537.705 602.986 539.668 606.819 539.263 610.148C539.263 610.148 536.193 618.187 534.344 618.319C532.495 618.452 523.68 616.142 523.68 616.142C523.68 616.142 519.659 610.905 511.33 616.38C503.001 621.854 492.249 627.43 492.249 627.43C492.249 627.43 493.558 628.532 493.609 629.557C493.659 630.582 493.006 631.978 493.006 631.978L525.595 627.271L543.135 615.357L545.307 615.588C545.307 615.588 547.32 616.834 547.502 620.451C547.685 624.068 547.521 625.006 548.063 626.126C548.605 627.246 549.995 629.464 545.762 630.539C541.529 631.614 509.749 639.218 495.748 640.375C481.746 641.531 467.376 637.539 463.486 633.725C459.595 629.909 458.992 626.863 459.861 623.943C460.729 621.023 462.448 617.504 466.465 618.173C470.481 618.843 472.775 619.512 479.362 617.404C485.949 615.296 488.551 615.543 488.32 617.041C488.089 618.54 483.238 619.968 483.238 619.968C483.238 619.968 476.727 621.422 476.773 622.067C476.82 622.712 477.045 623.282 482.951 622.829C488.856 622.375 495.931 621.082 505.213 615.416C514.495 609.75 517.248 607.53 523.345 608.217C529.442 608.905 534.908 611.718 536.446 607.392C537.984 603.067 533.777 597.332 533.809 595.866C533.841 594.4 535.842 593.708 535.842 593.708L536.237 587.81" fill="#15023F"/>
<path fill-rule="evenodd" clip-rule="evenodd" d="M535.417 585.596C535.417 585.596 535.64 585.889 536.241 587.795C536.841 589.7 537.051 595.573 535.011 595.38C532.971 595.187 531.374 591.151 529.564 588.866C527.754 586.581 525.471 585.94 523.521 587.011C521.572 588.082 514.041 587.613 514.041 587.613C514.041 587.613 516.057 584.174 522.747 584.111C522.747 584.111 527.475 582.541 530.239 586.853C533.002 591.166 534.685 595.451 534.887 591.824C535.061 588.701 534.08 586.789 534.288 585.686C534.496 584.584 535.417 585.596 535.417 585.596Z" fill="#451989"/>
<path fill-rule="evenodd" clip-rule="evenodd" d="M484.144 607.694C484.144 607.694 487.711 608.224 498.072 607.248C508.432 606.27 506.134 601.555 510.358 600.307C514.582 599.063 515.038 598.871 517.345 594.928C519.649 590.985 525.475 594.583 528.249 593.913C531.026 593.241 522.712 585.572 522.712 585.572C522.712 585.572 518.216 584.358 514.041 587.621C512.866 588.54 510.494 591.831 509.776 592.602C509.06 593.373 504.703 594.958 500.83 599.831C496.957 604.706 491.505 603.324 490.421 603.622C489.34 603.922 498.672 590.904 498.672 590.904L498.654 589.609C498.654 589.609 492.826 598.214 489.974 602.048C487.12 605.882 484.77 606.836 484.344 607.061C483.921 607.288 484.144 607.694 484.144 607.694Z" fill="#E263AB"/>
<path fill-rule="evenodd" clip-rule="evenodd" d="M539.667 597.201C539.667 597.201 546.345 612.456 545.972 615.955C545.598 619.453 538.121 617.2 534.972 623.913C531.823 630.627 527.117 633.568 507.181 637.05C487.245 640.531 470.422 633.026 470.339 631.858C470.255 630.689 470.386 628.429 470.386 628.429C470.386 628.429 499.099 633.127 511.001 625.033C522.903 616.94 523.31 614.464 527.781 615.612C532.251 616.76 534.877 615.3 538.285 611.142C538.285 611.142 538.623 609.062 537.36 603.673C536.096 598.283 537.2 590.592 539.667 597.201Z" fill="white"/>
<path fill-rule="evenodd" clip-rule="evenodd" d="M522.471 584.774C522.471 584.774 524.906 582.116 520.875 579.243C516.844 576.371 509.646 578.504 507.486 580.804C507.486 580.804 511.616 578.777 516.755 579.313C521.893 579.848 520.687 581.327 518.324 584.996L522.97 584.4" fill="#451989"/>
<path fill-rule="evenodd" clip-rule="evenodd" d="M515.599 587.751C515.047 588.633 515.519 589.926 516.651 590.64C517.783 591.354 519.149 591.218 519.7 590.336C520.252 589.455 519.781 588.161 518.648 587.447C517.516 586.733 516.151 586.869 515.599 587.751Z" fill="#1F003C"/>
<path fill-rule="evenodd" clip-rule="evenodd" d="M519.023 589.386C519.023 589.386 518.755 587.5 515.133 586.255C511.511 585.009 504.668 582.991 501.039 585.825C497.409 588.66 497.734 589.94 497.734 589.94C497.734 589.94 500.386 588.346 502.437 587.664C504.488 586.983 507.268 586.717 510.039 587.254C512.811 587.792 515.575 588.697 516.468 589.068C517.361 589.439 518.191 591.252 519.023 589.386Z" fill="#E8D9F3"/>
<path fill-rule="evenodd" clip-rule="evenodd" d="M510.742 591.814C510.191 592.696 510.662 593.99 511.794 594.703C512.927 595.417 514.292 595.281 514.843 594.4C515.395 593.518 514.924 592.224 513.792 591.51C512.659 590.797 511.294 590.933 510.742 591.814Z" fill="#1F003C"/>
<path fill-rule="evenodd" clip-rule="evenodd" d="M514.166 593.45C514.166 593.45 513.903 591.563 510.419 590.308C506.934 589.052 500.351 587.016 496.87 589.839C493.389 592.663 493.705 593.944 493.705 593.944C493.705 593.944 496.25 592.358 498.219 591.682C500.188 591.006 502.86 590.748 505.525 591.293C508.19 591.838 510.85 592.751 511.709 593.124C512.569 593.497 513.371 595.312 514.166 593.45Z" fill="#E8D9F3"/>
<path fill-rule="evenodd" clip-rule="evenodd" d="M505.377 595.511C504.825 596.392 505.296 597.686 506.429 598.4C507.561 599.113 508.926 598.977 509.478 598.096C510.029 597.214 509.559 595.92 508.426 595.207C507.293 594.493 505.928 594.629 505.377 595.511Z" fill="#1F003C"/>
<path fill-rule="evenodd" clip-rule="evenodd" d="M508.807 597.224C508.807 597.224 508.583 595.528 505.806 594.375C503.03 593.222 496.012 591.696 493.269 594.205C490.526 596.714 492.219 598.443 492.219 598.443C492.219 598.443 494.57 596.11 496.129 595.518C497.688 594.926 499.807 594.714 501.928 595.223C504.048 595.732 506.167 596.572 506.853 596.913C507.538 597.255 508.189 598.89 508.807 597.224Z" fill="#E8D9F3"/>
</g>
<path fill-rule="evenodd" clip-rule="evenodd" d="M715.207 384.632C715.207 384.632 716.647 428.516 708.858 425.915C708.858 425.915 666.446 430.141 656.085 431.766C650.873 432.584 640.904 438.848 609.706 444.073C578.508 449.299 548.763 454.686 548.763 456.786C548.763 461.012 541.967 491.84 540.348 529.548C540.348 529.548 530.635 541.25 501.497 530.848C501.497 530.848 499.385 457.122 513.954 428.516C541.774 391.458 629.956 384.632 629.956 384.632H715.207Z" fill="#165C5D"/>
<path fill-rule="evenodd" clip-rule="evenodd" d="M631.277 517.883C631.277 520.14 628.492 577.874 628.492 577.874L605.787 579.969L593.236 514.723L631.277 517.883Z" fill="#F6CBC3"/>
<path fill-rule="evenodd" clip-rule="evenodd" d="M623.967 590.542L608.644 607.339L583.48 607.057L585.026 600.281L614.97 588.002L623.967 590.542Z" fill="#56ACF6"/>
<path fill-rule="evenodd" clip-rule="evenodd" d="M623.905 617.046L608.582 633.843L583.418 633.561L584.964 626.786L614.908 614.506L623.905 617.046Z" fill="#56ACF6"/>
<path fill-rule="evenodd" clip-rule="evenodd" d="M630.623 599.024C630.623 598.254 629.857 572.858 629.857 572.858C629.857 572.858 630.623 571.78 630.623 568.856C630.623 565.931 628.937 563.16 616.519 564.238C604.102 565.315 603.335 566.855 603.335 568.086C603.335 569.317 604.715 572.242 604.715 574.243C604.715 576.244 603.642 595.638 603.642 595.638L630.623 599.024Z" fill="#E4F9FF"/>
<path fill-rule="evenodd" clip-rule="evenodd" d="M630.983 598.05L631.787 618.372L615.773 614.115L599.995 619.318L576.091 626.175L556.78 622.746L557.958 617.78C557.958 617.78 576.091 609.86 580.448 607.613C584.805 605.367 586.794 601.053 586.794 601.053L594.038 591.999C594.038 591.999 601.773 582.339 607.432 581.866C613.091 581.392 617.808 582.718 616.581 584.896C615.355 587.075 612.431 590.863 612.431 590.863L622.807 589.537L628.089 597.113L629.504 598.913L628.802 600.058" fill="#F4F0F1"/>
<path fill-rule="evenodd" clip-rule="evenodd" d="M629.205 600.879C629.205 600.879 629.288 602.697 623.44 604.103C617.593 605.509 611.251 607.907 610.592 604.765C609.934 601.623 611.581 598.646 611.581 598.646L606.063 602.119C606.063 602.119 603.345 606.171 605.816 610.47C608.286 614.771 615.204 615.432 615.204 615.432L618.334 612.951C618.334 612.951 627.888 608.403 630.111 604.93C632.335 601.457 629.205 600.879 629.205 600.879Z" fill="#F9C818"/>
<path fill-rule="evenodd" clip-rule="evenodd" d="M631.71 593.662C631.71 593.662 637.284 610.108 636.711 609.837C636.138 609.567 632.92 601.486 632.55 604.464C632.179 607.441 633.862 611.405 633.221 614.698C633.221 614.698 629.585 622.5 627.731 622.5C625.878 622.5 617.251 619.566 617.251 619.566C617.251 619.566 613.615 614.054 604.917 618.921C596.22 623.789 585.098 628.585 585.098 628.585C585.098 628.585 586.325 629.778 586.302 630.804C586.28 631.831 585.529 633.177 585.529 633.177L618.366 630.808L636.711 620.172L638.86 620.558C638.86 620.558 640.779 621.945 640.702 625.567C640.625 629.189 640.395 630.114 640.856 631.27C641.316 632.426 642.544 634.738 638.246 635.509C633.948 636.279 601.71 641.597 587.663 641.751C573.617 641.905 559.57 636.896 555.963 632.811C552.355 628.727 551.971 625.644 553.046 622.793C554.121 619.941 556.086 616.552 560.044 617.507C564.003 618.462 566.242 619.294 572.962 617.661C579.682 616.028 582.26 616.459 581.922 617.938C581.585 619.417 576.644 620.495 576.644 620.495C576.644 620.495 570.047 621.481 570.047 622.128C570.047 622.775 570.231 623.36 576.154 623.33C582.076 623.299 589.224 622.514 598.886 617.523C608.548 612.532 611.452 610.514 617.484 611.635C623.515 612.757 628.765 615.953 630.608 611.748C632.451 607.542 628.665 601.519 628.802 600.058C628.938 598.598 630.983 598.05 630.983 598.05L631.799 592.193" fill="#15023F"/>
<path fill-rule="evenodd" clip-rule="evenodd" d="M631.135 589.939C631.135 589.939 631.336 590.249 631.799 592.193C632.262 594.137 632.052 600.013 630.031 599.674C628.01 599.336 626.705 595.194 625.063 592.785C623.421 590.375 621.19 589.572 619.169 590.502C617.149 591.432 609.67 590.426 609.67 590.426C609.67 590.426 611.928 587.138 618.604 587.553C618.604 587.553 623.432 586.324 625.88 590.824C628.328 595.326 629.7 599.722 630.161 596.117C630.557 593.013 629.716 591.035 630.002 589.949C630.288 588.864 631.135 589.939 631.135 589.939Z" fill="#451989"/>
<path fill-rule="evenodd" clip-rule="evenodd" d="M578.42 608.32C578.42 608.32 581.939 609.104 592.342 608.87C602.744 608.634 600.789 603.765 605.091 602.822C609.393 601.881 609.861 601.722 612.444 597.953C615.023 594.183 620.577 598.189 623.392 597.719C626.209 597.246 618.465 589.001 618.465 589.001C618.465 589.001 614.068 587.468 609.671 590.426C608.433 591.258 605.832 594.373 605.061 595.091C604.292 595.809 599.834 597.08 595.623 601.666C591.412 606.254 586.073 604.485 584.971 604.705C583.871 604.927 594.108 592.604 594.108 592.604L594.183 591.31C594.183 591.31 587.756 599.481 584.637 603.102C581.517 606.725 579.105 607.508 578.665 607.702C578.227 607.899 578.42 608.32 578.42 608.32Z" fill="#E263AB"/>
<path fill-rule="evenodd" clip-rule="evenodd" d="M634.55 601.809C634.55 601.809 640.12 617.507 639.498 620.971C638.876 624.436 631.579 621.653 627.959 628.127C624.339 634.601 619.435 637.199 599.304 639.25C579.173 641.3 562.932 632.61 562.932 631.438C562.932 630.267 563.223 628.021 563.223 628.021C563.223 628.021 591.524 634.758 603.972 627.532C616.42 620.307 617.004 617.866 621.38 619.33C625.757 620.795 628.48 619.526 632.175 615.62C632.175 615.62 632.661 613.569 631.786 608.101C630.911 602.633 632.562 595.038 634.55 601.809Z" fill="white"/>
<path fill-rule="evenodd" clip-rule="evenodd" d="M618.279 588.196C618.279 588.196 620.897 585.717 617.082 582.563C613.266 579.408 605.935 581.023 603.616 583.164C603.616 583.164 607.88 581.436 612.967 582.337C618.054 583.239 616.745 584.628 614.127 588.121L618.802 587.858" fill="#451989"/>
<path fill-rule="evenodd" clip-rule="evenodd" d="M611.215 590.673C610.601 591.513 610.979 592.838 612.057 593.631C613.136 594.424 614.507 594.386 615.12 593.545C615.733 592.705 615.356 591.381 614.277 590.588C613.199 589.795 611.827 589.833 611.215 590.673Z" fill="#1F003C"/>
<path fill-rule="evenodd" clip-rule="evenodd" d="M614.512 592.548C614.512 592.548 614.379 590.646 610.856 589.144C607.332 587.642 600.651 585.139 596.828 587.709C593.006 590.279 593.239 591.58 593.239 591.58C593.239 591.58 595.998 590.178 598.092 589.644C600.185 589.11 602.978 589.044 605.703 589.778C608.429 590.512 611.121 591.614 611.986 592.047C612.85 592.481 613.548 594.35 614.512 592.548Z" fill="#E8D9F3"/>
<path fill-rule="evenodd" clip-rule="evenodd" d="M606.081 594.378C605.468 595.218 605.845 596.542 606.924 597.335C608.002 598.128 609.373 598.09 609.986 597.25C610.599 596.41 610.222 595.085 609.144 594.292C608.065 593.499 606.694 593.537 606.081 594.378Z" fill="#1F003C"/>
<path fill-rule="evenodd" clip-rule="evenodd" d="M609.378 596.253C609.378 596.253 609.251 594.35 605.865 592.848C602.479 591.347 596.058 588.843 592.385 591.413C588.711 593.983 588.935 595.285 588.935 595.285C588.935 595.285 591.586 593.883 593.599 593.349C595.611 592.815 598.294 592.748 600.914 593.483C603.533 594.217 606.12 595.318 606.951 595.752C607.781 596.186 608.452 598.055 609.378 596.253Z" fill="#E8D9F3"/>
<path fill-rule="evenodd" clip-rule="evenodd" d="M600.466 597.68C599.853 598.52 600.231 599.844 601.309 600.637C602.387 601.43 603.759 601.392 604.372 600.552C604.985 599.712 604.607 598.387 603.529 597.594C602.45 596.801 601.079 596.839 600.466 597.68Z" fill="#1F003C"/>
<path fill-rule="evenodd" clip-rule="evenodd" d="M603.764 599.633C603.764 599.633 603.662 597.924 600.975 596.575C598.288 595.226 591.398 593.201 588.483 595.51C585.567 597.818 587.133 599.665 587.133 599.665C587.133 599.665 589.644 597.504 591.241 597.025C592.838 596.545 594.968 596.485 597.046 597.145C599.125 597.804 601.178 598.793 601.837 599.183C602.496 599.573 603.029 601.252 603.764 599.633Z" fill="#E8D9F3"/>
<path fill-rule="evenodd" clip-rule="evenodd" d="M692.854 444.073C661.656 449.299 631.911 454.686 631.911 456.785C631.911 461.012 634.437 491.84 632.818 529.548C632.818 529.548 623.105 541.25 593.967 530.848C593.967 530.848 582.533 457.121 597.102 428.515C624.922 391.458 713.104 384.631 713.104 384.631C720.403 420.775 713.653 440.589 692.854 444.073Z" fill="#165C5D"/>
<path d="M621.911 406.296C602.172 413.7 591.987 427.351 591.404 447.195L591.389 447.798L592.088 447.812C592.472 428.133 602.282 414.606 621.569 407.177L622.156 406.954L621.911 406.296Z" fill="black"/>
<path fill-rule="evenodd" clip-rule="evenodd" d="M673.546 213.125C673.546 213.125 674.406 232.113 685.438 238.815C695.447 244.897 674.241 280.185 651.43 278.08C638.942 276.928 636.016 242.643 636.016 242.643C636.016 242.643 646.099 240.687 642.374 225.249L673.546 213.125Z" fill="#F6CBC3"/>
<path fill-rule="evenodd" clip-rule="evenodd" d="M655.28 232.432C670.068 230.636 680.741 220.873 682.236 204.678C686.535 205.365 687.549 194.117 686.351 190.504C685.153 186.886 681.241 189.002 681.241 189.002C681.024 188.43 680.84 187.831 680.689 187.206C674.228 160.6 656.134 161.655 656.134 161.655C622.886 163.394 630.676 197.476 632.576 206.518C634.475 215.56 640.983 234.166 655.28 232.432Z" fill="#F6CBC3"/>
<path fill-rule="evenodd" clip-rule="evenodd" d="M759.72 307.245C772.625 330.15 775.437 347.273 768.156 358.612C757.236 375.622 741.744 353.145 735.377 328.041C731.132 311.305 724.621 297.94 715.843 287.947L759.72 307.245Z" fill="#F6CBC3"/>
<path fill-rule="evenodd" clip-rule="evenodd" d="M715.05 246.284C695.731 240.285 689.778 239.948 689.778 239.948L669.385 244.36C669.385 244.36 658.208 259.109 657.251 272.254C657.251 272.254 656.931 254.941 649.586 243.078C649.586 243.078 617.261 242.779 605.075 255.555C585.826 275.734 586.189 311.141 586.189 311.141L617.95 314.421L605.075 296.421C605.075 296.421 604.261 369.754 606.177 388.671C630.423 415.524 717.579 394.74 717.579 394.74C717.579 394.74 715.688 334.06 715.369 317.462C715.05 300.864 721.163 303.106 729.592 323.68C736.482 340.501 758.388 305.626 758.388 305.626C758.388 305.626 744.942 255.565 715.05 246.284Z" fill="#1BC0D7"/>
<path fill-rule="evenodd" clip-rule="evenodd" d="M616.431 337.677C616.431 337.677 600.748 332.031 584.801 335.365C584.801 335.365 585.007 330.138 584.844 323.237C584.709 317.569 581.618 308.796 592.774 309.741C605.758 310.841 611.323 310.956 616.969 313.52C616.969 313.52 618.313 332.279 616.431 337.677Z" fill="#FCEBEC"/>
<path fill-rule="evenodd" clip-rule="evenodd" d="M765.599 316.638L758.761 295.031C758.761 295.031 733.448 289.722 723.419 311.689L730.936 331.249C730.936 331.249 744.991 310.439 765.599 316.638Z" fill="#237978"/>
<mask id="mask5_2_351" style="mask-type:alpha" maskUnits="userSpaceOnUse" x="668" y="236" width="34" height="23">
<path fill-rule="evenodd" clip-rule="evenodd" d="M701.604 236.756H668.802V258.213H701.604V236.756Z" fill="white"/>
</mask>
<g mask="url(#mask5_2_351)">
<path fill-rule="evenodd" clip-rule="evenodd" d="M689.452 236.78C689.452 236.78 702.364 241.168 701.569 242.364C700.775 243.561 677.852 258.868 676.133 258.191C674.415 257.513 667.971 245.25 668.891 244.018C669.812 242.786 688.348 236.32 689.452 236.78Z" fill="#237978"/>
</g>
<path fill-rule="evenodd" clip-rule="evenodd" d="M628.883 242.114C628.883 242.114 617.769 250.038 618.873 250.956C619.976 251.873 646.311 259.929 647.763 258.784C649.215 257.639 651.882 244.036 650.648 243.121C649.414 242.206 629.809 241.355 628.883 242.114Z" fill="#237978"/>
<path fill-rule="evenodd" clip-rule="evenodd" d="M750.24 329.766C743.878 339.12 747.652 339.291 744.881 344.436C742.11 349.581 739.503 360.319 736.323 360.05C733.142 359.78 732.976 358.006 734.215 354.687C735.453 351.367 739.084 340.739 737.723 340.234C736.363 339.729 731.97 360.738 726.93 360.4C721.89 360.062 726.119 349.294 728.399 344.477C730.679 339.661 731.454 336.092 730.013 336.403C728.573 336.713 723.021 360.225 718.921 359.517C714.82 358.81 716.904 350.551 719.176 345.673C721.448 340.795 724.84 333.109 724.84 333.109C724.84 333.109 719.08 340.606 716.468 349.554C713.855 358.502 712.248 358.958 710.78 358.095C709.312 357.233 711.259 346.697 711.259 346.697C711.259 346.697 706.343 338.621 712.526 331.424C718.71 324.227 722.166 316.642 730.69 312.571C739.214 308.5 744.509 311.889 744.509 311.889C744.509 311.889 756.603 320.412 750.24 329.766Z" fill="#F6CBC3"/>
<path fill-rule="evenodd" clip-rule="evenodd" d="M625.998 285.773H647.163C648.025 285.773 648.723 285.072 648.723 284.207V282.366C648.723 281.502 648.025 280.8 647.163 280.8H625.998C625.137 280.8 624.439 281.502 624.439 282.366V284.207C624.439 285.072 625.137 285.773 625.998 285.773Z" fill="#237978"/>
<path fill-rule="evenodd" clip-rule="evenodd" d="M644.804 364.609L687.384 352.759C687.384 352.759 690.031 349.953 682.237 349.215C674.443 348.477 593.007 346.292 593.007 346.292L644.804 364.609Z" fill="#204EB2"/>
<path fill-rule="evenodd" clip-rule="evenodd" d="M524.085 364.481H643.513C645.726 364.481 647.519 362.68 647.519 360.459L636.678 281.494C636.678 279.273 634.884 277.472 632.672 277.472H513.243C511.031 277.472 509.238 279.273 509.238 281.494L520.079 360.459C520.079 362.68 521.873 364.481 524.085 364.481Z" fill="#3267C8"/>
<path fill-rule="evenodd" clip-rule="evenodd" d="M552.346 364.459C552.346 364.459 553.021 365.826 553.945 367.267C554.869 368.709 555.394 367.867 557.053 370.942C558.713 374.018 563.437 380.121 575.025 375.929C586.613 371.736 586.59 369.069 585.952 365.568C585.314 362.067 584.283 361.35 585.525 355.551C586.767 349.751 583.021 342.575 581.613 342.241L580.205 341.908C580.205 341.908 579.927 336.118 577.645 335.752C575.363 335.386 575.11 336.95 575.11 336.95C575.11 336.95 574.415 335.583 572.327 335.788C570.24 335.992 569.362 339.884 568.527 344.424C567.692 348.963 566.35 360.936 565.671 361.474C564.992 362.012 564.38 361.559 564.889 358.812C565.397 356.065 568.725 345.375 565.753 344.404C562.782 343.433 561.175 346.454 559.29 352.677C557.406 358.9 556.693 359.934 556.784 361.609L556.214 364.462C553.636 364.46 552.346 364.459 552.346 364.459Z" fill="#F6CBC3"/>
<path fill-rule="evenodd" clip-rule="evenodd" d="M575.132 336.846C575.132 336.846 575.001 336.44 575.143 339.197C575.195 340.201 575.143 341.576 574.905 343.46C574.014 350.518 572.931 361.694 572.351 365.052C571.772 368.41 573.31 365.998 574.194 358.178C575.078 350.358 575.905 340.976 575.901 340.541C575.895 339.801 575.876 337.581 575.132 336.846Z" fill="black"/>
<path fill-rule="evenodd" clip-rule="evenodd" d="M580.059 353.458C579.85 356.523 579.39 361.602 579.348 362.14C579.274 363.101 579.068 364.963 579.068 364.963C579.068 364.963 579.716 365.151 580.331 359.449C580.484 358.035 580.888 355.45 580.947 353.748C581.002 352.182 581.345 346.576 580.995 345.701C580.645 344.827 580.111 344.526 580.111 344.526C580.111 344.526 580.256 350.57 580.059 353.458Z" fill="black"/>
<path fill-rule="evenodd" clip-rule="evenodd" d="M659.059 216.535C659.059 216.535 655.295 222.385 650.182 219.002L659.059 216.535Z" fill="black"/>
<path fill-rule="evenodd" clip-rule="evenodd" d="M638.638 201.5C638.638 202.275 639.264 202.904 640.036 202.904C640.809 202.904 641.435 202.275 641.435 201.5C641.435 200.725 640.809 200.096 640.036 200.096C639.264 200.096 638.638 200.725 638.638 201.5Z" fill="black"/>
<path fill-rule="evenodd" clip-rule="evenodd" d="M668.408 193.351C668.408 193.351 664.852 191.196 662.14 190.706C660.466 190.404 651.22 191.714 651.515 193.607C651.802 195.451 652.714 195.202 656.363 194.573C660.013 193.943 661.68 193.523 663.789 193.752C665.899 193.981 668.351 194.439 668.408 193.351Z" fill="black"/>
<path fill-rule="evenodd" clip-rule="evenodd" d="M630.407 196.921C630.407 196.921 631.017 195.049 632.019 194.149C633.022 193.25 640.569 191.308 641.845 192.509C643.873 194.417 642.416 195.101 638.345 195.525C635.071 195.866 633.778 195.98 632.26 196.642C630.187 197.546 630.453 197.269 630.407 196.921Z" fill="black"/>
<path d="M645.352 193.357L644.464 193.643L644.551 193.922C644.621 194.15 644.698 194.411 644.782 194.699C645.022 195.526 645.262 196.413 645.485 197.326C645.734 198.341 645.947 199.326 646.113 200.255L646.162 200.531C646.567 202.895 646.624 204.7 646.262 205.67L646.241 205.726C644.172 210.864 646.981 213.47 652.878 211.646L653.058 211.589L652.774 210.698C647.462 212.404 645.331 210.481 647.105 206.076C647.593 204.864 647.518 202.806 647.031 200.089C646.86 199.139 646.643 198.136 646.39 197.103C646.189 196.279 645.974 195.476 645.758 194.719L645.677 194.438C645.629 194.27 645.582 194.112 645.538 193.963L645.424 193.588L645.352 193.357Z" fill="black"/>
<path d="M668.365 229.16L667.909 228.344L667.743 228.435L667.59 228.516C667.359 228.639 667.096 228.773 666.803 228.918L666.676 228.98C665.692 229.461 664.605 229.943 663.444 230.392C660.777 231.425 658.141 232.13 655.688 232.358C654.577 232.462 653.523 232.464 652.537 232.358L652.34 232.335L652.227 233.264C653.339 233.402 654.525 233.407 655.774 233.29C658.323 233.052 661.038 232.326 663.78 231.265C664.966 230.806 666.078 230.314 667.084 229.822L667.465 229.633C667.627 229.551 667.779 229.473 667.92 229.399L668.184 229.259L668.365 229.16Z" fill="black"/>
<path fill-rule="evenodd" clip-rule="evenodd" d="M655.909 199.584C656.078 199.584 656.247 199.523 656.381 199.399C656.39 199.391 657.543 198.364 659.207 198.426C660.929 198.49 662.072 199.336 662.084 199.344C662.392 199.576 662.829 199.515 663.061 199.207C663.294 198.899 663.236 198.461 662.93 198.227C662.87 198.181 661.444 197.104 659.259 197.023C657.01 196.942 655.499 198.307 655.436 198.365C655.152 198.627 655.132 199.071 655.394 199.357C655.531 199.508 655.72 199.584 655.909 199.584Z" fill="black"/>
<path d="M660.431 187.968C665.347 187.968 669.332 191.969 669.332 196.905C669.332 201.84 665.347 205.842 660.431 205.842C655.515 205.842 651.529 201.84 651.529 196.905C651.529 191.969 655.515 187.968 660.431 187.968ZM660.431 190.073C656.673 190.073 653.627 193.132 653.627 196.905C653.627 200.677 656.673 203.736 660.431 203.736C664.188 203.736 667.235 200.677 667.235 196.905C667.235 193.132 664.188 190.073 660.431 190.073Z" fill="#E93737"/>
<path d="M638.544 190.099C643.46 190.099 647.445 194.1 647.445 199.036C647.445 203.971 643.46 207.973 638.544 207.973C633.628 207.973 629.642 203.971 629.642 199.036C629.642 194.1 633.628 190.099 638.544 190.099ZM638.544 192.204C634.786 192.204 631.74 195.263 631.74 199.036C631.74 202.808 634.786 205.867 638.544 205.867C642.301 205.867 645.348 202.808 645.348 199.036C645.348 195.263 642.301 192.204 638.544 192.204Z" fill="#E93737"/>
<path d="M681.142 190.501C680.933 189.977 680.352 189.714 679.826 189.897L679.779 189.915L668.127 194.594C667.589 194.81 667.327 195.423 667.543 195.963C667.751 196.487 668.332 196.75 668.858 196.567L668.906 196.549L680.558 191.87C681.095 191.654 681.357 191.041 681.142 190.501Z" fill="#E93737"/>
<path d="M653.763 197.346C653.701 196.785 653.21 196.376 652.654 196.412L652.605 196.416L646.495 197.099C645.919 197.163 645.504 197.684 645.569 198.262C645.631 198.823 646.122 199.232 646.678 199.196L646.727 199.192L652.837 198.509C653.413 198.445 653.827 197.924 653.763 197.346Z" fill="#E93737"/>
<path fill-rule="evenodd" clip-rule="evenodd" d="M639.794 222.934C639.794 222.934 640.961 219.649 644.769 215.405C646.868 213.066 658.254 207.477 662.865 211.929C667.476 216.382 669.994 217.267 669.199 217.399C661.433 218.685 659.84 215.196 656.245 215.385C652.228 215.596 649.974 215.158 649.974 215.158C648.926 216.842 647.773 218.07 645.188 220.349C644.329 221.107 640.389 224.776 639.794 222.934Z" fill="#711515"/>
<path fill-rule="evenodd" clip-rule="evenodd" d="M74.2136 312.942C74.2136 312.942 57.876 362.596 64.9408 421.56C72.0058 480.524 83.9278 600.227 83.9278 600.227H110.863C110.863 600.227 113.071 486.731 117.045 448.161C121.019 409.59 122.785 382.103 122.785 382.103L129.408 354.172L131.616 390.97C131.616 390.97 177.538 568.306 181.071 603.33L206.681 602.886C206.681 602.886 192.11 392.3 189.46 376.339C186.811 360.379 167.382 317.818 167.382 317.818L74.2136 312.942Z" fill="#7D4439"/>
<path fill-rule="evenodd" clip-rule="evenodd" d="M111.176 605.79H84.1384C82.7437 605.79 81.613 604.654 81.613 603.254V603.232C81.613 601.832 82.7437 600.697 84.1384 600.697H111.176C112.571 600.697 113.701 601.832 113.701 603.232V603.254C113.701 604.654 112.571 605.79 111.176 605.79Z" fill="#56ACF6"/>
<path fill-rule="evenodd" clip-rule="evenodd" d="M113.808 607.2C113.808 607.625 113.636 608.012 113.359 608.29C113.081 608.571 112.697 608.744 112.273 608.744H111.814V624.126H83.7023V608.744H83.2572C82.409 608.744 81.7215 608.051 81.7215 607.2C81.7215 606.774 81.8939 606.387 82.1713 606.109C82.4486 605.831 82.8331 605.657 83.2572 605.657H112.273C113.121 605.657 113.808 606.348 113.808 607.2Z" fill="#E4F9FF"/>
<path fill-rule="evenodd" clip-rule="evenodd" d="M69.8953 651.173C69.8953 651.173 69.3987 643.259 71.8193 642.387C74.2398 641.514 115.212 640.332 115.212 640.332L115.14 648.556C115.14 648.556 102.851 651.796 92.1763 652.17C81.5013 652.544 70.2057 651.672 69.8953 651.173Z" fill="#E4F9FF"/>
<path fill-rule="evenodd" clip-rule="evenodd" d="M115.213 640.333C115.22 640.785 115.224 641.042 115.224 641.042C115.224 641.042 107.163 642.771 100.275 643.48C93.3863 644.187 73.1143 645.05 71.7836 643.321C70.6837 641.891 79.2036 630.164 82.1958 626.133C81.5456 625.829 81.0935 625.164 81.0935 624.394C81.0935 623.865 81.3079 623.384 81.6528 623.037C81.9977 622.691 82.4778 622.476 83.0044 622.476H113.57C114.625 622.476 115.481 623.334 115.481 624.394C115.481 624.923 115.266 625.405 114.921 625.751C114.791 625.882 114.642 625.995 114.479 626.084C114.975 629.703 115.164 637.879 115.213 640.333Z" fill="#204EB2"/>
<path fill-rule="evenodd" clip-rule="evenodd" d="M74.273 637.798C74.273 637.798 69.6731 642.755 71.9765 643.555C74.2798 644.355 92.3519 645.067 98.996 644L105.64 642.932C105.64 642.932 106.152 639.997 102.157 637.035C99.3013 634.917 97.4426 632.001 94.785 631.467C92.1272 630.934 87.0004 630.649 84.6971 631.805C82.3939 632.961 78.4109 635.322 74.273 637.798Z" fill="#56ACF6"/>
<path fill-rule="evenodd" clip-rule="evenodd" d="M106.84 632.856C106.84 632.856 107.187 639.476 109.703 639.302C112.219 639.128 113.284 629.023 114.586 626.061C114.586 626.061 113.331 625.722 111.206 631.587C110.132 634.554 110.397 637.734 106.84 632.856Z" fill="white"/>
<path d="M82.5673 629.727C84.608 629.12 86.8795 628.776 89.3175 628.83C92.475 628.9 95.6639 629.637 98.8107 631.174C99.2737 631.4 99.4664 631.96 99.2412 632.425C99.016 632.89 98.4581 633.083 97.9952 632.857C95.0967 631.442 92.172 630.765 89.2766 630.702C87.0429 630.652 84.9614 630.967 83.0969 631.522C82.4936 631.701 81.9593 631.893 81.5011 632.083C81.3697 632.138 81.2533 632.189 81.1523 632.235L81.0243 632.295L80.9739 632.32C80.5165 632.557 79.9542 632.377 79.7181 631.918C79.482 631.458 79.6614 630.894 80.1189 630.657L80.214 630.609C80.3465 630.545 80.5391 630.457 80.7883 630.354C81.3049 630.139 81.9001 629.926 82.5673 629.727Z" fill="white"/>
<path d="M85.0534 624.069C87.0941 623.462 89.3655 623.118 91.8036 623.172C94.9611 623.242 98.1501 623.979 101.297 625.516C101.76 625.742 101.953 626.302 101.727 626.767C101.502 627.232 100.944 627.425 100.481 627.199C97.5828 625.784 94.6581 625.107 91.7626 625.043C89.529 624.994 87.4475 625.309 85.583 625.864C84.9797 626.043 84.4455 626.235 83.9873 626.425L83.8368 626.489C83.789 626.509 83.7437 626.529 83.7009 626.549L83.5305 626.628L83.4601 626.662C83.0026 626.899 82.4403 626.719 82.2042 626.26C81.9681 625.8 82.1476 625.236 82.605 624.999L82.6654 624.968C82.7981 624.902 83.0025 624.809 83.2745 624.696C83.791 624.481 84.3861 624.268 85.0534 624.069Z" fill="white"/>
<path d="M84.104 625.881C86.1568 625.323 88.4506 625.032 90.9117 625.152C94.1305 625.308 97.3614 626.159 100.52 627.844C100.975 628.086 101.148 628.653 100.906 629.109C100.665 629.566 100.1 629.739 99.6457 629.497C96.7362 627.945 93.7734 627.165 90.8218 627.021C88.5671 626.912 86.4654 627.178 84.5913 627.688C84.04 627.838 83.552 627.998 83.1337 628.156L82.9965 628.21C82.9094 628.244 82.8313 628.276 82.7622 628.306L82.6544 628.353C82.1888 628.574 81.6333 628.374 81.4135 627.906C81.1938 627.439 81.3931 626.881 81.8587 626.66L81.954 626.617C82.0758 626.563 82.25 626.491 82.474 626.406C82.9474 626.226 83.4927 626.047 84.104 625.881Z" fill="white"/>
<path d="M83.8501 628.549C88.4552 626.749 93.7338 626.369 99.3595 628.298C99.8467 628.465 100.107 628.997 99.9405 629.486C99.7742 629.975 99.2444 630.236 98.7572 630.069C93.5829 628.296 88.748 628.643 84.5266 630.294C83.7524 630.596 83.0679 630.92 82.4814 631.242C82.3368 631.321 82.2063 631.396 82.0902 631.465L81.928 631.564L81.8004 631.646C81.3756 631.938 80.7955 631.829 80.5047 631.403C80.2139 630.976 80.3225 630.394 80.7473 630.102L80.8488 630.034C81.0145 629.927 81.262 629.778 81.5874 629.599C82.242 629.24 82.9988 628.882 83.8501 628.549Z" fill="white"/>
<path fill-rule="evenodd" clip-rule="evenodd" d="M182.418 608.117L209.42 606.736C210.813 606.665 211.885 605.473 211.814 604.075L211.813 604.053C211.742 602.654 210.555 601.579 209.162 601.65L182.16 603.031C180.767 603.102 179.695 604.294 179.766 605.692L179.767 605.714C179.838 607.112 181.025 608.188 182.418 608.117Z" fill="#56ACF6"/>
<path fill-rule="evenodd" clip-rule="evenodd" d="M179.86 609.66C179.882 610.085 180.074 610.462 180.365 610.726C180.656 610.992 181.049 611.145 181.472 611.124L181.931 611.1L182.71 626.462L210.785 625.026L210.005 609.664L210.45 609.641C211.297 609.598 211.949 608.871 211.906 608.021C211.884 607.595 211.692 607.218 211.401 606.955C211.11 606.691 210.717 606.537 210.294 606.559L181.316 608.041C180.469 608.085 179.817 608.809 179.86 609.66Z" fill="#E4F9FF"/>
<path fill-rule="evenodd" clip-rule="evenodd" d="M225.945 651.333C225.945 651.333 226.04 643.404 223.578 642.656C221.116 641.909 180.137 642.821 180.137 642.821L180.626 651.03C180.626 651.03 193.063 653.639 203.743 653.467C214.423 653.295 225.66 651.847 225.945 651.333Z" fill="#E4F9FF"/>
<path fill-rule="evenodd" clip-rule="evenodd" d="M180.137 642.822C180.153 643.273 180.161 643.53 180.161 643.53C180.161 643.53 188.299 644.845 195.215 645.202C202.13 645.556 222.42 645.382 223.661 643.587C224.687 642.103 215.584 630.827 212.391 626.953C213.025 626.616 213.443 625.93 213.404 625.161C213.377 624.633 213.139 624.162 212.777 623.834C212.415 623.506 211.924 623.315 211.398 623.342L180.873 624.904C179.818 624.958 179.008 625.859 179.062 626.918C179.088 627.446 179.327 627.916 179.689 628.244C179.826 628.368 179.98 628.473 180.148 628.554C179.835 632.194 180.061 640.368 180.137 642.822Z" fill="#204EB2"/>
<path fill-rule="evenodd" clip-rule="evenodd" d="M220.895 638.198C220.895 638.198 225.74 642.914 223.48 643.831C221.22 644.748 203.208 646.382 196.518 645.655L189.829 644.929C189.829 644.929 189.169 642.023 193.009 638.861C195.753 636.601 197.462 633.593 200.089 632.924C202.716 632.256 207.822 631.709 210.181 632.746C212.54 633.783 216.637 635.937 220.895 638.198Z" fill="#56ACF6"/>
<path fill-rule="evenodd" clip-rule="evenodd" d="M188.12 634.927C188.12 634.927 188.108 641.556 185.587 641.511C183.065 641.465 181.489 631.428 180.04 628.536C180.04 628.536 181.276 628.133 183.695 633.882C184.919 636.791 184.814 639.98 188.12 634.927Z" fill="white"/>
<path d="M205.71 629.991C208.18 629.843 210.483 630.11 212.539 630.647C213.072 630.786 213.553 630.935 213.978 631.085L214.103 631.13C214.383 631.232 214.582 631.314 214.695 631.366C215.164 631.579 215.371 632.134 215.159 632.604C214.953 633.06 214.428 633.27 213.969 633.089L213.822 633.027L213.694 632.975C213.648 632.958 213.599 632.939 213.547 632.919L213.467 632.89C213.066 632.744 212.599 632.597 212.07 632.459C210.194 631.969 208.084 631.724 205.821 631.86C202.845 632.038 199.866 632.865 196.953 634.476C196.502 634.726 195.935 634.561 195.687 634.108C195.438 633.656 195.602 633.086 196.053 632.837C199.216 631.087 202.465 630.186 205.71 629.991Z" fill="white"/>
<path d="M202.94 624.468C205.411 624.32 207.713 624.587 209.77 625.123C210.303 625.262 210.784 625.411 211.208 625.562L211.334 625.607C211.613 625.709 211.812 625.791 211.925 625.842C212.394 626.055 212.602 626.61 212.389 627.081C212.183 627.537 211.659 627.747 211.2 627.565L211.053 627.503L210.924 627.452C210.856 627.425 210.78 627.396 210.697 627.366C210.297 627.22 209.829 627.073 209.3 626.935C207.424 626.445 205.314 626.201 203.051 626.336C200.075 626.514 197.097 627.341 194.183 628.952C193.733 629.202 193.166 629.037 192.917 628.584C192.669 628.132 192.833 627.563 193.284 627.313C196.447 625.563 199.695 624.662 202.94 624.468Z" fill="white"/>
<path d="M203.94 626.391C206.43 626.177 208.749 626.389 210.81 626.876C211.339 627.001 211.81 627.135 212.22 627.27L212.34 627.311C212.53 627.375 212.669 627.428 212.755 627.463C213.231 627.66 213.458 628.207 213.262 628.685C213.073 629.148 212.556 629.376 212.091 629.212L211.955 629.16L211.841 629.118C211.779 629.096 211.711 629.073 211.637 629.048C211.278 628.93 210.858 628.81 210.383 628.698C208.505 628.254 206.38 628.06 204.099 628.256C201.068 628.517 198.053 629.451 195.134 631.204C194.693 631.47 194.12 631.325 193.856 630.882C193.592 630.438 193.735 629.863 194.177 629.598C197.346 627.694 200.634 626.675 203.94 626.391Z" fill="white"/>
<path d="M195.359 629.992C201.033 627.718 206.448 627.896 211.194 629.565C211.912 629.818 212.558 630.088 213.125 630.36L213.265 630.428C213.633 630.609 213.894 630.754 214.039 630.843C214.478 631.113 214.616 631.689 214.347 632.13C214.087 632.557 213.541 632.7 213.108 632.464L212.954 632.375L212.923 632.358C212.789 632.284 212.63 632.2 212.445 632.109C211.909 631.845 211.284 631.58 210.578 631.332C206.228 629.802 201.269 629.639 196.051 631.731C195.573 631.922 195.03 631.689 194.839 631.209C194.648 630.729 194.881 630.184 195.359 629.992Z" fill="white"/>
<path fill-rule="evenodd" clip-rule="evenodd" d="M73.6953 289.402C73.6953 289.402 65.7026 338.609 54.3721 393.638C54.3721 393.638 53.5411 397.392 62.8889 396.141C72.2365 394.89 99.2408 396.349 111.704 398.852C124.168 401.355 125.206 401.355 125.206 392.595C125.206 383.835 126.868 362.771 126.868 362.771C126.868 362.771 127.699 400.729 131.854 399.686C136.008 398.644 159.166 384.203 199.409 391.646C199.409 391.646 203.91 390.583 202.587 385.798C201.263 381.013 177.482 312.942 174.368 289.402C174.368 289.402 140.81 289.402 73.6953 289.402Z" fill="#204EB2"/>
<path fill-rule="evenodd" clip-rule="evenodd" d="M112.369 136.38C112.369 136.38 111.509 155.368 100.477 162.07C90.4677 168.152 111.673 203.44 134.485 201.335C146.972 200.183 149.899 165.898 149.899 165.898C149.899 165.898 139.816 163.942 143.541 148.504L112.369 136.38Z" fill="#7D4439"/>
<path fill-rule="evenodd" clip-rule="evenodd" d="M130.635 155.687C115.846 153.891 105.174 144.128 103.679 127.933C99.3799 128.62 98.3659 117.372 99.5632 113.759C100.762 110.141 104.674 112.257 104.674 112.257C104.89 111.685 105.074 111.086 105.226 110.461C111.686 83.8548 129.78 84.91 129.78 84.91C163.029 86.6491 155.239 120.731 153.339 129.773C151.439 138.815 144.931 157.421 130.635 155.687Z" fill="#7D4439"/>
<mask id="mask6_2_351" style="mask-type:alpha" maskUnits="userSpaceOnUse" x="176" y="260" width="101" height="95">
<path fill-rule="evenodd" clip-rule="evenodd" d="M276.904 260.377H176.168V354.42H276.904V260.377Z" fill="white"/>
</mask>
<g mask="url(#mask6_2_351)">
<path fill-rule="evenodd" clip-rule="evenodd" d="M206.324 260.377C206.324 260.377 208.079 290.95 214.036 295.436C219.993 299.922 260.793 311.541 260.793 311.541C260.793 311.541 262.619 335.651 256.029 333.117C249.439 330.583 182.911 321.168 182.234 317.085C181.556 313.001 176.168 265.799 176.168 265.799L206.324 260.377Z" fill="#7D4439"/>
</g>
<path fill-rule="evenodd" clip-rule="evenodd" d="M50.0623 183.055C40.1228 198.856 40.8202 214.447 33.7799 219.437C26.7394 224.427 23.8404 231.496 21.7696 240.644C19.6991 249.792 21.7696 244.883 21.7696 244.883L56.8188 269.061C56.8188 269.061 77.6791 225.675 73.9517 239.396C70.2245 253.119 61.4282 310.836 64.9787 314.151C68.5293 317.466 101.885 330.3 132.086 328.916C158.548 327.704 183.479 320.617 183.479 318.675C183.479 314.517 177.488 267.672 177.488 267.672L208.548 260.603C208.548 260.603 205.939 198.384 179.405 177.478C179.405 177.478 165.032 166.932 147.343 163.047C147.343 163.047 142.184 174.333 125.968 174.703C109.753 175.073 104.495 169.254 100.447 162.819C100.447 162.819 60.0018 167.254 50.0623 183.055Z" fill="#FC7750"/>
<path fill-rule="evenodd" clip-rule="evenodd" d="M276.646 309.038C276.736 309.033 276.827 309.035 276.917 309.04C277.143 309.047 277.373 309.076 277.601 309.127L284.944 310.749C286.995 311.203 288.29 313.236 287.838 315.295C287.432 317.151 285.739 318.39 283.907 318.279C285.567 318.979 286.545 320.788 286.147 322.616C285.776 324.301 284.344 325.482 282.71 325.6C284.187 326.377 285.026 328.077 284.649 329.793C284.245 331.651 282.55 332.888 280.718 332.777C282.378 333.477 283.358 335.288 282.958 337.114C282.509 339.171 280.48 340.47 278.434 340.017L271.09 338.395C270.602 338.288 270.159 338.088 269.771 337.824L253.33 332.28C253.427 331.83 253.5 331.339 253.54 330.805C253.881 326.282 255.466 315.132 255.233 310.097C262.887 307.134 268.193 304.417 271.151 301.947C275.589 298.241 280.272 290.044 282.846 292.224C285.759 294.693 280.79 305.163 276.807 308.889C276.753 308.94 276.699 308.991 276.646 309.038Z" fill="#7D4439"/>
<path fill-rule="evenodd" clip-rule="evenodd" d="M52.1628 266.028C52.1628 266.028 37.5111 298.446 22.1908 287.5C6.87071 276.554 -1.73034 263.319 -23.8596 232.31C-32.5536 220.128 -54.3125 190.451 -48.6323 188.155C-45.4738 186.879 -25.9178 205.949 -14.8583 213.501C-11.6005 215.725 16.3251 243.177 19.3422 243.582C21.3536 243.852 32.2938 251.334 52.1628 266.028Z" fill="#7D4439"/>
<path fill-rule="evenodd" clip-rule="evenodd" d="M127.928 120.089C127.928 120.865 127.303 121.493 126.53 121.493C125.758 121.493 125.132 120.865 125.132 120.089C125.132 119.314 125.758 118.685 126.53 118.685C127.303 118.685 127.928 119.314 127.928 120.089Z" fill="black"/>
<path fill-rule="evenodd" clip-rule="evenodd" d="M146.455 123.248C146.455 124.023 145.829 124.652 145.057 124.652C144.285 124.652 143.659 124.023 143.659 123.248C143.659 122.473 144.285 121.844 145.057 121.844C145.829 121.844 146.455 122.473 146.455 123.248Z" fill="black"/>
<path fill-rule="evenodd" clip-rule="evenodd" d="M125.607 139.992C125.607 139.992 125.551 143.724 130.766 144.393C135.981 145.061 138.311 144.393 138.2 141.997C138.2 141.997 137.368 139.38 136.147 139.268C134.927 139.157 133.651 139.825 133.651 139.825C133.651 139.825 132.431 138.21 131.155 138.377C129.879 138.544 127.327 140.048 125.607 139.992Z" fill="#CE4129"/>
<mask id="mask7_2_351" style="mask-type:alpha" maskUnits="userSpaceOnUse" x="116" y="110" width="19" height="6">
<path fill-rule="evenodd" clip-rule="evenodd" d="M116.574 110.408H134.689V115.956H116.574V110.408Z" fill="white"/>
</mask>
<g mask="url(#mask7_2_351)">
<path fill-rule="evenodd" clip-rule="evenodd" d="M134.103 115.956C134.103 115.956 127.37 114.082 125.615 113.55C123.86 113.017 123.493 112.648 121.411 112.853C119.33 113.058 116.962 113.508 116.595 113.099C116.228 112.689 120.88 110.64 122.432 110.435C123.982 110.23 133.143 111.189 134.317 113.47C135.264 115.311 134.103 115.956 134.103 115.956Z" fill="black"/>
</g>
<path fill-rule="evenodd" clip-rule="evenodd" d="M134.779 142.013C130.977 141.504 126.43 140.828 125.003 140.112C123.962 139.589 123.578 139.72 123.575 139.722C123.575 139.722 123.909 138.516 125.42 139.274C126.891 140.013 132.921 140.82 134.903 141.085C138.369 141.549 138.682 141.37 139.078 141.143L139.54 141.955C139.156 142.176 138.794 142.31 137.974 142.31C137.303 142.31 136.326 142.22 134.779 142.013Z" fill="black"/>
<mask id="mask8_2_351" style="mask-type:alpha" maskUnits="userSpaceOnUse" x="142" y="114" width="12" height="5">
<path fill-rule="evenodd" clip-rule="evenodd" d="M142.099 114.534H153.982V118.556H142.099V114.534Z" fill="white"/>
</mask>
<g mask="url(#mask8_2_351)">
<path fill-rule="evenodd" clip-rule="evenodd" d="M142.109 116.853C142.109 116.853 142.255 115.385 144.039 114.739C145.823 114.093 152.052 115.15 152.52 115.503C152.988 115.855 153.836 116.706 153.982 118.556C153.982 118.556 153.307 117.147 152.079 116.912C150.851 116.677 147.022 117.734 144.595 117.705C142.167 117.675 142.05 117.382 142.109 116.853Z" fill="black"/>
</g>
<path fill-rule="evenodd" clip-rule="evenodd" d="M131.829 156.543C128.601 156.543 125.263 155.598 122.869 154.724C119.803 153.606 117.578 152.36 117.556 152.347L117.898 151.735C117.985 151.784 126.629 156.593 133.538 155.74L133.623 156.437C133.034 156.51 132.433 156.543 131.829 156.543Z" fill="black"/>
<path d="M140.563 116.612L141.451 116.898L141.364 117.177C141.294 117.405 141.216 117.666 141.132 117.954C140.893 118.781 140.653 119.668 140.43 120.581C140.181 121.596 139.968 122.581 139.801 123.51L139.753 123.785C139.348 126.15 139.291 127.955 139.653 128.925L139.674 128.981C141.743 134.119 138.933 136.725 133.037 134.901L132.857 134.844L133.141 133.953C138.453 135.659 140.583 133.736 138.81 129.331C138.322 128.119 138.397 126.061 138.884 123.344C139.054 122.394 139.271 121.391 139.524 120.358C139.726 119.534 139.941 118.731 140.156 117.974L140.237 117.693C140.286 117.525 140.333 117.367 140.377 117.218L140.491 116.843L140.563 116.612Z" fill="black"/>
<path d="M117.55 152.415L118.006 151.599L118.172 151.69L118.325 151.771C118.556 151.894 118.819 152.028 119.111 152.173L119.239 152.235C120.222 152.716 121.31 153.198 122.47 153.647C125.138 154.68 127.774 155.385 130.227 155.613C131.338 155.717 132.391 155.719 133.378 155.613L133.574 155.59L133.688 156.519C132.575 156.657 131.39 156.662 130.14 156.545C127.592 156.307 124.876 155.581 122.135 154.52C120.949 154.061 119.837 153.569 118.83 153.077L118.45 152.888C118.288 152.806 118.136 152.728 117.994 152.654L117.731 152.514L117.55 152.415Z" fill="black"/>
<path fill-rule="evenodd" clip-rule="evenodd" d="M136.342 135.483C135.4 135.483 134.224 135.298 132.757 134.826L133.041 133.935C135.773 134.813 137.791 134.741 138.724 133.733C139.517 132.875 139.512 131.305 138.71 129.314C138.166 127.963 138.3 125.4 139.11 121.696C139.702 118.986 140.455 116.618 140.463 116.594L141.35 116.88C140.533 119.438 138.621 126.596 139.574 128.963C140.785 131.972 140.152 133.564 139.407 134.369C138.875 134.944 137.948 135.483 136.342 135.483Z" fill="black"/>
<path fill-rule="evenodd" clip-rule="evenodd" d="M157.374 121.648C157.374 117.264 156.4 111.713 159.02 109.522C161.64 107.329 167.317 103.603 164.042 98.9996C160.767 94.3963 164.478 85.4089 158.802 84.3132C153.125 83.217 152.886 81.4135 151.358 77.2484C149.83 73.0836 143.339 76.3761 140.674 74.2736C138.16 72.2906 135.154 68.872 128.194 72.3807C124.446 74.2701 118.048 66.9269 113.391 77.2985C110.404 83.9503 107.243 78.1251 102.921 81.5812C97.7827 85.689 102.783 91.6931 98.198 94.7617C93.6132 97.8306 97.6061 101.349 95.9566 104.808C93.2352 110.514 97.8899 130.565 100.946 132.319C104.003 134.072 105.584 137.024 105.584 137.024C105.584 137.024 104.174 132.217 103.827 127.833C103.827 127.833 101.464 128.424 100.175 124.188C98.8854 119.951 98.4273 112.731 101.217 111.917C104.007 111.104 104.529 113.382 104.529 113.382C104.529 113.382 105.445 116.872 104.914 119.534C104.384 122.197 106.108 123.794 107.035 119.8C107.964 115.807 112.604 115.674 111.676 110.216C110.748 104.758 112.604 101.564 116.316 99.9666C120.028 98.3692 121.089 90.2492 124.271 91.0478C127.453 91.8466 131.032 88.3856 135.938 90.7815C140.843 93.1777 140.445 96.5056 144.688 97.3041C148.931 98.1029 151.184 100.765 151.184 103.028C151.184 105.291 154.101 106.09 154.897 109.284C155.692 112.479 154.995 121.952 153.331 129.906C153.331 129.906 157.374 126.033 157.374 121.648Z" fill="#711515"/>
</g>
<defs>
<clipPath id="clip0_2_351">
<rect width="785" height="660" fill="white"/>
</clipPath>
</defs>
</svg>
